<?xml version="1.0" encoding="utf-8"?>
<!-- Generator: Adobe Illustrator 15.1.0, SVG Export Plug-In . SVG Version: 6.00 Build 0)  -->
<svg version="1.2" baseProfile="tiny"
	 id="svg2" xmlns:inkscape="http://www.inkscape.org/namespaces/inkscape" xmlns:rdf="http://www.w3.org/1999/02/22-rdf-syntax-ns#" inkscape:label="PozadĂ­" xmlns:cc="http://creativecommons.org/ns#" xmlns:svg="http://www.w3.org/2000/svg" xmlns:sodipodi="http://sodipodi.sourceforge.net/DTD/sodipodi-0.dtd" xmlns:dc="http://purl.org/dc/elements/1.1/" sodipodi:docname="NovĂ˝ dokument 9" inkscape:version="0.48.4 r9939"
	 xmlns="http://www.w3.org/2000/svg" xmlns:xlink="http://www.w3.org/1999/xlink" x="0px" y="0px" width="350px" height="178.473px"
	 viewBox="0 0 350 178.473" xml:space="preserve">
<sodipodi:namedview  id="base" inkscape:zoom="0.35" showgrid="false" bordercolor="#666666" pagecolor="#ffffff" fit-margin-top="0" inkscape:cy="18.509767" borderopacity="1.0" fit-margin-left="0" inkscape:cx="36.298957" inkscape:current-layer="layer1" inkscape:document-units="px" inkscape:window-y="-8" inkscape:window-width="1920" fit-margin-right="0" fit-margin-bottom="0" inkscape:pageopacity="0.0" inkscape:pageshadow="2" inkscape:window-x="1912" inkscape:window-height="996" inkscape:window-maximized="1">
	</sodipodi:namedview>
<g id="layer1" transform="translate(-338.70104,-372.39816)" inkscape:label="Vrstva 1" inkscape:groupmode="layer">
	
		<path id="path3033-2-2" sodipodi:nodetypes="ccssscccssssccssscsccscsssccsssscccssscc" inkscape:connector-curvature="0" fill="#FFFF99" d="
		M513.701,372.398c-17.093,14.986-19.571,35.105-18.008,51.644c-1.147-0.253-2.33-0.382-3.554-0.382
		c-9.071,0-16.436,7.35-16.436,16.422s7.364,16.422,16.436,16.422c3.955,0,7.585-1.395,10.42-3.723
		c0.339,0.85,0.595,1.444,0.595,1.444c-15.775,47.84-53.196,24.146-66.325,10.589c3.838-2.038,6.441-6.069,6.441-10.717
		c0-6.702-5.431-12.132-12.132-12.132c-6.702,0-12.133,5.431-12.133,12.132s5.431,12.132,12.133,12.132
		c0.29,0,0.578-0.023,0.863-0.043c-3.244,36.271-25.176,52.381-54.815,13.463c0.449,0.051,0.911,0.071,1.373,0.071
		c6.702,0,12.133-5.431,12.133-12.132c0-6.702-5.431-12.133-12.133-12.133c-5.566,0-10.25,3.751-11.679,8.861
		c-6.451-10.292-36.407-16.864-26.006-8.409c26.199,21.299,59.486,94.963,59.486,94.963h228.137
		c6.684-14.295,35.075-76.303,58.029-94.963c10.4-8.456-19.555-1.883-26.007,8.409c-1.429-5.11-6.112-8.861-11.679-8.861
		c-6.702,0-12.133,5.431-12.133,12.133c0,6.701,5.431,12.132,12.133,12.132c0.462,0,0.924-0.02,1.373-0.071
		c-29.64,38.918-51.571,22.809-54.815-13.463c0.286,0.02,0.573,0.043,0.864,0.043c6.701,0,12.132-5.43,12.132-12.132
		s-5.431-12.132-12.132-12.132c-6.702,0-12.133,5.431-12.133,12.132c0,4.648,2.604,8.679,6.441,10.717
		c-13.129,13.557-50.549,37.251-66.324-10.589c0,0,0.255-0.594,0.595-1.444c2.834,2.328,6.464,3.723,10.419,3.723
		c9.071,0,16.436-7.35,16.436-16.422s-7.364-16.422-16.436-16.422c-1.224,0-2.406,0.129-3.554,0.382
		C533.272,407.503,530.793,387.384,513.701,372.398L513.701,372.398z"/>
</g>
</svg>
