<?xml version="1.0" encoding="utf-8"?>
<!-- Generator: Adobe Illustrator 15.1.0, SVG Export Plug-In . SVG Version: 6.00 Build 0)  -->
<!DOCTYPE svg PUBLIC "-//W3C//DTD SVG 1.0//EN" "http://www.w3.org/TR/2001/REC-SVG-20010904/DTD/svg10.dtd">
<svg version="1.0" xmlns="http://www.w3.org/2000/svg" xmlns:xlink="http://www.w3.org/1999/xlink" x="0px" y="0px" width="184px"
	 height="254px" viewBox="0 0 184 254" enable-background="new 0 0 184 254" xml:space="preserve">
<g id="Warstwa_1" display="none">
</g>
<g id="ace" display="none">
	<g display="inline">
		<path fill="#F8F8F7" stroke="#222221" d="M180.598,237.898c0,7.827-6.344,14.173-14.172,14.173H16.19
			c-7.828,0-14.174-6.346-14.174-14.173V16.795c0-7.827,6.346-14.173,14.174-14.173h150.236c7.828,0,14.172,6.346,14.172,14.173
			V237.898z"/>
		<path d="M14.771,45.143c-1.862,0-3.376,1.703-3.376,3.802c0,1.198,0.501,2.265,1.269,2.966c0.258,0.238,0.146,0.496-0.115,0.334
			c-0.48-0.291-1.021-0.477-1.606-0.477c-1.797,0-3.256,1.643-3.256,3.666c0,2.025,1.459,3.668,3.256,3.668
			c1.197,0,2.247-0.729,2.811-1.816c0.056-0.107,0.098-0.252,0.176-0.252c0.108,0,0.158,0.174,0.158,0.502
			c0,1.314-0.504,2.85-1.252,4.615c0.324-0.076,1.298-0.271,1.937-0.271s1.615,0.195,1.937,0.271
			c-0.744-1.766-1.25-3.301-1.25-4.615c0-0.328,0.048-0.502,0.156-0.502c0.078,0,0.124,0.145,0.176,0.252
			c0.566,1.088,1.613,1.816,2.813,1.816c1.798,0,3.256-1.643,3.256-3.668c0-2.023-1.458-3.666-3.256-3.666
			c-0.585,0-1.129,0.186-1.608,0.477c-0.263,0.162-0.374-0.096-0.116-0.334c0.771-0.701,1.269-1.768,1.269-2.966
			C18.147,46.846,16.636,45.143,14.771,45.143z"/>
		<path d="M167.844,209.552c1.861,0,3.377-1.704,3.377-3.802c0-1.2-0.504-2.264-1.268-2.967c-0.262-0.238-0.148-0.495,0.117-0.334
			c0.477,0.292,1.02,0.477,1.602,0.477c1.797,0,3.258-1.643,3.258-3.667c0-2.023-1.461-3.666-3.258-3.666
			c-1.195,0-2.246,0.729-2.811,1.816c-0.055,0.106-0.1,0.253-0.176,0.253c-0.107,0-0.158-0.176-0.158-0.504
			c0-1.313,0.506-2.851,1.256-4.615c-0.324,0.076-1.303,0.271-1.939,0.271s-1.615-0.195-1.936-0.271
			c0.744,1.765,1.252,3.302,1.252,4.615c0,0.328-0.051,0.504-0.16,0.504c-0.074,0-0.121-0.146-0.176-0.253
			c-0.563-1.088-1.613-1.816-2.811-1.816c-1.797,0-3.258,1.643-3.258,3.666c0,2.024,1.461,3.667,3.258,3.667
			c0.582,0,1.127-0.185,1.604-0.477c0.266-0.161,0.377,0.096,0.121,0.334c-0.77,0.703-1.271,1.767-1.271,2.967
			C164.467,207.848,165.98,209.552,167.844,209.552z"/>
		<path d="M91.307,106.088c-4.659,0-8.44,4.258-8.44,9.502c0,3,1.251,5.66,3.172,7.416c0.647,0.594,0.369,1.238-0.292,0.836
			c-1.198-0.729-2.552-1.191-4.015-1.191c-4.493,0-8.141,4.105-8.141,9.164c0,5.061,3.647,9.167,8.141,9.167
			c2.997,0,5.618-1.822,7.028-4.54c0.137-0.267,0.246-0.631,0.443-0.631c0.266,0,0.391,0.437,0.391,1.255
			c0,3.288-1.262,7.126-3.127,11.541c0.805-0.192,3.248-0.679,4.84-0.679c1.597,0,4.037,0.486,4.845,0.679
			c-1.867-4.415-3.131-8.253-3.131-11.541c0-0.818,0.127-1.255,0.395-1.255c0.195,0,0.305,0.364,0.439,0.631
			c1.412,2.718,4.031,4.54,7.027,4.54c4.496,0,8.141-4.106,8.141-9.167c0-5.059-3.645-9.164-8.141-9.164
			c-1.459,0-2.814,0.463-4.018,1.191c-0.654,0.402-0.936-0.242-0.285-0.836c1.918-1.756,3.168-4.416,3.168-7.416
			C99.748,110.346,95.967,106.088,91.307,106.088z"/>
		<g>
			<polygon fill="none" points="12.659,32.754 16.985,32.748 14.826,21.193 			"/>
			<path d="M20.247,38.588L16.18,16.821l-2.189-0.026l0.004,0.016l-0.545-0.004L9.393,38.588l-1.705,0.001l-0.003,2.302h5.45
				l0.003-2.303h-1.572l0.624-3.334l5.262-0.008l0.624,3.342l-1.667-0.002l-0.004,2.303l5.45,0.002l0.003-2.303H20.247z
				 M12.659,32.754l2.167-11.561l2.159,11.555L12.659,32.754z"/>
		</g>
		<g>
			<polygon fill="none" points="169.955,221.939 165.631,221.945 167.789,233.5 			"/>
			<path d="M162.367,216.105l4.068,21.767l2.188,0.026l-0.002-0.016l0.545,0.004l4.055-21.781l1.705-0.001l0.004-2.302h-5.449
				l-0.004,2.303h1.572l-0.625,3.334l-5.26,0.008l-0.625-3.342l1.666,0.002l0.006-2.303l-5.451-0.002l-0.004,2.303H162.367z
				 M169.955,221.939l-2.166,11.561l-2.158-11.555L169.955,221.939z"/>
		</g>
	</g>
</g>
<g id="two">
	<g>
		<path fill="#F8F8F7" stroke="#222221" d="M181.291,237.826c0,7.828-6.346,14.174-14.174,14.174H16.883
			c-7.828,0-14.174-6.346-14.174-14.174V16.724c0-7.827,6.346-14.173,14.174-14.173h150.234c7.828,0,14.174,6.346,14.174,14.173
			V237.826z"/>
		<path d="M15.465,45.07c-1.861,0-3.375,1.703-3.375,3.802c0,1.2,0.5,2.264,1.268,2.967c0.258,0.237,0.146,0.495-0.115,0.334
			c-0.48-0.291-1.023-0.477-1.607-0.477c-1.797,0-3.256,1.643-3.256,3.666c0,2.024,1.459,3.667,3.256,3.667
			c1.199,0,2.248-0.729,2.811-1.816c0.055-0.106,0.1-0.253,0.178-0.253c0.107,0,0.156,0.176,0.156,0.503
			c0,1.315-0.504,2.852-1.25,4.615c0.322-0.076,1.297-0.271,1.936-0.271s1.615,0.194,1.936,0.271c-0.746-1.764-1.25-3.3-1.25-4.615
			c0-0.327,0.051-0.503,0.158-0.503c0.078,0,0.121,0.146,0.176,0.253c0.564,1.088,1.613,1.816,2.811,1.816
			c1.797,0,3.256-1.643,3.256-3.667c0-2.023-1.459-3.666-3.256-3.666c-0.584,0-1.127,0.186-1.605,0.477
			c-0.264,0.161-0.375-0.097-0.115-0.334c0.766-0.703,1.268-1.767,1.268-2.967C18.842,46.773,17.33,45.07,15.465,45.07z"/>
		<path d="M168.533,209.48c1.865,0,3.377-1.704,3.377-3.802c0-1.2-0.502-2.265-1.268-2.967c-0.258-0.237-0.146-0.495,0.113-0.335
			c0.48,0.291,1.023,0.478,1.609,0.478c1.795,0,3.258-1.644,3.258-3.667s-1.463-3.667-3.258-3.667c-1.199,0-2.246,0.729-2.811,1.816
			c-0.055,0.106-0.1,0.253-0.18,0.253c-0.107,0-0.156-0.175-0.156-0.503c0-1.313,0.508-2.851,1.25-4.614
			c-0.322,0.075-1.295,0.27-1.936,0.27c-0.635,0-1.611-0.194-1.936-0.27c0.744,1.764,1.252,3.301,1.252,4.614
			c0,0.328-0.051,0.503-0.156,0.503c-0.082,0-0.123-0.146-0.178-0.253c-0.566-1.087-1.615-1.816-2.811-1.816
			c-1.799,0-3.256,1.644-3.256,3.667s1.457,3.667,3.256,3.667c0.582,0,1.125-0.187,1.605-0.478c0.266-0.16,0.377,0.098,0.117,0.335
			c-0.77,0.702-1.27,1.767-1.27,2.967C165.158,207.776,166.67,209.48,168.533,209.48z"/>
		<path d="M92.002,28.063c-4.66,0-8.441,4.258-8.441,9.504c0,2.999,1.252,5.66,3.172,7.417c0.648,0.593,0.369,1.237-0.289,0.836
			c-1.201-0.729-2.555-1.192-4.016-1.192c-4.494,0-8.145,4.105-8.145,9.166s3.65,9.168,8.145,9.168c2.994,0,5.619-1.822,7.025-4.542
			c0.139-0.266,0.25-0.631,0.443-0.631c0.268,0,0.393,0.438,0.393,1.256c0,3.287-1.264,7.127-3.129,11.538
			c0.807-0.191,3.25-0.678,4.842-0.678s4.033,0.486,4.84,0.678c-1.865-4.411-3.131-8.251-3.131-11.538
			c0-0.818,0.129-1.256,0.395-1.256c0.195,0,0.305,0.365,0.441,0.631c1.41,2.72,4.031,4.542,7.027,4.542
			c4.496,0,8.143-4.107,8.143-9.168s-3.646-9.166-8.143-9.166c-1.459,0-2.814,0.463-4.012,1.192
			c-0.662,0.401-0.941-0.243-0.291-0.836c1.916-1.757,3.168-4.418,3.168-7.417C100.439,32.32,96.658,28.063,92.002,28.063z"/>
		<path d="M92.002,226.488c4.656,0,8.438-4.258,8.438-9.506c0-2.998-1.252-5.658-3.168-7.414c-0.65-0.594-0.371-1.239,0.291-0.837
			c1.197,0.729,2.553,1.193,4.012,1.193c4.496,0,8.143-4.106,8.143-9.167s-3.646-9.168-8.143-9.168
			c-2.996,0-5.615,1.822-7.027,4.541c-0.137,0.266-0.246,0.631-0.441,0.631c-0.266,0-0.395-0.437-0.395-1.256
			c0-3.286,1.266-7.125,3.131-11.537c-0.807,0.191-3.248,0.678-4.84,0.678c-1.594,0-4.035-0.486-4.842-0.678
			c1.867,4.412,3.129,8.251,3.129,11.537c0,0.819-0.125,1.256-0.393,1.256c-0.193,0-0.305-0.365-0.441-0.631
			c-1.408-2.719-4.033-4.541-7.027-4.541c-4.494,0-8.145,4.107-8.145,9.168s3.65,9.167,8.145,9.167c1.461,0,2.814-0.464,4.016-1.193
			c0.658-0.402,0.938,0.243,0.289,0.837c-1.92,1.756-3.172,4.416-3.172,7.414C83.561,222.23,87.342,226.488,92.002,226.488z"/>
		<path d="M22.529,37.047l-2.275-0.01l-0.008,1.448l-9.561-0.001c0.049-0.332,0.193-0.754,0.463-1.237
			c0.488-0.892,1.35-1.937,2.387-2.974c1.035-1.038,2.24-2.076,3.416-3.021l0.004-0.004l0.01-0.008
			c1.42-1.182,2.631-2.057,3.617-3.098c0.488-0.521,0.92-1.094,1.242-1.76c0.322-0.664,0.529-1.41,0.605-2.234
			c0.018-0.174,0.025-0.359,0.025-0.562c0-0.562-0.066-1.239-0.254-1.972c-0.279-1.092-0.846-2.322-1.928-3.291
			c-1.08-0.973-2.652-1.607-4.676-1.601c-1.625-0.003-2.961,0.419-3.979,1.107c-0.764,0.513-1.342,1.161-1.77,1.829
			c-0.639,1.006-0.951,2.055-1.115,2.895c-0.162,0.842-0.176,1.484-0.176,1.695c0,0.038,0,0.063,0,0.072l1.975-0.053l0.303-0.004
			c0-0.002,0-0.008,0-0.016c-0.006-0.178,0.041-1.621,0.666-2.859c0.309-0.621,0.74-1.188,1.367-1.609
			c0.627-0.418,1.473-0.721,2.729-0.725c1.059,0.002,1.832,0.207,2.418,0.506c0.873,0.449,1.387,1.121,1.721,1.881
			c0.332,0.752,0.443,1.588,0.441,2.144c0,0.132-0.006,0.247-0.014,0.337c-0.057,0.576-0.186,1.016-0.379,1.42
			c-0.291,0.602-0.766,1.155-1.486,1.803c-0.715,0.643-1.654,1.359-2.762,2.275c-1.619,1.305-3.32,2.793-4.666,4.326
			c-0.676,0.769-1.262,1.549-1.705,2.352C8.75,36.857,8.459,37.646,8.4,38.484H8.393l-0.008,0.145v0.002l0,0l-0.002,0.006
			l-0.006,2.182h14.156v-1L22.529,37.047z"/>
		<path d="M161.451,217.502l2.275,0.01l0.01-1.447h9.561c-0.051,0.334-0.195,0.756-0.463,1.238
			c-0.488,0.891-1.352,1.938-2.387,2.973c-1.035,1.039-2.242,2.078-3.416,3.023l-0.006,0.002l-0.008,0.008
			c-1.42,1.184-2.633,2.057-3.617,3.1c-0.49,0.521-0.92,1.094-1.242,1.758c-0.324,0.664-0.531,1.41-0.607,2.236
			c-0.016,0.172-0.025,0.358-0.025,0.561c0.002,0.561,0.066,1.24,0.254,1.972c0.281,1.091,0.848,2.322,1.93,3.292
			c1.078,0.973,2.652,1.607,4.676,1.6c1.625,0.003,2.959-0.42,3.979-1.107c0.764-0.513,1.342-1.16,1.768-1.83
			c0.641-1.006,0.951-2.053,1.117-2.895c0.162-0.842,0.176-1.482,0.176-1.693c0-0.039,0-0.064-0.002-0.072l-1.973,0.053
			l-0.303,0.004c0,0.002,0,0.007,0,0.016c0.006,0.178-0.043,1.62-0.666,2.857c-0.309,0.623-0.74,1.188-1.367,1.609
			c-0.629,0.42-1.473,0.723-2.729,0.727c-1.059-0.002-1.832-0.209-2.418-0.508c-0.873-0.449-1.387-1.119-1.723-1.879
			c-0.332-0.754-0.443-1.588-0.441-2.145c0-0.132,0.008-0.246,0.016-0.338c0.055-0.575,0.184-1.016,0.379-1.42
			c0.291-0.602,0.766-1.154,1.486-1.801c0.713-0.643,1.654-1.359,2.76-2.275c1.621-1.307,3.32-2.795,4.668-4.326
			c0.674-0.77,1.262-1.549,1.705-2.353c0.416-0.757,0.707-1.546,0.766-2.386h0.008l0.008-0.144c0-0.001,0-0.001,0-0.002l0,0v-0.007
			l0.006-2.181h-14.154v1.001L161.451,217.502z"/>
	</g>
</g>
</svg>
