<?xml version="1.0" encoding="utf-8"?>
<!-- Generator: Adobe Illustrator 15.1.0, SVG Export Plug-In . SVG Version: 6.00 Build 0)  -->
<!DOCTYPE svg PUBLIC "-//W3C//DTD SVG 1.1 Tiny//EN" "http://www.w3.org/Graphics/SVG/1.1/DTD/svg11-tiny.dtd">
<svg version="1.1" baseProfile="tiny" xmlns="http://www.w3.org/2000/svg" xmlns:xlink="http://www.w3.org/1999/xlink" x="0px"
	 y="0px" width="184px" height="254px" viewBox="0 0 184 254" xml:space="preserve">
<g id="Warstwa_1" display="none">
</g>
<g id="ace" display="none">
	<g display="inline">
		<path fill="#F8F8F7" stroke="#222221" d="M181.598,237.898c0,7.827-6.344,14.173-14.172,14.173H17.19
			c-7.828,0-14.174-6.346-14.174-14.173V16.795c0-7.827,6.346-14.173,14.174-14.173h150.236c7.828,0,14.172,6.346,14.172,14.173
			V237.898z"/>
		<path d="M15.771,45.143c-1.862,0-3.376,1.703-3.376,3.802c0,1.198,0.501,2.265,1.269,2.966c0.258,0.238,0.146,0.496-0.115,0.334
			c-0.48-0.291-1.021-0.477-1.606-0.477c-1.797,0-3.256,1.643-3.256,3.666c0,2.025,1.459,3.668,3.256,3.668
			c1.197,0,2.247-0.729,2.811-1.816c0.056-0.107,0.098-0.252,0.176-0.252c0.108,0,0.158,0.174,0.158,0.502
			c0,1.314-0.504,2.85-1.252,4.615c0.324-0.076,1.298-0.271,1.937-0.271s1.615,0.195,1.937,0.271
			c-0.744-1.766-1.25-3.301-1.25-4.615c0-0.328,0.048-0.502,0.156-0.502c0.078,0,0.124,0.145,0.176,0.252
			c0.566,1.088,1.613,1.816,2.813,1.816c1.798,0,3.256-1.643,3.256-3.668c0-2.023-1.458-3.666-3.256-3.666
			c-0.585,0-1.129,0.186-1.608,0.477c-0.263,0.162-0.374-0.096-0.116-0.334c0.771-0.701,1.269-1.768,1.269-2.966
			C19.147,46.846,17.636,45.143,15.771,45.143z"/>
		<path d="M168.844,209.552c1.861,0,3.377-1.704,3.377-3.802c0-1.2-0.504-2.264-1.268-2.967c-0.262-0.238-0.148-0.495,0.117-0.334
			c0.477,0.292,1.02,0.477,1.602,0.477c1.797,0,3.258-1.643,3.258-3.667c0-2.023-1.461-3.666-3.258-3.666
			c-1.195,0-2.246,0.729-2.811,1.816c-0.055,0.106-0.1,0.253-0.176,0.253c-0.107,0-0.158-0.176-0.158-0.504
			c0-1.313,0.506-2.851,1.256-4.615c-0.324,0.076-1.303,0.271-1.939,0.271s-1.615-0.195-1.936-0.271
			c0.744,1.765,1.252,3.302,1.252,4.615c0,0.328-0.051,0.504-0.16,0.504c-0.074,0-0.121-0.146-0.176-0.253
			c-0.563-1.088-1.613-1.816-2.811-1.816c-1.797,0-3.258,1.643-3.258,3.666c0,2.024,1.461,3.667,3.258,3.667
			c0.582,0,1.127-0.185,1.604-0.477c0.266-0.161,0.377,0.096,0.121,0.334c-0.77,0.703-1.271,1.767-1.271,2.967
			C165.467,207.848,166.98,209.552,168.844,209.552z"/>
		<path d="M92.307,106.088c-4.659,0-8.44,4.258-8.44,9.502c0,3,1.251,5.66,3.172,7.416c0.647,0.594,0.369,1.238-0.292,0.836
			c-1.198-0.729-2.552-1.191-4.015-1.191c-4.493,0-8.141,4.105-8.141,9.164c0,5.061,3.647,9.167,8.141,9.167
			c2.997,0,5.618-1.822,7.028-4.54c0.137-0.267,0.246-0.631,0.443-0.631c0.266,0,0.391,0.437,0.391,1.255
			c0,3.288-1.262,7.126-3.127,11.541c0.805-0.192,3.248-0.679,4.84-0.679c1.597,0,4.037,0.486,4.845,0.679
			c-1.867-4.415-3.131-8.253-3.131-11.541c0-0.818,0.127-1.255,0.395-1.255c0.195,0,0.305,0.364,0.439,0.631
			c1.412,2.718,4.031,4.54,7.027,4.54c4.496,0,8.141-4.106,8.141-9.167c0-5.059-3.645-9.164-8.141-9.164
			c-1.459,0-2.814,0.463-4.018,1.191c-0.654,0.402-0.936-0.242-0.285-0.836c1.918-1.756,3.168-4.416,3.168-7.416
			C100.748,110.346,96.967,106.088,92.307,106.088z"/>
		<g>
			<polygon fill="none" points="13.659,32.754 17.985,32.748 15.826,21.193 			"/>
			<path d="M21.247,38.588L17.18,16.821l-2.189-0.026l0.004,0.016l-0.545-0.004l-4.057,21.781l-1.705,0.001l-0.003,2.302h5.45
				l0.003-2.303h-1.572l0.624-3.334l5.262-0.008l0.624,3.342l-1.667-0.002l-0.004,2.303l5.45,0.002l0.003-2.303H21.247z
				 M13.659,32.754l2.167-11.561l2.159,11.555L13.659,32.754z"/>
		</g>
		<g>
			<polygon fill="none" points="170.955,221.939 166.631,221.945 168.789,233.5 			"/>
			<path d="M163.367,216.105l4.068,21.767l2.188,0.026l-0.002-0.016l0.545,0.004l4.055-21.781l1.705-0.001l0.004-2.302h-5.449
				l-0.004,2.303h1.572l-0.625,3.334l-5.26,0.008l-0.625-3.342l1.666,0.002l0.006-2.303l-5.451-0.002l-0.004,2.303H163.367z
				 M170.955,221.939l-2.166,11.561l-2.158-11.555L170.955,221.939z"/>
		</g>
	</g>
</g>
<g id="two" display="none">
	<g display="inline">
		<path fill="#F8F8F7" stroke="#222221" d="M181.291,237.826c0,7.828-6.346,14.174-14.174,14.174H16.883
			c-7.828,0-14.174-6.346-14.174-14.174V16.724c0-7.827,6.346-14.173,14.174-14.173h150.234c7.828,0,14.174,6.346,14.174,14.173
			V237.826z"/>
		<path d="M15.465,45.07c-1.861,0-3.375,1.703-3.375,3.802c0,1.2,0.5,2.264,1.268,2.967c0.258,0.237,0.146,0.495-0.115,0.334
			c-0.48-0.291-1.023-0.477-1.607-0.477c-1.797,0-3.256,1.643-3.256,3.666c0,2.024,1.459,3.667,3.256,3.667
			c1.199,0,2.248-0.729,2.811-1.816c0.055-0.106,0.1-0.253,0.178-0.253c0.107,0,0.156,0.176,0.156,0.503
			c0,1.315-0.504,2.852-1.25,4.615c0.322-0.076,1.297-0.271,1.936-0.271s1.615,0.194,1.936,0.271c-0.746-1.764-1.25-3.3-1.25-4.615
			c0-0.327,0.051-0.503,0.158-0.503c0.078,0,0.121,0.146,0.176,0.253c0.564,1.088,1.613,1.816,2.811,1.816
			c1.797,0,3.256-1.643,3.256-3.667c0-2.023-1.459-3.666-3.256-3.666c-0.584,0-1.127,0.186-1.605,0.477
			c-0.264,0.161-0.375-0.097-0.115-0.334c0.766-0.703,1.268-1.767,1.268-2.967C18.842,46.773,17.33,45.07,15.465,45.07z"/>
		<path d="M168.533,209.48c1.865,0,3.377-1.704,3.377-3.802c0-1.2-0.502-2.265-1.268-2.967c-0.258-0.237-0.146-0.495,0.113-0.335
			c0.48,0.291,1.023,0.478,1.609,0.478c1.795,0,3.258-1.644,3.258-3.667s-1.463-3.667-3.258-3.667c-1.199,0-2.246,0.729-2.811,1.816
			c-0.055,0.106-0.1,0.253-0.18,0.253c-0.107,0-0.156-0.175-0.156-0.503c0-1.313,0.508-2.851,1.25-4.614
			c-0.322,0.075-1.295,0.27-1.936,0.27c-0.635,0-1.611-0.194-1.936-0.27c0.744,1.764,1.252,3.301,1.252,4.614
			c0,0.328-0.051,0.503-0.156,0.503c-0.082,0-0.123-0.146-0.178-0.253c-0.566-1.087-1.615-1.816-2.811-1.816
			c-1.799,0-3.256,1.644-3.256,3.667s1.457,3.667,3.256,3.667c0.582,0,1.125-0.187,1.605-0.478c0.266-0.16,0.377,0.098,0.117,0.335
			c-0.77,0.702-1.27,1.767-1.27,2.967C165.158,207.776,166.67,209.48,168.533,209.48z"/>
		<path d="M92.002,28.063c-4.66,0-8.441,4.258-8.441,9.504c0,2.999,1.252,5.66,3.172,7.417c0.648,0.593,0.369,1.237-0.289,0.836
			c-1.201-0.729-2.555-1.192-4.016-1.192c-4.494,0-8.145,4.105-8.145,9.166s3.65,9.168,8.145,9.168c2.994,0,5.619-1.822,7.025-4.542
			c0.139-0.266,0.25-0.631,0.443-0.631c0.268,0,0.393,0.438,0.393,1.256c0,3.287-1.264,7.127-3.129,11.538
			c0.807-0.191,3.25-0.678,4.842-0.678s4.033,0.486,4.84,0.678c-1.865-4.411-3.131-8.251-3.131-11.538
			c0-0.818,0.129-1.256,0.395-1.256c0.195,0,0.305,0.365,0.441,0.631c1.41,2.72,4.031,4.542,7.027,4.542
			c4.496,0,8.143-4.107,8.143-9.168s-3.646-9.166-8.143-9.166c-1.459,0-2.814,0.463-4.012,1.192
			c-0.662,0.401-0.941-0.243-0.291-0.836c1.916-1.757,3.168-4.418,3.168-7.417C100.439,32.32,96.658,28.063,92.002,28.063z"/>
		<path d="M92.002,226.488c4.656,0,8.438-4.258,8.438-9.506c0-2.998-1.252-5.658-3.168-7.414c-0.65-0.594-0.371-1.239,0.291-0.837
			c1.197,0.729,2.553,1.193,4.012,1.193c4.496,0,8.143-4.106,8.143-9.167s-3.646-9.168-8.143-9.168
			c-2.996,0-5.615,1.822-7.027,4.541c-0.137,0.266-0.246,0.631-0.441,0.631c-0.266,0-0.395-0.437-0.395-1.256
			c0-3.286,1.266-7.125,3.131-11.537c-0.807,0.191-3.248,0.678-4.84,0.678c-1.594,0-4.035-0.486-4.842-0.678
			c1.867,4.412,3.129,8.251,3.129,11.537c0,0.819-0.125,1.256-0.393,1.256c-0.193,0-0.305-0.365-0.441-0.631
			c-1.408-2.719-4.033-4.541-7.027-4.541c-4.494,0-8.145,4.107-8.145,9.168s3.65,9.167,8.145,9.167c1.461,0,2.814-0.464,4.016-1.193
			c0.658-0.402,0.938,0.243,0.289,0.837c-1.92,1.756-3.172,4.416-3.172,7.414C83.561,222.23,87.342,226.488,92.002,226.488z"/>
		<path d="M22.529,37.047l-2.275-0.01l-0.008,1.448l-9.561-0.001c0.049-0.332,0.193-0.754,0.463-1.237
			c0.488-0.892,1.35-1.937,2.387-2.974c1.035-1.038,2.24-2.076,3.416-3.021l0.004-0.004l0.01-0.008
			c1.42-1.182,2.631-2.057,3.617-3.098c0.488-0.521,0.92-1.094,1.242-1.76c0.322-0.664,0.529-1.41,0.605-2.234
			c0.018-0.174,0.025-0.359,0.025-0.562c0-0.562-0.066-1.239-0.254-1.972c-0.279-1.092-0.846-2.322-1.928-3.291
			c-1.08-0.973-2.652-1.607-4.676-1.601c-1.625-0.003-2.961,0.419-3.979,1.107c-0.764,0.513-1.342,1.161-1.77,1.829
			c-0.639,1.006-0.951,2.055-1.115,2.895c-0.162,0.842-0.176,1.484-0.176,1.695c0,0.038,0,0.063,0,0.072l1.975-0.053l0.303-0.004
			c0-0.002,0-0.008,0-0.016c-0.006-0.178,0.041-1.621,0.666-2.859c0.309-0.621,0.74-1.188,1.367-1.609
			c0.627-0.418,1.473-0.721,2.729-0.725c1.059,0.002,1.832,0.207,2.418,0.506c0.873,0.449,1.387,1.121,1.721,1.881
			c0.332,0.752,0.443,1.588,0.441,2.144c0,0.132-0.006,0.247-0.014,0.337c-0.057,0.576-0.186,1.016-0.379,1.42
			c-0.291,0.602-0.766,1.155-1.486,1.803c-0.715,0.643-1.654,1.359-2.762,2.275c-1.619,1.305-3.32,2.793-4.666,4.326
			c-0.676,0.769-1.262,1.549-1.705,2.352C8.75,36.857,8.459,37.646,8.4,38.484H8.393l-0.008,0.145v0.002l0,0l-0.002,0.006
			l-0.006,2.182h14.156v-1L22.529,37.047z"/>
		<path d="M161.451,217.502l2.275,0.01l0.01-1.447h9.561c-0.051,0.334-0.195,0.756-0.463,1.238
			c-0.488,0.891-1.352,1.938-2.387,2.973c-1.035,1.039-2.242,2.078-3.416,3.023l-0.006,0.002l-0.008,0.008
			c-1.42,1.184-2.633,2.057-3.617,3.1c-0.49,0.521-0.92,1.094-1.242,1.758c-0.324,0.664-0.531,1.41-0.607,2.236
			c-0.016,0.172-0.025,0.358-0.025,0.561c0.002,0.561,0.066,1.24,0.254,1.972c0.281,1.091,0.848,2.322,1.93,3.292
			c1.078,0.973,2.652,1.607,4.676,1.6c1.625,0.003,2.959-0.42,3.979-1.107c0.764-0.513,1.342-1.16,1.768-1.83
			c0.641-1.006,0.951-2.053,1.117-2.895c0.162-0.842,0.176-1.482,0.176-1.693c0-0.039,0-0.064-0.002-0.072l-1.973,0.053
			l-0.303,0.004c0,0.002,0,0.007,0,0.016c0.006,0.178-0.043,1.62-0.666,2.857c-0.309,0.623-0.74,1.188-1.367,1.609
			c-0.629,0.42-1.473,0.723-2.729,0.727c-1.059-0.002-1.832-0.209-2.418-0.508c-0.873-0.449-1.387-1.119-1.723-1.879
			c-0.332-0.754-0.443-1.588-0.441-2.145c0-0.132,0.008-0.246,0.016-0.338c0.055-0.575,0.184-1.016,0.379-1.42
			c0.291-0.602,0.766-1.154,1.486-1.801c0.713-0.643,1.654-1.359,2.76-2.275c1.621-1.307,3.32-2.795,4.668-4.326
			c0.674-0.77,1.262-1.549,1.705-2.353c0.416-0.757,0.707-1.546,0.766-2.386h0.008l0.008-0.144c0-0.001,0-0.001,0-0.002l0,0v-0.007
			l0.006-2.181h-14.154v1.001L161.451,217.502z"/>
	</g>
</g>
<g id="three" display="none">
	<g display="inline">
		<path fill="#F8F8F7" stroke="#222221" d="M182,237.898c0,7.828-6.345,14.174-14.173,14.174H17.591
			c-7.828,0-14.174-6.346-14.174-14.174V16.795c0-7.827,6.346-14.173,14.174-14.173h150.236c7.828,0,14.173,6.346,14.173,14.173
			V237.898z"/>
		<path d="M16.173,45.142c-1.861,0-3.375,1.703-3.375,3.802c0,1.2,0.5,2.264,1.27,2.966c0.258,0.238,0.146,0.496-0.115,0.335
			c-0.482-0.291-1.025-0.478-1.609-0.478c-1.797,0-3.256,1.643-3.256,3.668c0,2.023,1.459,3.666,3.256,3.666
			c1.201,0,2.25-0.729,2.811-1.816c0.057-0.106,0.102-0.252,0.18-0.252c0.107,0,0.154,0.175,0.154,0.502
			c0,1.314-0.504,2.851-1.25,4.615c0.324-0.076,1.299-0.271,1.936-0.271c0.639,0,1.615,0.194,1.938,0.271
			c-0.746-1.765-1.252-3.301-1.252-4.615c0-0.327,0.051-0.502,0.158-0.502c0.078,0,0.121,0.146,0.178,0.252
			c0.564,1.088,1.613,1.816,2.809,1.816c1.799,0,3.258-1.643,3.258-3.666c0-2.025-1.459-3.668-3.258-3.668
			c-0.582,0-1.125,0.187-1.605,0.478c-0.264,0.161-0.375-0.097-0.115-0.335c0.766-0.702,1.27-1.766,1.27-2.966
			C19.552,46.845,18.038,45.142,16.173,45.142z"/>
		<path d="M169.241,209.553c1.864,0,3.375-1.705,3.375-3.803c0-1.199-0.499-2.264-1.267-2.967c-0.257-0.236-0.146-0.494,0.114-0.334
			c0.48,0.293,1.023,0.477,1.61,0.477c1.794,0,3.257-1.643,3.257-3.666s-1.463-3.666-3.257-3.666c-1.2,0-2.248,0.729-2.811,1.816
			c-0.055,0.105-0.101,0.252-0.181,0.252c-0.108,0-0.153-0.176-0.153-0.502c0-1.314,0.505-2.85,1.247-4.617
			c-0.323,0.078-1.295,0.273-1.936,0.273c-0.634,0-1.612-0.195-1.936-0.273c0.743,1.768,1.253,3.303,1.253,4.617
			c0,0.326-0.051,0.502-0.158,0.502c-0.08,0-0.121-0.146-0.176-0.252c-0.567-1.088-1.616-1.816-2.811-1.816
			c-1.8,0-3.256,1.643-3.256,3.666s1.456,3.666,3.256,3.666c0.582,0,1.124-0.184,1.606-0.477c0.264-0.16,0.375,0.098,0.115,0.334
			c-0.77,0.703-1.27,1.768-1.27,2.967C165.866,207.848,167.377,209.553,169.241,209.553z"/>
		<path d="M92.708,28.134c-4.658,0-8.439,4.258-8.439,9.504c0,2.999,1.252,5.66,3.172,7.416c0.646,0.594,0.369,1.238-0.291,0.837
			c-1.199-0.729-2.553-1.193-4.016-1.193c-4.492,0-8.141,4.106-8.141,9.167s3.648,9.168,8.141,9.168
			c2.996,0,5.617-1.823,7.027-4.542c0.137-0.266,0.246-0.631,0.443-0.631c0.266,0,0.391,0.438,0.391,1.256
			c0,3.287-1.262,7.127-3.127,11.538c0.805-0.191,3.248-0.678,4.84-0.678c1.593,0,4.038,0.486,4.841,0.678
			c-1.866-4.411-3.125-8.251-3.125-11.538c0-0.818,0.122-1.256,0.389-1.256c0.195,0,0.306,0.365,0.445,0.631
			c1.406,2.719,4.03,4.542,7.028,4.542c4.489,0,8.14-4.107,8.14-9.168s-3.65-9.167-8.14-9.167c-1.466,0-2.819,0.464-4.019,1.193
			c-0.66,0.401-0.937-0.243-0.29-0.837c1.918-1.756,3.173-4.417,3.173-7.416C101.15,32.392,97.369,28.134,92.708,28.134z"/>
		<path d="M92.708,106.087c-4.658,0-8.439,4.254-8.439,9.496c0,2.998,1.252,5.662,3.172,7.42c0.646,0.594,0.369,1.238-0.291,0.838
			c-1.199-0.73-2.553-1.195-4.016-1.195c-4.492,0-8.141,4.11-8.141,9.169c0,5.057,3.648,9.16,8.141,9.16
			c2.996,0,5.617-1.82,7.027-4.537c0.137-0.266,0.246-0.631,0.443-0.631c0.266,0,0.391,0.438,0.391,1.254
			c0,3.285-1.262,7.127-3.127,11.547c0.805-0.191,3.248-0.68,4.84-0.68c1.593,0,4.038,0.488,4.841,0.68
			c-1.866-4.42-3.125-8.262-3.125-11.547c0-0.816,0.122-1.254,0.389-1.254c0.195,0,0.306,0.365,0.445,0.631
			c1.406,2.717,4.03,4.537,7.028,4.537c4.489,0,8.14-4.104,8.14-9.16c0-5.059-3.65-9.169-8.14-9.169
			c-1.466,0-2.819,0.465-4.019,1.195c-0.66,0.4-0.937-0.244-0.29-0.838c1.918-1.758,3.173-4.422,3.173-7.42
			C101.15,110.341,97.369,106.087,92.708,106.087z"/>
		<path d="M92.708,226.561c4.662,0,8.443-4.258,8.443-9.504c0-2.998-1.256-5.66-3.174-7.416c-0.646-0.594-0.37-1.238,0.29-0.836
			c1.2,0.729,2.553,1.193,4.019,1.193c4.489,0,8.14-4.107,8.14-9.168s-3.65-9.168-8.14-9.168c-2.997,0-5.621,1.822-7.028,4.541
			c-0.14,0.266-0.25,0.631-0.445,0.631c-0.267,0-0.389-0.436-0.389-1.256c0-3.285,1.26-7.125,3.124-11.537
			c-0.802,0.191-3.247,0.678-4.84,0.678c-1.592,0-4.035-0.486-4.84-0.678c1.865,4.412,3.127,8.252,3.127,11.537
			c0,0.82-0.125,1.256-0.391,1.256c-0.197,0-0.307-0.365-0.443-0.631c-1.41-2.719-4.031-4.541-7.027-4.541
			c-4.492,0-8.141,4.107-8.141,9.168s3.648,9.168,8.141,9.168c1.463,0,2.816-0.465,4.016-1.193c0.66-0.402,0.938,0.242,0.291,0.836
			c-1.92,1.756-3.172,4.418-3.172,7.416C84.269,222.303,88.05,226.561,92.708,226.561z"/>
		<g>
			<path d="M17.229,24.583l5.877-5.248h0.02v-0.018l0.006-0.006l-0.006-0.006v-2.511L9.597,16.796l0.008,1.813v2.256h2.078v-1.541
				l7.912,0.008l-7.768,7.195l1.119,1.658c0.848-0.779,1.91-1.244,3.078-1.244c1.371,0,2.744,0.641,3.643,1.68
				c0.896,1.041,1.449,2.467,1.449,4.053c0,1.588-0.553,3.012-1.449,4.054c-0.898,1.04-2.271,1.679-3.643,1.679
				c-1.369,0-2.6-0.639-3.5-1.679c-0.648-0.753-1.117-1.708-1.326-2.778l-2.111,0.436c0.68,3.717,3.527,6.504,6.938,6.506
				c3.918-0.002,7.234-3.678,7.236-8.217C23.259,28.61,20.599,25.245,17.229,24.583z"/>
			<polygon points="12.946,28.185 12.946,28.185 12.946,28.185 			"/>
		</g>
		<g>
			<path d="M168.188,230.109l-5.877,5.248h-0.02v0.018l-0.006,0.006l0.006,0.008v2.51h13.53l-0.007-1.813v-2.258h-2.079v1.543
				l-7.913-0.01l7.769-7.195l-1.119-1.658c-0.848,0.781-1.911,1.244-3.079,1.244c-1.369,0-2.743-0.639-3.642-1.678
				c-0.897-1.041-1.449-2.467-1.449-4.055c0-1.586,0.552-3.012,1.449-4.053c0.898-1.039,2.272-1.68,3.642-1.68
				c1.37,0,2.601,0.641,3.5,1.68c0.648,0.754,1.117,1.707,1.326,2.779l2.112-0.438c-0.68-3.717-3.527-6.504-6.938-6.506
				c-3.917,0.002-7.234,3.68-7.234,8.217C162.158,226.082,164.819,229.447,168.188,230.109z"/>
			<polygon points="172.472,226.508 172.472,226.508 172.472,226.508 			"/>
		</g>
	</g>
</g>
<g id="four" display="none">
	<g display="inline">
		<path fill="#F8F8F7" stroke="#222221" d="M181.756,237.826c0,7.828-6.345,14.174-14.173,14.174H17.348
			c-7.828,0-14.174-6.346-14.174-14.174V16.724c0-7.827,6.346-14.173,14.174-14.173h150.235c7.828,0,14.173,6.346,14.173,14.173
			V237.826z"/>
		<path d="M15.93,45.07c-1.863,0-3.377,1.703-3.377,3.802c0,1.2,0.501,2.265,1.27,2.967c0.259,0.237,0.147,0.495-0.116,0.334
			c-0.479-0.291-1.021-0.477-1.606-0.477c-1.797,0-3.256,1.643-3.256,3.666c0,2.024,1.459,3.667,3.256,3.667
			c1.198,0,2.248-0.729,2.811-1.816c0.056-0.105,0.1-0.252,0.178-0.252c0.107,0,0.156,0.175,0.156,0.502
			c0,1.314-0.504,2.852-1.251,4.615c0.323-0.076,1.299-0.271,1.937-0.271c0.639,0,1.614,0.194,1.937,0.271
			c-0.745-1.764-1.251-3.301-1.251-4.615c0-0.327,0.05-0.502,0.157-0.502c0.077,0,0.122,0.146,0.177,0.252
			c0.563,1.088,1.612,1.816,2.811,1.816c1.798,0,3.257-1.643,3.257-3.667c0-2.023-1.459-3.666-3.257-3.666
			c-0.584,0-1.126,0.186-1.606,0.477c-0.263,0.161-0.374-0.097-0.115-0.334c0.768-0.702,1.269-1.767,1.269-2.967
			C19.307,46.773,17.793,45.07,15.93,45.07z"/>
		<path d="M169.001,209.48c1.863,0,3.376-1.704,3.376-3.803c0-1.199-0.5-2.264-1.268-2.966c-0.26-0.238-0.147-0.495,0.115-0.335
			c0.479,0.292,1.021,0.477,1.606,0.477c1.797,0,3.257-1.643,3.257-3.666s-1.46-3.666-3.257-3.666c-1.198,0-2.247,0.729-2.811,1.816
			c-0.056,0.105-0.1,0.252-0.177,0.252c-0.107,0-0.157-0.175-0.157-0.502c0-1.314,0.505-2.852,1.25-4.616
			c-0.321,0.076-1.298,0.271-1.936,0.271c-0.639,0-1.613-0.195-1.937-0.271c0.745,1.765,1.252,3.302,1.252,4.616
			c0,0.327-0.052,0.502-0.158,0.502c-0.078,0-0.123-0.146-0.177-0.252c-0.563-1.088-1.612-1.816-2.811-1.816
			c-1.798,0-3.257,1.643-3.257,3.666s1.459,3.666,3.257,3.666c0.585,0,1.126-0.185,1.606-0.477c0.264-0.16,0.374,0.097,0.116,0.335
			c-0.769,0.702-1.269,1.767-1.269,2.966C165.625,207.776,167.138,209.48,169.001,209.48z"/>
		<path d="M49.238,28.063c-4.66,0-8.441,4.258-8.441,9.504c0,2.999,1.252,5.66,3.17,7.417c0.647,0.593,0.371,1.237-0.289,0.836
			c-1.2-0.729-2.554-1.193-4.016-1.193c-4.494,0-8.142,4.106-8.142,9.167s3.647,9.168,8.142,9.168c2.996,0,5.618-1.823,7.025-4.542
			c0.139-0.266,0.25-0.631,0.445-0.631c0.266,0,0.391,0.438,0.391,1.256c0,3.287-1.262,7.126-3.127,11.538
			c0.806-0.191,3.247-0.678,4.842-0.678c1.594,0,4.035,0.486,4.841,0.678c-1.866-4.412-3.128-8.251-3.128-11.538
			c0-0.818,0.125-1.256,0.393-1.256c0.194,0,0.306,0.365,0.442,0.631c1.408,2.719,4.031,4.542,7.026,4.542
			c4.494,0,8.142-4.107,8.142-9.168s-3.647-9.167-8.142-9.167c-1.462,0-2.816,0.464-4.015,1.193c-0.66,0.401-0.938-0.243-0.29-0.836
			c1.92-1.757,3.17-4.418,3.17-7.417C57.678,32.32,53.896,28.063,49.238,28.063z"/>
		<path d="M49.237,226.34c4.659,0,8.441-4.258,8.441-9.502c0-3.001-1.251-5.662-3.171-7.418c-0.647-0.592-0.37-1.236,0.29-0.837
			c1.199,0.73,2.553,1.194,4.015,1.194c4.494,0,8.142-4.107,8.142-9.167c0-5.061-3.647-9.167-8.142-9.167
			c-2.995,0-5.617,1.822-7.025,4.541c-0.138,0.266-0.249,0.629-0.443,0.629c-0.268,0-0.393-0.436-0.393-1.254
			c0-3.287,1.262-7.127,3.128-11.539c-0.806,0.192-3.247,0.68-4.842,0.68s-4.035-0.487-4.841-0.68
			c1.866,4.412,3.127,8.252,3.127,11.539c0,0.818-0.124,1.254-0.391,1.254c-0.195,0-0.307-0.363-0.444-0.629
			c-1.408-2.719-4.03-4.541-7.026-4.541c-4.494,0-8.142,4.106-8.142,9.167c0,5.06,3.647,9.167,8.142,9.167
			c1.462,0,2.816-0.464,4.016-1.194c0.66-0.399,0.938,0.245,0.289,0.837c-1.918,1.756-3.17,4.417-3.17,7.418
			C40.797,222.082,44.578,226.34,49.237,226.34z"/>
		<path d="M135.693,28.211c-4.659,0-8.439,4.258-8.439,9.504c0,2.998,1.25,5.66,3.169,7.416c0.648,0.594,0.371,1.237-0.289,0.836
			c-1.199-0.729-2.554-1.192-4.015-1.192c-4.494,0-8.142,4.106-8.142,9.167c0,5.06,3.647,9.167,8.142,9.167
			c2.994,0,5.617-1.822,7.024-4.542c0.14-0.266,0.25-0.631,0.445-0.631c0.267,0,0.392,0.438,0.392,1.257
			c0,3.286-1.262,7.126-3.127,11.538c0.805-0.191,3.246-0.679,4.84-0.679c1.596,0,4.037,0.487,4.842,0.679
			c-1.866-4.412-3.128-8.252-3.128-11.538c0-0.819,0.125-1.257,0.393-1.257c0.195,0,0.306,0.365,0.443,0.631
			c1.408,2.72,4.03,4.542,7.025,4.542c4.494,0,8.142-4.107,8.142-9.167c0-5.061-3.647-9.167-8.142-9.167
			c-1.461,0-2.814,0.463-4.015,1.192c-0.659,0.401-0.938-0.242-0.289-0.836c1.917-1.756,3.17-4.418,3.17-7.416
			C144.135,32.469,140.353,28.211,135.693,28.211z"/>
		<path d="M135.693,226.488c4.66,0,8.441-4.258,8.441-9.504c0-2.998-1.253-5.66-3.17-7.416c-0.647-0.594-0.37-1.238,0.289-0.836
			c1.2,0.729,2.554,1.193,4.016,1.193c4.493,0,8.141-4.107,8.141-9.168c0-5.06-3.647-9.167-8.141-9.167
			c-2.996,0-5.618,1.822-7.026,4.54c-0.138,0.266-0.248,0.632-0.443,0.632c-0.267,0-0.393-0.437-0.393-1.257
			c0-3.286,1.263-7.125,3.128-11.537c-0.805,0.191-3.246,0.678-4.842,0.678c-1.594,0-4.035-0.486-4.841-0.678
			c1.866,4.412,3.128,8.251,3.128,11.537c0,0.82-0.124,1.257-0.392,1.257c-0.195,0-0.306-0.366-0.443-0.632
			c-1.408-2.718-4.032-4.54-7.025-4.54c-4.495,0-8.143,4.107-8.143,9.167c0,5.061,3.647,9.168,8.143,9.168
			c1.46,0,2.814-0.465,4.014-1.193c0.66-0.402,0.938,0.242,0.289,0.836c-1.919,1.756-3.169,4.418-3.169,7.416
			C127.254,222.23,131.035,226.488,135.693,226.488z"/>
		<g>
			<polygon fill="none" points="11.462,32.291 17.803,32.291 17.799,21.156 			"/>
			<path d="M23.016,34.683v-2.392h-2.978l-0.007-15.566h-2.234v0.001l-0.077-0.001L8.843,32.291v2.392h8.961l0.002,3.739
				l-1.497,0.006l0.008,2.391l5.236-0.019l-0.008-2.392l-1.504,0.006l-0.002-3.731H23.016z M11.462,32.291l6.337-11.135
				l0.004,11.135H11.462z"/>
		</g>
		<g>
			<polygon fill="none" points="173.468,222.26 167.127,222.26 167.132,233.395 			"/>
			<path d="M161.914,219.867v2.393h2.978l0.007,15.566l2.235-0.001v-0.001l0.076,0.001l8.877-15.565v-2.393h-8.961l-0.002-3.738
				l1.497-0.006l-0.008-2.391l-5.236,0.018l0.008,2.393l1.505-0.006l0.001,3.73H161.914z M173.468,222.26l-6.336,11.135
				l-0.005-11.135H173.468z"/>
		</g>
	</g>
</g>
<g id="five">
	<g>
		<path fill="#F8F8F7" stroke="#222221" d="M182.142,237.826c0,7.828-6.345,14.174-14.173,14.174H17.733
			c-7.828,0-14.174-6.346-14.174-14.174V16.724c0-7.827,6.346-14.173,14.174-14.173h150.235c7.828,0,14.173,6.346,14.173,14.173
			V237.826z"/>
		<path d="M16.315,45.07c-1.863,0-3.377,1.703-3.377,3.802c0,1.2,0.501,2.264,1.27,2.966c0.259,0.238,0.147,0.496-0.116,0.335
			c-0.479-0.291-1.021-0.478-1.606-0.478c-1.797,0-3.256,1.643-3.256,3.668c0,2.023,1.459,3.666,3.256,3.666
			c1.198,0,2.248-0.729,2.811-1.816c0.056-0.106,0.1-0.252,0.178-0.252c0.107,0,0.156,0.175,0.156,0.502
			c0,1.314-0.504,2.851-1.251,4.615c0.323-0.076,1.299-0.271,1.937-0.271c0.639,0,1.614,0.194,1.937,0.271
			c-0.745-1.765-1.251-3.301-1.251-4.615c0-0.327,0.05-0.502,0.157-0.502c0.077,0,0.122,0.146,0.177,0.252
			c0.563,1.088,1.612,1.816,2.811,1.816c1.798,0,3.257-1.643,3.257-3.666c0-2.025-1.459-3.668-3.257-3.668
			c-0.584,0-1.126,0.187-1.606,0.478c-0.263,0.161-0.374-0.097-0.115-0.335c0.768-0.702,1.269-1.766,1.269-2.966
			C19.692,46.773,18.179,45.07,16.315,45.07z"/>
		<path d="M169.387,209.48c1.863,0,3.376-1.704,3.376-3.802c0-1.2-0.501-2.265-1.268-2.968c-0.26-0.236-0.147-0.494,0.115-0.334
			c0.479,0.293,1.021,0.478,1.605,0.478c1.798,0,3.258-1.644,3.258-3.667s-1.46-3.666-3.258-3.666c-1.198,0-2.246,0.729-2.81,1.816
			c-0.056,0.106-0.1,0.252-0.178,0.252c-0.106,0-0.156-0.175-0.156-0.502c0-1.314,0.505-2.851,1.251-4.615
			c-0.322,0.076-1.299,0.271-1.937,0.271s-1.613-0.195-1.938-0.271c0.746,1.765,1.253,3.301,1.253,4.615
			c0,0.327-0.052,0.502-0.158,0.502c-0.078,0-0.123-0.146-0.177-0.252c-0.563-1.088-1.612-1.816-2.811-1.816
			c-1.797,0-3.257,1.643-3.257,3.666s1.46,3.667,3.257,3.667c0.584,0,1.126-0.185,1.605-0.478c0.265-0.16,0.375,0.098,0.117,0.334
			c-0.769,0.703-1.269,1.768-1.269,2.968C166.011,207.776,167.523,209.48,169.387,209.48z"/>
		<path d="M49.624,28.063c-4.66,0-8.441,4.258-8.441,9.504c0,2.999,1.252,5.66,3.17,7.416c0.647,0.594,0.371,1.238-0.289,0.836
			c-1.2-0.729-2.554-1.192-4.016-1.192c-4.494,0-8.142,4.106-8.142,9.167s3.647,9.168,8.142,9.168c2.996,0,5.617-1.823,7.025-4.542
			c0.139-0.266,0.25-0.631,0.445-0.631c0.266,0,0.391,0.438,0.391,1.256c0,3.287-1.262,7.126-3.127,11.538
			c0.806-0.191,3.247-0.678,4.842-0.678c1.594,0,4.035,0.486,4.841,0.678c-1.866-4.412-3.128-8.251-3.128-11.538
			c0-0.818,0.125-1.256,0.393-1.256c0.194,0,0.305,0.365,0.442,0.631c1.408,2.719,4.031,4.542,7.026,4.542
			c4.494,0,8.142-4.107,8.142-9.168s-3.647-9.167-8.142-9.167c-1.462,0-2.816,0.464-4.015,1.192c-0.66,0.402-0.938-0.242-0.29-0.836
			c1.919-1.756,3.17-4.417,3.17-7.416C58.063,32.32,54.282,28.063,49.624,28.063z"/>
		<path d="M49.623,226.487c4.659,0,8.441-4.258,8.441-9.503c0-3-1.252-5.661-3.171-7.417c-0.647-0.593-0.37-1.238,0.29-0.837
			c1.199,0.73,2.553,1.193,4.015,1.193c4.494,0,8.142-4.106,8.142-9.166c0-5.061-3.647-9.168-8.142-9.168
			c-2.995,0-5.617,1.822-7.025,4.541c-0.138,0.266-0.249,0.631-0.443,0.631c-0.268,0-0.393-0.438-0.393-1.256
			c0-3.287,1.262-7.126,3.127-11.538c-0.805,0.191-3.246,0.679-4.841,0.679s-4.035-0.487-4.841-0.679
			c1.865,4.412,3.127,8.251,3.127,11.538c0,0.818-0.124,1.256-0.391,1.256c-0.195,0-0.307-0.365-0.444-0.631
			c-1.408-2.719-4.03-4.541-7.026-4.541c-4.494,0-8.142,4.107-8.142,9.168c0,5.06,3.647,9.166,8.142,9.166
			c1.462,0,2.816-0.463,4.016-1.193c0.66-0.401,0.938,0.244,0.289,0.837c-1.918,1.756-3.17,4.417-3.17,7.417
			C41.183,222.229,44.964,226.487,49.623,226.487z"/>
		<path d="M136.079,28.063c-4.659,0-8.439,4.258-8.439,9.504c0,2.999,1.25,5.66,3.169,7.416c0.647,0.594,0.371,1.238-0.289,0.836
			c-1.199-0.729-2.554-1.192-4.015-1.192c-4.494,0-8.142,4.106-8.142,9.167s3.647,9.168,8.142,9.168
			c2.994,0,5.617-1.823,7.024-4.542c0.139-0.267,0.25-0.631,0.445-0.631c0.266,0,0.392,0.438,0.392,1.256
			c0,3.287-1.263,7.126-3.128,11.538c0.806-0.191,3.247-0.678,4.841-0.678c1.596,0,4.036,0.486,4.842,0.678
			c-1.866-4.412-3.128-8.251-3.128-11.538c0-0.818,0.125-1.256,0.392-1.256c0.196,0,0.306,0.364,0.444,0.631
			c1.408,2.719,4.03,4.542,7.025,4.542c4.494,0,8.142-4.107,8.142-9.168s-3.647-9.167-8.142-9.167c-1.461,0-2.814,0.464-4.015,1.192
			c-0.66,0.402-0.938-0.242-0.289-0.836c1.917-1.756,3.169-4.417,3.169-7.416C144.52,32.32,140.738,28.063,136.079,28.063z"/>
		<path d="M136.079,226.488c4.66,0,8.44-4.258,8.44-9.504c0-3-1.252-5.66-3.169-7.416c-0.647-0.594-0.371-1.238,0.289-0.837
			c1.2,0.73,2.554,1.193,4.015,1.193c4.494,0,8.142-4.106,8.142-9.167s-3.647-9.168-8.142-9.168c-2.995,0-5.617,1.823-7.025,4.542
			c-0.139,0.266-0.248,0.63-0.444,0.63c-0.266,0-0.392-0.437-0.392-1.256c0-3.286,1.263-7.125,3.128-11.537
			c-0.806,0.191-3.246,0.678-4.842,0.678c-1.594,0-4.035-0.486-4.841-0.678c1.866,4.412,3.128,8.251,3.128,11.537
			c0,0.819-0.125,1.256-0.392,1.256c-0.195,0-0.306-0.364-0.444-0.63c-1.407-2.719-4.031-4.542-7.024-4.542
			c-4.495,0-8.143,4.107-8.143,9.168s3.647,9.167,8.143,9.167c1.46,0,2.814-0.463,4.014-1.193c0.66-0.401,0.938,0.243,0.289,0.837
			c-1.919,1.756-3.169,4.416-3.169,7.416C127.64,222.23,131.421,226.488,136.079,226.488z"/>
		<path d="M92.854,106.016c-4.66,0-8.443,4.259-8.443,9.506c0,3,1.252,5.661,3.171,7.42c0.648,0.595,0.37,1.24-0.29,0.838
			c-1.199-0.73-2.553-1.195-4.015-1.195c-4.494,0-8.143,4.115-8.143,9.184c0,5.053,3.648,9.154,8.143,9.154
			c2.995,0,5.618-1.82,7.026-4.535c0.139-0.266,0.249-0.631,0.444-0.631c0.267,0,0.392,0.438,0.392,1.255
			c0,3.282-1.262,7.115-3.127,11.524c0.805-0.191,3.247-0.678,4.842-0.678c1.592,0,4.03,0.486,4.836,0.678
			c-1.866-4.409-3.127-8.242-3.127-11.524c0-0.817,0.125-1.255,0.392-1.255c0.194,0,0.305,0.365,0.443,0.631
			c1.407,2.715,4.03,4.535,7.025,4.535c4.495,0,8.144-4.102,8.144-9.154c0-5.068-3.648-9.184-8.144-9.184
			c-1.461,0-2.815,0.465-4.015,1.195c-0.66,0.402-0.938-0.243-0.289-0.838c1.919-1.759,3.17-4.42,3.17-7.42
			C101.29,110.274,97.508,106.016,92.854,106.016z"/>
		<path d="M21.294,25.684c-1.313-1.621-3.193-2.676-5.287-2.674c-1.31-0.002-2.536,0.416-3.592,1.121L12.411,19.1h9.366v-2.376
			H10.172v0.831H10.16l0.007,9.732h2.25c0.757-1.09,2.402-1.9,3.59-1.902c1.367,0.002,2.621,0.674,3.578,1.846
			c0.951,1.17,1.567,2.828,1.566,4.684c0.001,1.855-0.615,3.513-1.566,4.683c-0.957,1.171-2.211,1.845-3.578,1.845
			c-1.013,0-1.951-0.365-2.767-1.027c-0.813-0.66-1.49-1.623-1.909-2.779l-2.103,0.851c0.56,1.536,1.47,2.86,2.637,3.812
			c1.165,0.949,2.601,1.522,4.142,1.521c0.001,0,0.003,0,0.004,0c2.094,0,3.973-1.055,5.283-2.675
			c1.317-1.624,2.107-3.823,2.108-6.229C23.401,29.508,22.611,27.308,21.294,25.684z"/>
		<path d="M164.408,228.865c1.312,1.621,3.192,2.676,5.286,2.676c1.31,0,2.536-0.417,3.592-1.123l0.004,5.031h-9.365v2.377h11.604
			v-0.831h0.013l-0.007-9.733l-2.251,0.002c-0.757,1.088-2.402,1.9-3.59,1.9c-1.367,0-2.621-0.674-3.578-1.846
			c-0.951-1.168-1.566-2.828-1.565-4.682c-0.001-1.855,0.614-3.514,1.565-4.684c0.957-1.172,2.211-1.844,3.578-1.846
			c1.013,0.002,1.951,0.367,2.767,1.027c0.813,0.662,1.491,1.625,1.91,2.781l2.102-0.852c-0.559-1.537-1.469-2.859-2.637-3.811
			c-1.165-0.949-2.601-1.523-4.142-1.522c-0.001,0-0.003,0-0.004,0c-2.093,0-3.972,1.056-5.282,2.675
			c-1.318,1.623-2.107,3.822-2.108,6.23C162.301,225.043,163.09,227.242,164.408,228.865z"/>
	</g>
</g>
</svg>
