<?xml version="1.0" encoding="utf-8"?>
<!-- Generator: Adobe Illustrator 15.1.0, SVG Export Plug-In . SVG Version: 6.00 Build 0)  -->
<svg version="1.2" baseProfile="tiny" xmlns="http://www.w3.org/2000/svg" xmlns:xlink="http://www.w3.org/1999/xlink" x="0px"
	 y="0px" width="184px" height="254px" viewBox="0 0 184 254" xml:space="preserve">
<g id="Warstwa_1" display="none">
</g>
<g id="ten" display="none">
	<g display="inline">
		<path fill="#F8F8F7" stroke="#222221" d="M181.371,237.746c0,7.827-6.346,14.173-14.174,14.173H16.96
			c-7.828,0-14.174-6.346-14.174-14.173V16.648c0-7.828,6.346-14.174,14.174-14.174h150.237c7.828,0,14.174,6.346,14.174,14.174
			V237.746z"/>
		<g>
			<path fill="none" d="M15.542,29.089L15.542,29.089c-1.355,0-2.563,0.541-3.416,1.382c-0.857,0.846-1.352,1.957-1.354,3.178
				c0.002,1.22,0.496,2.33,1.354,3.177c0.855,0.841,2.063,1.382,3.416,1.381c1.355,0.001,2.563-0.54,3.418-1.381
				c0.855-0.847,1.352-1.957,1.354-3.177c-0.002-1.221-0.498-2.332-1.354-3.178C18.104,29.63,16.897,29.088,15.542,29.089z"/>
			<path fill="none" d="M15.542,26.531c1.123,0.001,2.121-0.448,2.826-1.142c0.705-0.697,1.109-1.607,1.109-2.605
				s-0.404-1.908-1.109-2.605c-0.705-0.693-1.703-1.143-2.826-1.142l0,0c-1.123,0-2.119,0.448-2.824,1.142
				c-0.705,0.697-1.109,1.607-1.111,2.605c0.002,0.998,0.406,1.908,1.111,2.605C13.423,26.083,14.421,26.532,15.542,26.531z"/>
			<path d="M20.509,28.585c-0.369-0.363-0.781-0.68-1.219-0.953c0.186-0.146,0.367-0.299,0.537-0.465
				c1.115-1.091,1.838-2.651,1.836-4.383c0.002-1.731-0.721-3.292-1.836-4.383c-1.115-1.095-2.631-1.753-4.285-1.753
				s-3.168,0.658-4.283,1.753c-1.115,1.091-1.836,2.651-1.836,4.383s0.721,3.292,1.836,4.383c0.168,0.166,0.35,0.319,0.537,0.465
				c-0.439,0.273-0.85,0.59-1.219,0.953c-1.291,1.263-2.121,3.065-2.121,5.063c0,1.997,0.83,3.8,2.121,5.063
				c1.289,1.268,3.047,2.03,4.965,2.031c1.92-0.001,3.676-0.764,4.967-2.031c1.289-1.263,2.123-3.065,2.121-5.063
				C22.632,31.65,21.798,29.848,20.509,28.585z M12.718,20.179c0.705-0.693,1.701-1.142,2.824-1.142l0,0
				c1.123-0.001,2.121,0.448,2.826,1.142c0.705,0.697,1.109,1.607,1.109,2.605s-0.404,1.908-1.109,2.605
				c-0.705,0.693-1.703,1.143-2.826,1.142c-1.121,0.001-2.119-0.448-2.824-1.142c-0.705-0.697-1.109-1.607-1.111-2.605
				C11.608,21.786,12.013,20.876,12.718,20.179z M18.96,36.825c-0.855,0.841-2.063,1.382-3.418,1.381
				c-1.354,0.001-2.561-0.54-3.416-1.381c-0.857-0.847-1.352-1.957-1.354-3.177c0.002-1.221,0.496-2.332,1.354-3.178
				c0.854-0.841,2.061-1.382,3.416-1.382l0,0c1.355-0.001,2.563,0.541,3.418,1.382c0.855,0.846,1.352,1.957,1.354,3.178
				C20.312,34.868,19.815,35.979,18.96,36.825z"/>
		</g>
		<g>
			<path fill="none" d="M168.613,225.305h0.002c1.354,0,2.561-0.541,3.416-1.381c0.855-0.847,1.35-1.957,1.352-3.178
				c-0.002-1.221-0.496-2.331-1.352-3.178c-0.855-0.841-2.064-1.382-3.418-1.381c-1.354-0.001-2.563,0.54-3.418,1.381
				c-0.855,0.847-1.352,1.957-1.352,3.178s0.496,2.331,1.352,3.178C166.051,224.764,167.26,225.306,168.613,225.305z"/>
			<path fill="none" d="M168.613,227.862c-1.123-0.001-2.119,0.448-2.826,1.142c-0.705,0.697-1.107,1.607-1.109,2.605
				c0.002,0.998,0.404,1.908,1.109,2.605c0.707,0.693,1.703,1.143,2.826,1.142h0.002c1.121,0,2.119-0.448,2.824-1.142
				c0.705-0.697,1.109-1.607,1.109-2.605s-0.404-1.908-1.109-2.605C170.734,228.311,169.736,227.861,168.613,227.862z"/>
			<path d="M163.646,225.809c0.371,0.363,0.781,0.68,1.221,0.953c-0.188,0.146-0.369,0.299-0.537,0.465
				c-1.115,1.091-1.838,2.652-1.836,4.383c-0.002,1.731,0.721,3.293,1.836,4.383c1.113,1.096,2.629,1.753,4.283,1.754
				c1.654-0.001,3.17-0.658,4.285-1.754c1.115-1.09,1.836-2.651,1.834-4.383c0.002-1.73-0.719-3.292-1.834-4.383
				c-0.17-0.166-0.352-0.318-0.539-0.465c0.439-0.273,0.852-0.59,1.221-0.953c1.289-1.262,2.121-3.064,2.121-5.063
				s-0.832-3.801-2.121-5.063c-1.291-1.268-3.047-2.03-4.967-2.031c-1.92,0.001-3.676,0.764-4.967,2.031
				c-1.289,1.263-2.121,3.065-2.119,5.063C161.525,222.744,162.357,224.547,163.646,225.809z M171.439,234.215
				c-0.705,0.693-1.703,1.142-2.824,1.142h-0.002c-1.123,0.001-2.119-0.448-2.826-1.142c-0.705-0.697-1.107-1.607-1.109-2.605
				c0.002-0.998,0.404-1.908,1.109-2.605c0.707-0.693,1.703-1.143,2.826-1.142c1.123-0.001,2.121,0.448,2.826,1.142
				c0.705,0.697,1.109,1.607,1.109,2.605S172.145,233.518,171.439,234.215z M165.195,217.568c0.855-0.841,2.064-1.382,3.418-1.381
				c1.354-0.001,2.563,0.54,3.418,1.381c0.855,0.847,1.35,1.957,1.352,3.178c-0.002,1.221-0.496,2.331-1.352,3.178
				c-0.855,0.84-2.063,1.381-3.416,1.381h-0.002c-1.354,0.001-2.563-0.541-3.418-1.381c-0.855-0.847-1.352-1.957-1.352-3.178
				S164.34,218.415,165.195,217.568z"/>
		</g>
		<path fill-rule="evenodd" fill="#222221" stroke="#222221" stroke-width="0.065" stroke-linejoin="round" d="M15.533,44.995
			c-0.041,0.027-0.07,0.041-0.117,0.072c-3.038,1.939-6.583,5.725-6.946,10.441c-0.173,2.244,1.263,3.798,3.117,3.832
			c1.185,0.021,2.137-0.399,2.653-1.203c0.429-0.668,0.538-1.699,0.607-1.223c0.25,1.816-0.511,3.563-0.922,5.088
			c0.459-0.167,1.035-0.251,1.613-0.253h0.01c0.576,0.002,1.152,0.086,1.61,0.253c-0.411-1.525-1.17-3.271-0.921-5.088
			c0.069-0.477,0.179,0.555,0.606,1.223c0.516,0.804,1.469,1.225,2.652,1.203c1.855-0.034,3.291-1.588,3.118-3.832
			c-0.364-4.717-3.908-8.502-6.943-10.441c-0.033-0.024-0.063-0.04-0.11-0.072H15.533z"/>
		<path fill-rule="evenodd" fill="#222221" stroke="#222221" stroke-width="0.065" stroke-linejoin="round" d="M168.605,209.398
			c-0.041-0.027-0.07-0.041-0.117-0.072c-3.039-1.939-6.584-5.725-6.947-10.441c-0.172-2.244,1.264-3.797,3.117-3.832
			c1.186-0.021,2.137,0.4,2.654,1.203c0.428,0.668,0.537,1.699,0.607,1.223c0.25-1.816-0.512-3.563-0.922-5.088
			c0.459,0.168,1.035,0.252,1.613,0.254h0.01c0.576-0.002,1.152-0.086,1.609-0.254c-0.41,1.525-1.17,3.271-0.92,5.088
			c0.068,0.477,0.178-0.555,0.605-1.223c0.516-0.803,1.469-1.225,2.652-1.203c1.855,0.035,3.291,1.588,3.119,3.832
			c-0.365,4.717-3.908,8.502-6.943,10.441c-0.033,0.025-0.063,0.04-0.111,0.072H168.605z"/>
		<path fill-rule="evenodd" fill="#222221" stroke="#222221" stroke-width="0.1625" stroke-linejoin="round" d="M48.827,27.986
			c-0.104,0.067-0.176,0.104-0.293,0.181c-7.596,4.85-16.457,14.311-17.365,26.104c-0.433,5.61,3.155,9.495,7.792,9.58
			c2.961,0.054,5.342-0.998,6.633-3.008c1.072-1.671,1.346-4.248,1.52-3.058c0.625,4.542-1.277,8.907-2.307,12.721
			c1.148-0.417,2.59-0.627,4.033-0.632h0.025c1.441,0.005,2.881,0.215,4.027,0.632c-1.029-3.813-2.928-8.179-2.303-12.721
			c0.172-1.19,0.445,1.387,1.516,3.058c1.289,2.01,3.67,3.062,6.631,3.008c4.639-0.085,8.227-3.97,7.795-9.58
			c-0.91-11.793-9.77-21.254-17.359-26.104c-0.082-0.062-0.154-0.1-0.273-0.181H48.827z"/>
		<path fill-rule="evenodd" fill="#222221" stroke="#222221" stroke-width="0.1625" stroke-linejoin="round" d="M135.283,27.986
			c-0.102,0.067-0.174,0.104-0.293,0.181c-7.596,4.85-16.455,14.311-17.363,26.104c-0.434,5.61,3.154,9.495,7.793,9.58
			c2.961,0.054,5.342-0.998,6.631-3.008c1.072-1.671,1.346-4.248,1.52-3.058c0.625,4.542-1.275,8.907-2.305,12.721
			c1.146-0.417,2.588-0.627,4.033-0.632h0.023c1.443,0.005,2.881,0.215,4.027,0.632c-1.027-3.813-2.926-8.179-2.303-12.721
			c0.174-1.19,0.447,1.387,1.518,3.058c1.289,2.01,3.67,3.062,6.631,3.008c4.639-0.085,8.225-3.97,7.793-9.58
			c-0.908-11.793-9.77-21.254-17.357-26.104c-0.084-0.062-0.156-0.1-0.275-0.181H135.283z"/>
		<path fill-rule="evenodd" fill="#222221" stroke="#222221" stroke-width="0.1625" stroke-linejoin="round" d="M92.053,69.089
			c-0.101,0.067-0.173,0.104-0.292,0.181c-7.594,4.85-16.455,14.311-17.363,26.104c-0.432,5.61,3.156,9.495,7.793,9.581
			c2.961,0.053,5.342-0.998,6.631-3.008c1.072-1.672,1.346-4.249,1.52-3.058c0.625,4.542-1.275,8.907-2.305,12.718
			c1.146-0.416,2.588-0.627,4.033-0.631h0.023c1.444,0.004,2.882,0.215,4.029,0.631c-1.028-3.812-2.927-8.176-2.304-12.718
			c0.174-1.19,0.447,1.386,1.518,3.058c1.29,2.01,3.671,3.061,6.632,3.008c4.639-0.086,8.225-3.971,7.793-9.581
			C108.852,83.58,99.99,74.119,92.4,69.27c-0.084-0.062-0.156-0.1-0.275-0.181H92.053z"/>
		<path fill-rule="evenodd" fill="#222221" stroke="#222221" stroke-width="0.1625" stroke-linejoin="round" d="M48.827,105.939
			c-0.104,0.066-0.176,0.104-0.293,0.18c-7.596,4.849-16.457,14.308-17.365,26.1c-0.433,5.611,3.155,9.496,7.792,9.58
			c2.961,0.055,5.342-0.998,6.633-3.008c1.072-1.671,1.346-4.248,1.52-3.057c0.625,4.541-1.277,8.906-2.307,12.721
			c1.148-0.418,2.59-0.627,4.033-0.633h0.025c1.441,0.006,2.881,0.215,4.027,0.633c-1.029-3.814-2.928-8.18-2.303-12.721
			c0.172-1.191,0.445,1.386,1.516,3.057c1.289,2.01,3.67,3.063,6.631,3.008c4.639-0.084,8.227-3.969,7.795-9.58
			c-0.91-11.792-9.77-21.251-17.359-26.1c-0.082-0.062-0.154-0.1-0.273-0.18H48.827z"/>
		<path fill-rule="evenodd" fill="#222221" stroke="#222221" stroke-width="0.1625" stroke-linejoin="round" d="M132.449,105.939
			c-0.104,0.066-0.176,0.104-0.293,0.18c-7.596,4.849-16.457,14.308-17.365,26.1c-0.432,5.61,3.156,9.495,7.793,9.58
			c2.961,0.054,5.342-0.998,6.633-3.008c1.072-1.672,1.346-4.248,1.52-3.058c0.625,4.542-1.277,8.907-2.307,12.721
			c1.148-0.417,2.59-0.627,4.033-0.632h0.025c1.441,0.005,2.881,0.215,4.027,0.632c-1.029-3.813-2.928-8.179-2.303-12.721
			c0.172-1.19,0.445,1.386,1.516,3.058c1.289,2.01,3.67,3.062,6.631,3.008c4.639-0.085,8.227-3.97,7.795-9.58
			c-0.91-11.792-9.77-21.251-17.359-26.1c-0.082-0.061-0.154-0.099-0.273-0.18H132.449z"/>
		<path fill-rule="evenodd" fill="#222221" stroke="#222221" stroke-width="0.1625" stroke-linejoin="round" d="M92.053,185.305
			c-0.101-0.067-0.173-0.104-0.292-0.182c-7.596-4.849-16.455-14.31-17.363-26.104c-0.434-5.609,3.154-9.494,7.793-9.579
			c2.961-0.054,5.342,0.997,6.631,3.007c1.072,1.672,1.346,4.248,1.52,3.059c0.625-4.543-1.275-8.908-2.305-12.721
			c1.146,0.416,2.588,0.627,4.033,0.631h0.023c1.444-0.004,2.882-0.215,4.029-0.631c-1.028,3.813-2.927,8.178-2.304,12.721
			c0.174,1.189,0.447-1.387,1.518-3.059c1.29-2.01,3.671-3.061,6.632-3.007c4.639,0.085,8.225,3.97,7.793,9.579
			c-0.908,11.794-9.77,21.255-17.359,26.104c-0.084,0.063-0.156,0.1-0.275,0.182H92.053z"/>
		<path fill-rule="evenodd" fill="#222221" stroke="#222221" stroke-width="0.1625" stroke-linejoin="round" d="M48.825,226.406
			c-0.102-0.066-0.174-0.104-0.293-0.18c-7.596-4.85-16.455-14.311-17.363-26.104c-0.434-5.61,3.154-9.495,7.792-9.579
			c2.961-0.055,5.342,0.997,6.631,3.007c1.072,1.671,1.346,4.248,1.52,3.058c0.625-4.542-1.275-8.907-2.305-12.721
			c1.146,0.417,2.588,0.627,4.033,0.632h0.023c1.443-0.005,2.881-0.215,4.027-0.632c-1.027,3.813-2.926,8.179-2.303,12.721
			c0.174,1.19,0.447-1.387,1.518-3.058c1.289-2.01,3.67-3.062,6.631-3.007c4.639,0.084,8.225,3.969,7.793,9.579
			c-0.908,11.794-9.77,21.255-17.357,26.104c-0.084,0.061-0.156,0.099-0.275,0.18H48.825z"/>
		<path fill-rule="evenodd" fill="#222221" stroke="#222221" stroke-width="0.1625" stroke-linejoin="round" d="M135.283,226.406
			c-0.102-0.066-0.174-0.103-0.293-0.18c-7.596-4.85-16.455-14.311-17.363-26.104c-0.434-5.611,3.154-9.496,7.793-9.58
			c2.961-0.055,5.342,0.998,6.631,3.008c1.072,1.671,1.346,4.248,1.52,3.057c0.625-4.541-1.275-8.906-2.305-12.721
			c1.146,0.418,2.588,0.627,4.033,0.633h0.023c1.443-0.006,2.881-0.215,4.027-0.633c-1.027,3.814-2.926,8.18-2.303,12.721
			c0.174,1.191,0.447-1.386,1.518-3.057c1.289-2.01,3.67-3.063,6.631-3.008c4.639,0.084,8.225,3.969,7.793,9.58
			c-0.908,11.793-9.77,21.254-17.357,26.104c-0.084,0.063-0.156,0.1-0.275,0.18H135.283z"/>
	</g>
	<g display="inline">
		<path fill="#F8F8F7" stroke="#222221" d="M181.143,237.828c0,7.826-6.346,14.172-14.174,14.172H16.732
			c-7.828,0-14.174-6.346-14.174-14.172V16.734c0-7.828,6.346-14.174,14.174-14.174h150.236c7.828,0,14.174,6.346,14.174,14.174
			V237.828z"/>
		<g>
			<g>
				<polygon points="8.229,40.792 8.229,16.733 10.409,16.733 10.409,40.792 8.229,40.792 				"/>
			</g>
			<path d="M14.969,39.511c-0.794-0.816-1.304-1.979-1.302-3.262l0,0V21.313c-0.002-1.282,0.508-2.445,1.302-3.262l0,0
				c0.793-0.82,1.88-1.317,3.065-1.317l0,0c1.185,0,2.271,0.497,3.066,1.317l0,0c0.793,0.816,1.303,1.979,1.301,3.262l0,0v14.937
				c0.002,1.282-0.508,2.445-1.301,3.262l0,0c-0.795,0.82-1.882,1.317-3.066,1.317l0,0C16.849,40.828,15.762,40.331,14.969,39.511
				L14.969,39.511z M16.466,19.787c-0.393,0.409-0.617,0.938-0.618,1.525l0,0v14.937c0.001,0.588,0.226,1.117,0.618,1.525l0,0
				c0.392,0.405,0.943,0.666,1.568,0.666l0,0c0.625,0,1.176-0.261,1.568-0.666l0,0c0.393-0.408,0.617-0.938,0.618-1.525l0,0V21.313
				c-0.001-0.588-0.226-1.116-0.618-1.525l0,0c-0.393-0.404-0.943-0.666-1.568-0.666l0,0C17.409,19.121,16.857,19.383,16.466,19.787
				L16.466,19.787z"/>
		</g>
		<g>
			<g>
				<polygon points="175.473,213.77 175.473,237.828 173.291,237.828 173.291,213.77 175.473,213.77 				"/>
			</g>
			<path d="M168.732,215.051c0.793,0.816,1.303,1.979,1.301,3.262l0,0v14.936c0.002,1.283-0.508,2.445-1.301,3.262l0,0
				c-0.793,0.82-1.881,1.318-3.066,1.318l0,0c-1.184,0-2.271-0.498-3.066-1.318l0,0c-0.793-0.816-1.303-1.979-1.301-3.262l0,0
				v-14.936c-0.002-1.283,0.508-2.445,1.301-3.262l0,0c0.795-0.82,1.883-1.318,3.066-1.318l0,0
				C166.852,213.732,167.939,214.23,168.732,215.051L168.732,215.051z M167.234,234.773c0.393-0.408,0.617-0.938,0.619-1.525l0,0
				v-14.936c-0.002-0.588-0.227-1.117-0.619-1.525l0,0c-0.391-0.406-0.943-0.666-1.568-0.666l0,0c-0.625,0-1.176,0.26-1.568,0.666
				l0,0c-0.393,0.408-0.617,0.938-0.617,1.525l0,0v14.936c0,0.588,0.225,1.117,0.617,1.525l0,0c0.393,0.404,0.943,0.666,1.568,0.666
				l0,0C166.291,235.439,166.844,235.178,167.234,234.773L167.234,234.773z"/>
		</g>
		<path fill-rule="evenodd" fill="#222221" stroke="#222221" stroke-linejoin="round" d="M15.306,45.081
			c-0.041,0.027-0.07,0.041-0.117,0.072c-3.038,1.939-6.583,5.725-6.946,10.441c-0.173,2.244,1.263,3.798,3.118,3.832
			c1.184,0.021,2.137-0.399,2.652-1.203c0.429-0.668,0.538-1.699,0.607-1.223c0.25,1.816-0.511,3.563-0.922,5.088
			c0.459-0.167,1.035-0.251,1.613-0.253h0.01c0.577,0.002,1.152,0.086,1.61,0.253c-0.411-1.525-1.17-3.271-0.921-5.088
			c0.069-0.477,0.179,0.555,0.606,1.223c0.516,0.804,1.469,1.225,2.652,1.203c1.855-0.034,3.291-1.588,3.118-3.832
			c-0.363-4.717-3.908-8.502-6.943-10.441c-0.033-0.024-0.063-0.04-0.11-0.072H15.306z"/>
		<path fill-rule="evenodd" fill="#222221" stroke="#222221" stroke-linejoin="round" d="M168.377,209.48
			c-0.041-0.027-0.07-0.041-0.117-0.072c-3.039-1.939-6.584-5.725-6.947-10.441c-0.172-2.244,1.264-3.797,3.119-3.832
			c1.184-0.021,2.137,0.4,2.652,1.203c0.428,0.668,0.537,1.699,0.607,1.223c0.25-1.816-0.512-3.563-0.922-5.088
			c0.459,0.168,1.035,0.252,1.613,0.254h0.01c0.576-0.002,1.152-0.086,1.609-0.254c-0.41,1.525-1.17,3.271-0.92,5.088
			c0.068,0.477,0.178-0.555,0.605-1.223c0.516-0.803,1.469-1.225,2.652-1.203c1.855,0.035,3.291,1.588,3.119,3.832
			c-0.363,4.717-3.908,8.502-6.943,10.441c-0.033,0.025-0.063,0.041-0.111,0.072H168.377z"/>
		<path fill-rule="evenodd" fill="#222221" stroke="#222221" stroke-linejoin="round" d="M48.598,28.072
			c-0.102,0.067-0.174,0.104-0.293,0.181c-7.595,4.85-16.456,14.311-17.364,26.104c-0.432,5.61,3.155,9.495,7.794,9.58
			c2.961,0.054,5.342-0.998,6.632-3.008c1.072-1.671,1.346-4.248,1.52-3.058c0.625,4.542-1.277,8.907-2.307,12.721
			c1.147-0.417,2.59-0.627,4.034-0.632h0.023c1.442,0.005,2.882,0.215,4.027,0.632c-1.027-3.813-2.926-8.179-2.303-12.721
			c0.174-1.19,0.446,1.387,1.517,3.058c1.289,2.01,3.671,3.062,6.631,3.008c4.639-0.085,8.227-3.97,7.794-9.58
			c-0.908-11.793-9.77-21.254-17.358-26.104c-0.082-0.062-0.155-0.1-0.274-0.181H48.598z"/>
		<path fill-rule="evenodd" fill="#222221" stroke="#222221" stroke-linejoin="round" d="M93.244,56.419
			c-0.102,0.067-0.174,0.104-0.293,0.181c-7.596,4.85-16.457,14.311-17.365,26.104c-0.432,5.61,3.155,9.495,7.794,9.58
			c2.961,0.054,5.343-0.998,6.632-3.008c1.072-1.671,1.346-4.248,1.52-3.058c0.625,4.542-1.277,8.907-2.307,12.721
			c1.148-0.417,2.59-0.627,4.035-0.632h0.023c1.441,0.005,2.881,0.215,4.027,0.632c-1.027-3.813-2.926-8.179-2.303-12.721
			c0.174-1.19,0.445,1.387,1.516,3.058c1.289,2.01,3.672,3.062,6.631,3.008c4.639-0.085,8.227-3.97,7.795-9.58
			C110.041,70.91,101.18,61.449,93.59,56.6c-0.082-0.062-0.154-0.1-0.273-0.181H93.244z"/>
		<path fill-rule="evenodd" fill="#222221" stroke="#222221" stroke-linejoin="round" d="M136.473,28.072
			c-0.102,0.067-0.174,0.104-0.293,0.181c-7.596,4.85-16.457,14.311-17.365,26.104c-0.432,5.61,3.156,9.495,7.795,9.58
			c2.961,0.054,5.342-0.998,6.631-3.008c1.072-1.671,1.346-4.248,1.52-3.058c0.625,4.542-1.277,8.907-2.307,12.721
			c1.148-0.417,2.59-0.627,4.035-0.632h0.023c1.441,0.005,2.881,0.215,4.027,0.632c-1.027-3.813-2.926-8.179-2.303-12.721
			c0.174-1.19,0.445,1.387,1.516,3.058c1.289,2.01,3.672,3.062,6.631,3.008c4.639-0.085,8.227-3.97,7.795-9.58
			c-0.908-11.793-9.77-21.254-17.359-26.104c-0.082-0.062-0.154-0.1-0.273-0.181H136.473z"/>
		<path fill-rule="evenodd" fill="#222221" stroke="#222221" stroke-linejoin="round" d="M48.598,80.041
			c-0.102,0.067-0.174,0.104-0.293,0.181c-7.595,4.85-16.456,14.311-17.364,26.102c-0.432,5.609,3.155,9.494,7.794,9.578
			c2.961,0.055,5.342-0.998,6.632-3.007c1.072-1.67,1.346-4.248,1.52-3.056c0.625,4.54-1.277,8.904-2.307,12.717
			c1.147-0.418,2.59-0.627,4.034-0.633h0.023c1.442,0.006,2.882,0.215,4.027,0.633c-1.027-3.813-2.926-8.177-2.303-12.717
			c0.174-1.191,0.446,1.386,1.517,3.056c1.289,2.009,3.671,3.062,6.631,3.007c4.639-0.084,8.227-3.968,7.794-9.578
			c-0.908-11.792-9.77-21.252-17.358-26.102c-0.082-0.063-0.155-0.1-0.274-0.181H48.598z"/>
		<path fill-rule="evenodd" fill="#222221" stroke="#222221" stroke-linejoin="round" d="M135.055,80.041
			c-0.102,0.067-0.174,0.104-0.293,0.181c-7.596,4.85-16.457,14.311-17.365,26.103c-0.432,5.608,3.156,9.493,7.795,9.577
			c2.961,0.055,5.342-0.998,6.631-3.007c1.072-1.67,1.346-4.248,1.52-3.056c0.625,4.54-1.277,8.904-2.307,12.717
			c1.148-0.418,2.59-0.627,4.035-0.633h0.023c1.441,0.006,2.881,0.215,4.027,0.633c-1.027-3.813-2.926-8.177-2.303-12.717
			c0.174-1.191,0.445,1.386,1.516,3.056c1.289,2.009,3.672,3.062,6.631,3.007c4.639-0.084,8.227-3.968,7.795-9.577
			c-0.908-11.792-9.77-21.253-17.359-26.103c-0.082-0.062-0.154-0.1-0.273-0.181H135.055z"/>
		<path fill-rule="evenodd" fill="#222221" stroke="#222221" stroke-linejoin="round" d="M48.598,226.488
			c-0.102-0.066-0.174-0.104-0.293-0.18c-7.595-4.85-16.456-14.311-17.364-26.104c-0.432-5.611,3.155-9.496,7.794-9.58
			c2.961-0.055,5.342,0.998,6.632,3.008c1.072,1.67,1.346,4.248,1.52,3.057c0.625-4.541-1.277-8.906-2.307-12.721
			c1.147,0.418,2.59,0.627,4.034,0.633h0.023c1.442-0.006,2.882-0.215,4.027-0.633c-1.027,3.814-2.926,8.18-2.303,12.721
			c0.174,1.191,0.446-1.387,1.517-3.057c1.289-2.01,3.671-3.063,6.631-3.008c4.639,0.084,8.227,3.969,7.794,9.58
			c-0.908,11.793-9.77,21.254-17.358,26.104c-0.082,0.061-0.155,0.1-0.274,0.18H48.598z"/>
		<path fill-rule="evenodd" fill="#222221" stroke="#222221" stroke-linejoin="round" d="M135.055,226.488
			c-0.102-0.066-0.174-0.104-0.293-0.18c-7.594-4.85-16.455-14.311-17.363-26.104c-0.432-5.611,3.154-9.496,7.793-9.58
			c2.961-0.055,5.342,0.998,6.633,3.008c1.072,1.67,1.346,4.248,1.52,3.057c0.625-4.541-1.277-8.906-2.307-12.721
			c1.146,0.418,2.59,0.627,4.033,0.633h0.023c1.443-0.006,2.883-0.215,4.027-0.633c-1.027,3.814-2.926,8.18-2.303,12.721
			c0.174,1.191,0.447-1.387,1.518-3.057c1.289-2.01,3.67-3.063,6.631-3.008c4.639,0.084,8.227,3.969,7.793,9.58
			c-0.908,11.793-9.77,21.254-17.357,26.104c-0.082,0.061-0.156,0.1-0.275,0.18H135.055z"/>
		<path fill-rule="evenodd" fill="#222221" stroke="#222221" stroke-linejoin="round" d="M48.598,174.52
			c-0.102-0.066-0.174-0.104-0.293-0.18c-7.595-4.85-16.456-14.311-17.364-26.104c-0.432-5.611,3.155-9.496,7.794-9.58
			c2.961-0.055,5.342,0.998,6.632,3.008c1.072,1.67,1.346,4.248,1.52,3.057c0.625-4.541-1.277-8.906-2.307-12.721
			c1.147,0.418,2.59,0.627,4.034,0.633h0.023c1.442-0.006,2.882-0.215,4.027-0.633c-1.027,3.814-2.926,8.18-2.303,12.721
			c0.174,1.191,0.446-1.387,1.517-3.057c1.289-2.01,3.671-3.063,6.631-3.008c4.639,0.084,8.227,3.969,7.794,9.58
			c-0.908,11.793-9.77,21.254-17.358,26.104c-0.082,0.061-0.155,0.1-0.274,0.18H48.598z"/>
		<path fill-rule="evenodd" fill="#222221" stroke="#222221" stroke-linejoin="round" d="M91.826,198.143
			c-0.102-0.068-0.174-0.104-0.293-0.182c-7.595-4.85-16.456-14.311-17.364-26.104c-0.432-5.611,3.155-9.496,7.794-9.58
			c2.961-0.055,5.342,0.998,6.633,3.008c1.072,1.672,1.346,4.248,1.52,3.057c0.625-4.541-1.277-8.906-2.307-12.721
			c1.146,0.418,2.59,0.627,4.033,0.633h0.023c1.443-0.006,2.883-0.215,4.027-0.633c-1.027,3.814-2.926,8.18-2.303,12.721
			c0.174,1.191,0.447-1.385,1.518-3.057c1.289-2.01,3.67-3.063,6.631-3.008c4.639,0.084,8.227,3.969,7.793,9.58
			c-0.908,11.793-9.77,21.254-17.357,26.104c-0.082,0.063-0.156,0.1-0.275,0.182H91.826z"/>
		<path fill-rule="evenodd" fill="#222221" stroke="#222221" stroke-linejoin="round" d="M135.055,174.52
			c-0.102-0.066-0.174-0.104-0.293-0.18c-7.594-4.85-16.455-14.311-17.363-26.104c-0.432-5.611,3.154-9.496,7.793-9.58
			c2.961-0.055,5.342,0.998,6.633,3.008c1.072,1.67,1.346,4.248,1.52,3.057c0.625-4.541-1.277-8.906-2.307-12.721
			c1.146,0.418,2.59,0.627,4.033,0.633h0.023c1.443-0.006,2.883-0.215,4.027-0.633c-1.027,3.814-2.926,8.18-2.303,12.721
			c0.174,1.191,0.447-1.387,1.518-3.057c1.289-2.01,3.67-3.063,6.631-3.008c4.639,0.084,8.227,3.969,7.793,9.58
			c-0.908,11.793-9.77,21.254-17.357,26.104c-0.082,0.061-0.156,0.1-0.275,0.18H135.055z"/>
	</g>
</g>
<g id="four">
	<g>
		<path fill="#F8F8F7" stroke="#222221" d="M181.289,237.775c0,7.828-6.346,14.174-14.174,14.174H16.879
			c-7.827,0-14.173-6.346-14.173-14.174V16.673C2.706,8.846,9.052,2.5,16.879,2.5h150.236c7.828,0,14.174,6.346,14.174,14.173
			V237.775z"/>
		<path fill="#C0373B" d="M15.474,45.02c1.786,3.471,4.146,6.309,7.075,8.513c-2.93,2.207-5.289,5.038-7.075,8.495
			c-1.802-3.457-4.167-6.288-7.098-8.495C11.307,51.328,13.672,48.49,15.474,45.02L15.474,45.02z"/>
		<path fill="#C0373B" d="M168.543,192.421c1.787,3.47,4.146,6.308,7.076,8.513c-2.93,2.206-5.289,5.038-7.076,8.495
			c-1.803-3.457-4.168-6.289-7.098-8.495C164.375,198.729,166.74,195.891,168.543,192.421L168.543,192.421z"/>
		<path fill="#C0373B" d="M48.795,28.012c4.469,8.675,10.365,15.77,17.691,21.283C59.16,54.812,53.264,61.89,48.795,70.531
			c-4.504-8.642-10.418-15.72-17.742-21.236C38.377,43.781,44.291,36.687,48.795,28.012L48.795,28.012z"/>
		<path fill="#C0373B" d="M48.795,183.917c4.469,8.675,10.364,15.769,17.691,21.282c-7.327,5.518-13.223,12.596-17.691,21.237
			c-4.504-8.642-10.418-15.72-17.742-21.237C38.377,199.686,44.291,192.592,48.795,183.917L48.795,183.917z"/>
		<path fill="#C0373B" d="M135.25,28.01c4.469,8.675,10.365,15.771,17.691,21.284c-7.326,5.517-13.223,12.596-17.691,21.237
			c-4.502-8.642-10.416-15.721-17.74-21.237C124.834,43.78,130.748,36.685,135.25,28.01L135.25,28.01z"/>
		<path fill="#C0373B" d="M135.25,183.917c4.469,8.675,10.363,15.77,17.691,21.282c-7.328,5.517-13.223,12.596-17.691,21.237
			c-4.502-8.642-10.416-15.721-17.742-21.237C124.834,199.687,130.748,192.592,135.25,183.917L135.25,183.917z"/>
		<path fill="#C0373B" d="M22.549,34.631v-2.392H19.57l-0.006-15.566l-2.236,0.001l0,0h-0.076L8.375,32.239v2.392h8.961l0.002,3.74
			l-1.496,0.005l0.007,2.392l5.236-0.019l-0.008-2.392l-1.505,0.005l-0.001-3.731H22.549z M10.994,32.239l6.336-11.134l0.005,11.134
			H10.994z"/>
		<path fill="#C0373B" d="M161.445,219.816v2.393h2.979l0.006,15.566l2.236-0.001v-0.001l0.076,0.001l8.877-15.565v-2.393h-8.961
			l-0.002-3.739l1.496-0.005l-0.006-2.392l-5.236,0.019l0.008,2.392l1.504-0.005l0.002,3.73H161.445z M173,222.209l-6.336,11.134
			l-0.004-11.134H173z"/>
	</g>
</g>
</svg>
