<?xml version="1.0" encoding="utf-8"?>
<!-- Generator: Adobe Illustrator 15.1.0, SVG Export Plug-In . SVG Version: 6.00 Build 0)  -->
<svg version="1.2" baseProfile="tiny" xmlns="http://www.w3.org/2000/svg" xmlns:xlink="http://www.w3.org/1999/xlink" x="0px"
	 y="0px" width="184px" height="254px" viewBox="0 0 184 254" xml:space="preserve">
<g id="Warstwa_1" display="none">
</g>
<g id="nine" display="none">
	<g display="inline">
		<path fill="#F8F8F7" stroke="#222221" d="M181.291,237.874c0,7.828-6.346,14.174-14.174,14.174H16.881
			c-7.827,0-14.173-6.346-14.173-14.174V16.775c0-7.828,6.346-14.173,14.173-14.173h150.236c7.828,0,14.174,6.346,14.174,14.173
			V237.874z"/>
		<g>
			<path fill="#C0373B" d="M15.476,45.122c1.786,3.47,4.146,6.309,7.075,8.512c-2.93,2.207-5.289,5.039-7.075,8.496
				c-1.802-3.457-4.167-6.289-7.098-8.496C11.309,51.431,13.674,48.592,15.476,45.122L15.476,45.122z"/>
			<path fill="#C0373B" d="M168.545,192.52c1.787,3.47,4.146,6.308,7.076,8.513c-2.93,2.206-5.289,5.038-7.076,8.495
				c-1.803-3.457-4.168-6.289-7.098-8.495C164.377,198.827,166.742,195.989,168.545,192.52L168.545,192.52z"/>
			<path fill="#C0373B" d="M48.797,28.115c4.469,8.675,10.365,15.77,17.691,21.283c-7.326,5.517-13.223,12.595-17.691,21.236
				c-4.504-8.642-10.418-15.72-17.742-21.236C38.379,43.884,44.293,36.79,48.797,28.115L48.797,28.115z"/>
			<path fill="#C0373B" d="M48.796,80.083c4.469,8.676,10.365,15.771,17.692,21.285c-7.327,5.516-13.224,12.595-17.692,21.232
				c-4.503-8.637-10.417-15.716-17.741-21.232C38.379,95.853,44.293,88.758,48.796,80.083L48.796,80.083z"/>
			<path fill="#C0373B" d="M48.797,132.048c4.469,8.674,10.364,15.77,17.691,21.282c-7.327,5.517-13.223,12.597-17.691,21.237
				c-4.504-8.641-10.418-15.721-17.742-21.237C38.379,147.817,44.293,140.722,48.797,132.048L48.797,132.048z"/>
			<path fill="#C0373B" d="M48.797,184.016c4.469,8.674,10.365,15.769,17.691,21.282c-7.326,5.518-13.223,12.597-17.691,21.237
				c-4.504-8.641-10.418-15.72-17.742-21.237C38.379,199.784,44.293,192.689,48.797,184.016L48.797,184.016z"/>
			<path fill="#C0373B" d="M135.252,28.114c4.469,8.675,10.365,15.77,17.691,21.283c-7.326,5.517-13.223,12.595-17.691,21.236
				c-4.502-8.642-10.416-15.72-17.74-21.236C124.836,43.883,130.75,36.789,135.252,28.114L135.252,28.114z"/>
			<path fill="#C0373B" d="M135.252,80.083c4.469,8.674,10.365,15.77,17.691,21.284c-7.326,5.516-13.223,12.595-17.691,21.232
				c-4.502-8.637-10.418-15.716-17.74-21.232C124.834,95.852,130.75,88.757,135.252,80.083L135.252,80.083z"/>
			<path fill="#C0373B" d="M135.252,132.047c4.469,8.675,10.365,15.77,17.691,21.282c-7.326,5.518-13.223,12.597-17.691,21.238
				c-4.502-8.642-10.416-15.721-17.74-21.238C124.836,147.816,130.75,140.722,135.252,132.047L135.252,132.047z"/>
			<path fill="#C0373B" d="M135.252,184.016c4.469,8.674,10.365,15.769,17.691,21.282c-7.326,5.518-13.223,12.597-17.691,21.237
				c-4.502-8.641-10.416-15.72-17.74-21.237C124.836,199.784,130.75,192.689,135.252,184.016L135.252,184.016z"/>
			<path fill="#C0373B" d="M92.023,106.066c4.471,8.684,10.365,15.784,17.691,21.292c-7.326,5.512-13.221,12.587-17.691,21.224
				c-4.502-8.637-10.416-15.712-17.74-21.224C81.607,121.85,87.521,114.75,92.023,106.066L92.023,106.066z"/>
			<path fill="none" d="M15.514,19.067c-0.746,0.001-1.395,0.168-1.967,0.463s-1.068,0.721-1.486,1.262
				c-0.834,1.079-1.34,2.634-1.338,4.377c-0.002,1.306,0.271,2.479,0.748,3.415c0.479,0.937,1.148,1.636,1.996,2.06
				c0.566,0.282,1.221,0.444,1.982,0.444c0.014,0,0.031,0,0.055,0c0.742-0.009,1.385-0.186,1.949-0.489
				c0.566-0.306,1.057-0.743,1.469-1.296c0.826-1.104,1.32-2.691,1.32-4.441c-0.002-1.732-0.52-3.188-1.35-4.195
				C18.057,19.663,16.93,19.074,15.514,19.067z"/>
			<path fill="#C0373B" d="M22.355,24.15c-0.127-1.936-0.775-3.681-1.857-4.997c-1.205-1.473-2.973-2.378-4.971-2.378
				c-0.006,0-0.014,0-0.02,0c-1.053,0-2.035,0.244-2.9,0.691c-1.299,0.671-2.318,1.785-3,3.128c-0.682,1.345-1.037,2.921-1.039,4.58
				c0.002,2.189,0.605,4.223,1.791,5.744c0.594,0.76,1.334,1.385,2.195,1.813s1.838,0.659,2.889,0.658c0.027,0,0.055,0,0.074,0
				c1.055-0.01,2.037-0.271,2.896-0.735c0.73-0.394,1.363-0.933,1.9-1.568c-0.068,1.604-0.326,3.524-1.059,4.932
				c-0.383,0.739-0.873,1.338-1.539,1.771c-0.666,0.431-1.535,0.716-2.752,0.718c-0.887-0.001-1.58-0.208-2.156-0.512
				c-0.859-0.454-1.463-1.153-1.85-1.751c-0.193-0.298-0.328-0.567-0.414-0.753c-0.041-0.093-0.07-0.165-0.088-0.211
				c-0.01-0.021-0.016-0.037-0.018-0.045l-0.025,0.011l-2.037,0.792c0.033,0.089,0.416,1.233,1.428,2.423
				c0.506,0.594,1.176,1.197,2.037,1.653c0.859,0.456,1.91,0.755,3.123,0.754c0.004,0,0.01,0,0.014,0
				c1.533,0,2.832-0.382,3.869-1.057c0.781-0.505,1.404-1.167,1.887-1.897c0.723-1.098,1.141-2.34,1.396-3.549
				c0.254-1.21,0.348-2.397,0.385-3.409c0.025-0.707,0.035-1.394,0.035-2.042C22.551,26.533,22.385,24.485,22.355,24.15z
				 M18.916,29.308c-0.412,0.554-0.902,0.991-1.469,1.296c-0.564,0.304-1.207,0.48-1.949,0.489c-0.023,0-0.041,0-0.055,0
				c-0.762,0-1.416-0.163-1.982-0.444c-0.848-0.423-1.518-1.123-1.996-2.06c-0.477-0.936-0.75-2.109-0.748-3.415
				c-0.002-1.743,0.504-3.298,1.338-4.377c0.418-0.541,0.914-0.967,1.486-1.262s1.221-0.462,1.967-0.463
				c1.416,0.006,2.543,0.595,3.379,1.6c0.83,1.006,1.348,2.462,1.35,4.195C20.236,26.617,19.742,28.204,18.916,29.308z"/>
			<path fill="#C0373B" d="M161.643,230.499c0.127,1.936,0.775,3.681,1.857,4.997c1.205,1.473,2.973,2.378,4.971,2.378
				c0.006,0,0.014,0,0.02,0c1.053,0,2.035-0.244,2.9-0.691c1.299-0.671,2.318-1.785,3-3.129s1.037-2.921,1.039-4.579
				c-0.002-2.188-0.605-4.223-1.791-5.744c-0.594-0.76-1.334-1.385-2.195-1.813s-1.838-0.659-2.889-0.658c-0.027,0-0.055,0-0.074,0
				c-1.055,0.01-2.037,0.271-2.896,0.735c-0.73,0.394-1.363,0.933-1.9,1.568c0.068-1.604,0.326-3.524,1.059-4.932
				c0.383-0.739,0.873-1.338,1.539-1.771c0.666-0.431,1.535-0.716,2.752-0.718c0.887,0.001,1.58,0.209,2.156,0.512
				c0.859,0.453,1.463,1.153,1.85,1.751c0.193,0.298,0.328,0.567,0.414,0.753c0.041,0.093,0.07,0.165,0.088,0.211
				c0.01,0.021,0.016,0.037,0.018,0.045l0.025-0.011l2.037-0.792c-0.033-0.09-0.416-1.233-1.428-2.424
				c-0.506-0.594-1.176-1.197-2.037-1.653c-0.859-0.456-1.91-0.755-3.123-0.754c-0.004,0-0.01,0-0.014,0
				c-1.533,0-2.832,0.382-3.869,1.057c-0.781,0.505-1.404,1.167-1.887,1.897c-0.723,1.098-1.141,2.34-1.396,3.549
				c-0.254,1.211-0.348,2.397-0.385,3.409c-0.025,0.706-0.035,1.394-0.035,2.042C161.447,228.116,161.613,230.164,161.643,230.499z
				 M165.082,225.341c0.412-0.553,0.902-0.99,1.469-1.296c0.564-0.304,1.207-0.48,1.949-0.489c0.023,0,0.041,0,0.055,0
				c0.762,0,1.416,0.162,1.982,0.444c0.848,0.423,1.518,1.122,1.996,2.06c0.477,0.936,0.75,2.109,0.748,3.415
				c0.002,1.743-0.504,3.298-1.338,4.377c-0.418,0.541-0.914,0.967-1.486,1.262s-1.221,0.462-1.967,0.464
				c-1.416-0.007-2.543-0.596-3.379-1.6c-0.83-1.007-1.348-2.463-1.35-4.195C163.762,228.032,164.256,226.445,165.082,225.341z"/>
		</g>
	</g>
</g>
<g id="ten">
	<g>
		<path fill="#F8F8F7" stroke="#222221" d="M181.292,237.873c0,7.828-6.346,14.174-14.174,14.174H16.882
			c-7.828,0-14.174-6.346-14.174-14.174V16.775c0-7.828,6.346-14.173,14.174-14.173h150.236c7.828,0,14.174,6.346,14.174,14.173
			V237.873z"/>
		<path fill="#C0373B" d="M15.476,45.123c1.786,3.47,4.145,6.309,7.075,8.512c-2.931,2.207-5.289,5.039-7.075,8.496
			c-1.803-3.457-4.168-6.289-7.098-8.496C11.308,51.431,13.673,48.592,15.476,45.123L15.476,45.123z"/>
		<path fill="#C0373B" d="M168.547,192.52c1.786,3.469,4.146,6.307,7.075,8.512c-2.93,2.207-5.289,5.039-7.075,8.496
			c-1.802-3.457-4.169-6.289-7.098-8.496C164.378,198.826,166.745,195.988,168.547,192.52L168.547,192.52z"/>
		<path fill="#C0373B" d="M48.797,28.114c4.469,8.675,10.365,15.77,17.691,21.283c-7.326,5.517-13.223,12.595-17.691,21.236
			c-4.503-8.641-10.417-15.72-17.742-21.236C38.38,43.883,44.294,36.789,48.797,28.114L48.797,28.114z"/>
		<path fill="#C0373B" d="M48.796,80.083c4.469,8.675,10.365,15.77,17.692,21.284c-7.327,5.516-13.224,12.595-17.692,21.233
			c-4.502-8.638-10.416-15.717-17.741-21.233C38.38,95.853,44.294,88.758,48.796,80.083L48.796,80.083z"/>
		<path fill="#C0373B" d="M48.797,132.047c4.469,8.674,10.364,15.77,17.691,21.283c-7.327,5.518-13.223,12.596-17.691,21.236
			c-4.503-8.641-10.417-15.719-17.742-21.236C38.38,147.816,44.294,140.721,48.797,132.047L48.797,132.047z"/>
		<path fill="#C0373B" d="M48.797,184.014c4.469,8.676,10.364,15.77,17.691,21.283c-7.327,5.518-13.223,12.598-17.691,21.238
			c-4.503-8.641-10.417-15.721-17.742-21.238C38.38,199.783,44.294,192.689,48.797,184.014L48.797,184.014z"/>
		<path fill="#C0373B" d="M135.254,28.114c4.469,8.675,10.364,15.77,17.691,21.283c-7.327,5.517-13.223,12.595-17.691,21.236
			c-4.502-8.642-10.417-15.72-17.741-21.236C124.837,43.883,130.752,36.789,135.254,28.114L135.254,28.114z"/>
		<path fill="#C0373B" d="M135.253,80.084c4.469,8.675,10.365,15.77,17.691,21.283c-7.326,5.516-13.223,12.595-17.691,21.234
			c-4.502-8.639-10.418-15.718-17.742-21.234C124.835,95.854,130.751,88.759,135.253,80.084L135.253,80.084z"/>
		<path fill="#C0373B" d="M135.253,132.049c4.469,8.674,10.365,15.768,17.691,21.281c-7.326,5.518-13.223,12.596-17.691,21.238
			c-4.502-8.643-10.417-15.721-17.741-21.238C124.836,147.816,130.751,140.723,135.253,132.049L135.253,132.049z"/>
		<path fill="#C0373B" d="M135.254,184.014c4.468,8.676,10.364,15.77,17.691,21.283c-7.327,5.518-13.224,12.598-17.691,21.238
			c-4.503-8.641-10.417-15.721-17.741-21.238C124.837,199.783,130.751,192.689,135.254,184.014L135.254,184.014z"/>
		<path fill="#C0373B" d="M92.024,56.46c4.47,8.675,10.365,15.77,17.691,21.284c-7.326,5.517-13.222,12.595-17.691,21.236
			c-4.502-8.642-10.417-15.72-17.741-21.236C81.607,72.23,87.522,65.135,92.024,56.46L92.024,56.46z"/>
		<path fill="#C0373B" d="M92.024,155.668c4.47,8.674,10.365,15.77,17.691,21.283c-7.326,5.518-13.222,12.596-17.691,21.236
			c-4.502-8.641-10.417-15.719-17.741-21.236C81.607,171.438,87.522,164.342,92.024,155.668L92.024,155.668z"/>
		<g>
			<g>
				<polygon fill="#C0373B" points="8.378,40.833 8.378,16.775 10.559,16.775 10.559,40.833 8.378,40.833 				"/>
			</g>
			<path fill="#C0373B" d="M15.118,39.553c-0.794-0.816-1.304-1.98-1.302-3.262l0,0V21.354c-0.002-1.282,0.508-2.445,1.302-3.262
				l0,0c0.793-0.82,1.88-1.317,3.065-1.317l0,0c1.185,0,2.271,0.497,3.066,1.317l0,0c0.793,0.817,1.303,1.98,1.301,3.262l0,0v14.937
				c0.002,1.281-0.508,2.445-1.301,3.262l0,0c-0.795,0.82-1.882,1.317-3.066,1.317l0,0C16.998,40.87,15.911,40.373,15.118,39.553
				L15.118,39.553z M16.615,19.829c-0.393,0.408-0.617,0.938-0.618,1.525l0,0v14.937c0.001,0.588,0.226,1.116,0.618,1.525l0,0
				c0.392,0.405,0.943,0.666,1.568,0.666l0,0c0.625,0,1.176-0.261,1.568-0.666l0,0c0.393-0.409,0.617-0.938,0.618-1.525l0,0V21.354
				c-0.001-0.588-0.226-1.117-0.618-1.525l0,0c-0.393-0.405-0.943-0.666-1.568-0.666l0,0C17.559,19.163,17.007,19.424,16.615,19.829
				L16.615,19.829z"/>
		</g>
		<g>
			<g>
				<polygon fill="#C0373B" points="175.622,213.814 175.622,237.873 173.44,237.873 173.44,213.814 175.622,213.814 				"/>
			</g>
			<path fill="#C0373B" d="M168.882,215.096c0.795,0.816,1.303,1.98,1.303,3.262l0,0v14.938c0,1.281-0.508,2.445-1.303,3.262l0,0
				c-0.793,0.82-1.881,1.316-3.066,1.316l0,0c-1.184,0-2.271-0.496-3.064-1.316l0,0c-0.795-0.816-1.303-1.98-1.303-3.262l0,0
				v-14.938c0-1.281,0.508-2.445,1.303-3.262l0,0c0.793-0.82,1.881-1.316,3.064-1.316l0,0
				C167.001,213.779,168.089,214.275,168.882,215.096L168.882,215.096z M167.386,234.82c0.393-0.408,0.617-0.938,0.617-1.525l0,0
				v-14.938c0-0.588-0.225-1.115-0.617-1.525l0,0c-0.393-0.404-0.943-0.666-1.57-0.666l0,0c-0.623,0-1.176,0.262-1.568,0.666l0,0
				c-0.393,0.41-0.615,0.938-0.617,1.525l0,0v14.938c0.002,0.588,0.225,1.117,0.617,1.525l0,0c0.393,0.404,0.945,0.666,1.568,0.666
				l0,0C166.442,235.486,166.993,235.225,167.386,234.82L167.386,234.82z"/>
		</g>
	</g>
</g>
</svg>
