<?xml version="1.0" encoding="utf-8"?>
<!-- Generator: Adobe Illustrator 15.1.0, SVG Export Plug-In . SVG Version: 6.00 Build 0)  -->
<svg version="1.2" baseProfile="tiny" xmlns="http://www.w3.org/2000/svg" xmlns:xlink="http://www.w3.org/1999/xlink" x="0px"
	 y="0px" width="184px" height="254px" viewBox="0 0 184 254" xml:space="preserve">
<g id="Warstwa_1" display="none">
</g>
<g id="ace" display="none">
	<g display="inline">
		<path fill="#F8F8F7" stroke="#222221" d="M181.598,237.898c0,7.827-6.344,14.173-14.172,14.173H17.19
			c-7.828,0-14.174-6.346-14.174-14.173V16.795c0-7.827,6.346-14.173,14.174-14.173h150.236c7.828,0,14.172,6.346,14.172,14.173
			V237.898z"/>
		<path d="M15.771,45.143c-1.862,0-3.376,1.703-3.376,3.802c0,1.198,0.501,2.265,1.269,2.966c0.258,0.238,0.146,0.496-0.115,0.334
			c-0.48-0.291-1.021-0.477-1.606-0.477c-1.797,0-3.256,1.643-3.256,3.666c0,2.025,1.459,3.668,3.256,3.668
			c1.197,0,2.247-0.729,2.811-1.816c0.056-0.107,0.098-0.252,0.176-0.252c0.108,0,0.158,0.174,0.158,0.502
			c0,1.314-0.504,2.85-1.252,4.615c0.324-0.076,1.298-0.271,1.937-0.271s1.615,0.195,1.937,0.271
			c-0.744-1.766-1.25-3.301-1.25-4.615c0-0.328,0.048-0.502,0.156-0.502c0.078,0,0.124,0.145,0.176,0.252
			c0.566,1.088,1.613,1.816,2.813,1.816c1.798,0,3.256-1.643,3.256-3.668c0-2.023-1.458-3.666-3.256-3.666
			c-0.585,0-1.129,0.186-1.608,0.477c-0.263,0.162-0.374-0.096-0.116-0.334c0.771-0.701,1.269-1.768,1.269-2.966
			C19.147,46.846,17.636,45.143,15.771,45.143z"/>
		<path d="M168.844,209.552c1.861,0,3.377-1.704,3.377-3.802c0-1.2-0.504-2.264-1.268-2.967c-0.262-0.238-0.148-0.495,0.117-0.334
			c0.477,0.292,1.02,0.477,1.602,0.477c1.797,0,3.258-1.643,3.258-3.667c0-2.023-1.461-3.666-3.258-3.666
			c-1.195,0-2.246,0.729-2.811,1.816c-0.055,0.106-0.1,0.253-0.176,0.253c-0.107,0-0.158-0.176-0.158-0.504
			c0-1.313,0.506-2.851,1.256-4.615c-0.324,0.076-1.303,0.271-1.939,0.271s-1.615-0.195-1.936-0.271
			c0.744,1.765,1.252,3.302,1.252,4.615c0,0.328-0.051,0.504-0.16,0.504c-0.074,0-0.121-0.146-0.176-0.253
			c-0.563-1.088-1.613-1.816-2.811-1.816c-1.797,0-3.258,1.643-3.258,3.666c0,2.024,1.461,3.667,3.258,3.667
			c0.582,0,1.127-0.185,1.604-0.477c0.266-0.161,0.377,0.096,0.121,0.334c-0.77,0.703-1.271,1.767-1.271,2.967
			C165.467,207.848,166.98,209.552,168.844,209.552z"/>
		<path d="M92.307,106.088c-4.659,0-8.44,4.258-8.44,9.502c0,3,1.251,5.66,3.172,7.416c0.647,0.594,0.369,1.238-0.292,0.836
			c-1.198-0.729-2.552-1.191-4.015-1.191c-4.493,0-8.141,4.105-8.141,9.164c0,5.061,3.647,9.167,8.141,9.167
			c2.997,0,5.618-1.822,7.028-4.54c0.137-0.267,0.246-0.631,0.443-0.631c0.266,0,0.391,0.437,0.391,1.255
			c0,3.288-1.262,7.126-3.127,11.541c0.805-0.192,3.248-0.679,4.84-0.679c1.597,0,4.037,0.486,4.845,0.679
			c-1.867-4.415-3.131-8.253-3.131-11.541c0-0.818,0.127-1.255,0.395-1.255c0.195,0,0.305,0.364,0.439,0.631
			c1.412,2.718,4.031,4.54,7.027,4.54c4.496,0,8.141-4.106,8.141-9.167c0-5.059-3.645-9.164-8.141-9.164
			c-1.459,0-2.814,0.463-4.018,1.191c-0.654,0.402-0.936-0.242-0.285-0.836c1.918-1.756,3.168-4.416,3.168-7.416
			C100.748,110.346,96.967,106.088,92.307,106.088z"/>
		<g>
			<polygon fill="none" points="13.659,32.754 17.985,32.748 15.826,21.193 			"/>
			<path d="M21.247,38.588L17.18,16.821l-2.189-0.026l0.004,0.016l-0.545-0.004l-4.057,21.781l-1.705,0.001l-0.003,2.302h5.45
				l0.003-2.303h-1.572l0.624-3.334l5.262-0.008l0.624,3.342l-1.667-0.002l-0.004,2.303l5.45,0.002l0.003-2.303H21.247z
				 M13.659,32.754l2.167-11.561l2.159,11.555L13.659,32.754z"/>
		</g>
		<g>
			<polygon fill="none" points="170.955,221.939 166.631,221.945 168.789,233.5 			"/>
			<path d="M163.367,216.105l4.068,21.767l2.188,0.026l-0.002-0.016l0.545,0.004l4.055-21.781l1.705-0.001l0.004-2.302h-5.449
				l-0.004,2.303h1.572l-0.625,3.334l-5.26,0.008l-0.625-3.342l1.666,0.002l0.006-2.303l-5.451-0.002l-0.004,2.303H163.367z
				 M170.955,221.939l-2.166,11.561l-2.158-11.555L170.955,221.939z"/>
		</g>
	</g>
	<g display="inline">
		<path fill="#F8F8F7" stroke="#222221" d="M181.599,237.827c0,7.827-6.346,14.173-14.174,14.173H17.188
			c-7.828,0-14.173-6.346-14.173-14.173V16.725c0-7.828,6.346-14.174,14.173-14.174h150.236c7.828,0,14.174,6.346,14.174,14.174
			V237.827z"/>
		<g>
			<path fill="#C0373B" d="M19.745,45.17c-1.247-0.387-3.186,0.295-3.898,3.123c-0.06,0.154-0.122,0.15-0.178-0.006
				c-1.028-2.865-2.722-3.491-3.913-3.117c-1.764,0.569-3.194,2.673-3.063,5.356c0.035,4.685,4.228,7.044,7.058,11.524
				c2.83-4.479,7.069-6.832,7.082-11.537C23.077,47.801,21.558,45.729,19.745,45.17z"/>
			<path fill="#C0373B" d="M15.77,62.079c-0.006-0.01-0.013-0.019-0.019-0.029c-0.006,0.01-0.013,0.019-0.019,0.029H15.77z"/>
		</g>
		<g>
			<path fill="#C0373B" d="M168.863,192.501c-2.83,4.479-7.069,6.832-7.082,11.537c-0.245,2.712,1.274,4.784,3.087,5.344
				c1.246,0.387,3.186-0.296,3.898-3.123c0.061-0.155,0.123-0.15,0.179,0.006c1.028,2.865,2.722,3.49,3.911,3.117
				c1.766-0.569,3.195-2.674,3.064-5.357C175.886,199.34,171.693,196.979,168.863,192.501z"/>
			<path fill="#C0373B" d="M168.845,192.473c0.006,0.01,0.013,0.019,0.019,0.028c0.006-0.01,0.013-0.019,0.019-0.028H168.845z"/>
		</g>
		<g>
			<path fill="#C0373B" d="M92.296,148.536c-0.016-0.025-0.032-0.049-0.048-0.074c-0.016,0.025-0.032,0.049-0.048,0.074H92.296z"/>
			<path fill="#C0373B" d="M102.244,106.265c-3.116-0.969-7.975,0.735-9.755,7.803c-0.148,0.387-0.305,0.379-0.445-0.014
				c-2.569-7.16-6.802-8.725-9.78-7.789c-4.409,1.422-7.981,6.68-7.654,13.389c0.088,11.714,10.564,17.613,17.638,28.809
				c7.086-11.195,17.681-17.078,17.71-28.844C110.571,112.839,106.776,107.661,102.244,106.265z"/>
		</g>
		<path fill="#C0373B" d="M21.246,38.516l-4.067-21.767l-2.188-0.025l0.003,0.016l-0.545-0.005l-4.057,21.782H8.687l-0.002,2.302
			h5.449l0.003-2.302h-1.572l0.625-3.334l5.261-0.008l0.624,3.341l-1.667-0.001l-0.004,2.302l5.451,0.002l0.003-2.302L21.246,38.516
			z M13.658,32.682l2.166-11.56l2.159,11.554L13.658,32.682z"/>
		<path fill="#C0373B" d="M163.366,216.034l4.067,21.768l2.188,0.025l-0.003-0.016l0.545,0.004l4.057-21.781h1.704l0.004-2.303
			h-5.45l-0.003,2.303h1.572l-0.625,3.334l-5.261,0.008l-0.624-3.341l1.667,0.001l0.004-2.303l-5.45-0.002l-0.004,2.303H163.366z
			 M170.954,221.868l-2.166,11.561l-2.159-11.555L170.954,221.868z"/>
	</g>
</g>
<g id="two" display="none">
	<g display="inline">
		<path fill="#F8F8F7" stroke="#222221" d="M181.984,237.826c0,7.828-6.346,14.174-14.174,14.174H17.575
			c-7.828,0-14.173-6.346-14.173-14.174V16.724c0-7.827,6.346-14.173,14.173-14.173h150.236c7.828,0,14.174,6.346,14.174,14.173
			V237.826z"/>
		<g>
			<path fill="#C0373B" d="M20.131,45.17c-1.247-0.388-3.186,0.294-3.898,3.122c-0.06,0.154-0.122,0.151-0.178-0.006
				c-1.028-2.865-2.722-3.491-3.913-3.116c-1.765,0.568-3.194,2.672-3.063,5.356c0.036,4.684,4.228,7.043,7.058,11.523
				c2.83-4.479,7.069-6.832,7.082-11.537C23.463,47.801,21.944,45.729,20.131,45.17z"/>
			<path fill="#C0373B" d="M16.156,62.078c-0.006-0.01-0.013-0.019-0.019-0.029c-0.006,0.01-0.013,0.019-0.019,0.029H16.156z"/>
		</g>
		<g>
			<path fill="#C0373B" d="M169.25,192.499c-2.83,4.48-7.07,6.833-7.082,11.538c-0.246,2.712,1.273,4.785,3.086,5.344
				c1.246,0.387,3.186-0.295,3.898-3.123c0.061-0.154,0.123-0.15,0.178,0.006c1.029,2.864,2.723,3.49,3.912,3.117
				c1.766-0.569,3.195-2.674,3.064-5.357C176.271,199.34,172.079,196.979,169.25,192.499z"/>
			<path fill="#C0373B" d="M169.23,192.472c0.006,0.01,0.014,0.019,0.02,0.027c0.006-0.009,0.012-0.018,0.018-0.027H169.23z"/>
		</g>
		<g>
			<path fill="#C0373B" d="M92.693,183.968c0.016,0.025,0.033,0.049,0.049,0.074c0.016-0.025,0.031-0.049,0.047-0.074H92.693z"/>
			<path fill="#C0373B" d="M110.389,212.848c-0.088-11.71-10.565-17.607-17.646-28.806c-7.076,11.198-17.671,17.078-17.701,28.839
				c-0.613,6.781,3.182,11.963,7.715,13.358c3.117,0.968,7.963-0.736,9.744-7.806c0.148-0.387,0.305-0.379,0.445,0.014
				c2.572,7.162,6.811,8.728,9.789,7.792C107.143,224.816,110.715,219.558,110.389,212.848z"/>
		</g>
		<g>
			<path fill="#C0373B" d="M92.684,70.582c-0.016-0.025-0.031-0.049-0.047-0.074c-0.016,0.025-0.033,0.049-0.049,0.074H92.684z"/>
			<path fill="#C0373B" d="M102.629,28.312c-3.117-0.969-7.971,0.735-9.752,7.805c-0.148,0.387-0.305,0.378-0.445-0.015
				c-2.568-7.162-6.802-8.727-9.78-7.79c-4.409,1.422-7.982,6.681-7.655,13.391c0.088,11.71,10.566,17.607,17.64,28.806
				c7.082-11.199,17.678-17.079,17.707-28.84C110.957,34.889,107.162,29.707,102.629,28.312z"/>
		</g>
		<path fill="#C0373B" d="M23.223,37.047l-2.276-0.01l-0.009,1.448h-9.56c0.05-0.333,0.195-0.756,0.462-1.238
			c0.489-0.891,1.352-1.938,2.387-2.973c1.036-1.039,2.242-2.078,3.416-3.023l0.005-0.003l0.009-0.008
			c1.419-1.183,2.632-2.056,3.617-3.099c0.49-0.521,0.92-1.094,1.242-1.758c0.324-0.664,0.531-1.411,0.607-2.236
			c0.016-0.173,0.025-0.358,0.025-0.561c-0.001-0.561-0.066-1.239-0.253-1.972c-0.281-1.092-0.848-2.322-1.929-3.291
			c-1.079-0.973-2.652-1.607-4.676-1.601c-1.625-0.003-2.959,0.42-3.978,1.107c-0.764,0.513-1.343,1.161-1.769,1.829
			c-0.639,1.007-0.951,2.055-1.116,2.896c-0.163,0.842-0.176,1.483-0.176,1.694c0,0.038,0,0.063,0.001,0.072l1.974-0.053
			l0.303-0.004c0-0.003,0-0.008,0-0.016c-0.006-0.178,0.042-1.621,0.665-2.858c0.31-0.622,0.741-1.188,1.367-1.609
			c0.628-0.42,1.473-0.722,2.729-0.726c1.058,0.001,1.832,0.208,2.418,0.506c0.873,0.45,1.386,1.12,1.722,1.881
			c0.331,0.753,0.443,1.588,0.44,2.144c0,0.132-0.006,0.247-0.014,0.337c-0.055,0.576-0.184,1.017-0.379,1.42
			c-0.291,0.603-0.766,1.155-1.485,1.802c-0.715,0.643-1.655,1.359-2.761,2.276c-1.621,1.306-3.321,2.793-4.668,4.326
			c-0.674,0.769-1.262,1.549-1.705,2.352c-0.415,0.758-0.707,1.546-0.765,2.385H9.084l-0.008,0.145c0,0.001,0,0.001,0,0.002l0,0
			v0.007l-0.006,2.181h14.155v-1.001L23.223,37.047z"/>
		<path fill="#C0373B" d="M162.162,217.502l2.275,0.01l0.01-1.447h9.561c-0.051,0.333-0.195,0.756-0.463,1.238
			c-0.488,0.891-1.352,1.938-2.387,2.973c-1.035,1.039-2.242,2.078-3.416,3.023l-0.006,0.002l-0.008,0.008
			c-1.42,1.184-2.633,2.057-3.617,3.1c-0.49,0.521-0.92,1.094-1.242,1.758c-0.324,0.664-0.531,1.41-0.607,2.236
			c-0.016,0.172-0.025,0.358-0.025,0.561c0.002,0.561,0.066,1.239,0.254,1.972c0.281,1.091,0.848,2.322,1.93,3.291
			c1.078,0.973,2.652,1.607,4.676,1.601c1.625,0.003,2.959-0.42,3.977-1.107c0.766-0.513,1.344-1.161,1.77-1.83
			c0.639-1.006,0.951-2.054,1.115-2.895c0.164-0.842,0.178-1.483,0.178-1.694c0-0.038-0.002-0.063-0.002-0.072l-1.973,0.053
			l-0.305,0.004c0,0.003,0.002,0.008,0.002,0.016c0.006,0.178-0.043,1.621-0.666,2.858c-0.311,0.622-0.742,1.188-1.367,1.609
			c-0.629,0.42-1.473,0.722-2.729,0.726c-1.059-0.001-1.832-0.208-2.42-0.507c-0.873-0.449-1.385-1.119-1.721-1.88
			c-0.332-0.753-0.443-1.588-0.441-2.144c0-0.132,0.008-0.247,0.016-0.338c0.055-0.575,0.184-1.016,0.379-1.42
			c0.291-0.602,0.766-1.154,1.484-1.801c0.715-0.643,1.656-1.359,2.762-2.276c1.621-1.306,3.32-2.794,4.668-4.326
			c0.674-0.769,1.262-1.549,1.705-2.352c0.416-0.758,0.707-1.546,0.766-2.386h0.008l0.008-0.144c0-0.001,0-0.001,0-0.002l0,0v-0.007
			l0.006-2.181h-14.156v1.001L162.162,217.502z"/>
	</g>
</g>
<g id="three" display="none">
	<g display="inline">
		<path fill="#F8F8F7" stroke="#222221" d="M182.37,237.827c0,7.827-6.346,14.173-14.174,14.173H17.96
			c-7.828,0-14.173-6.346-14.173-14.173V16.725c0-7.828,6.346-14.174,14.173-14.174h150.236c7.828,0,14.174,6.346,14.174,14.174
			V237.827z"/>
		<g>
			<path fill="#C0373B" d="M20.516,45.17c-1.247-0.387-3.186,0.295-3.898,3.122c-0.059,0.155-0.122,0.151-0.177-0.005
				c-1.029-2.865-2.722-3.491-3.914-3.117c-1.764,0.569-3.193,2.673-3.063,5.356c0.035,4.685,4.228,7.043,7.058,11.524
				c2.83-4.48,7.069-6.833,7.081-11.538C23.849,47.801,22.33,45.729,20.516,45.17z"/>
			<path fill="#C0373B" d="M16.541,62.078c-0.006-0.01-0.013-0.019-0.019-0.028c-0.006,0.009-0.013,0.018-0.019,0.028H16.541z"/>
		</g>
		<g>
			<path fill="#C0373B" d="M169.616,192.473c0.006,0.01,0.013,0.019,0.019,0.028c0.006-0.01,0.013-0.019,0.019-0.028H169.616z"/>
			<path fill="#C0373B" d="M169.635,192.501c-2.83,4.48-7.069,6.833-7.082,11.537c-0.245,2.712,1.274,4.785,3.087,5.344
				c1.246,0.387,3.186-0.295,3.898-3.123c0.06-0.154,0.123-0.15,0.178,0.006c1.028,2.865,2.722,3.49,3.912,3.117
				c1.766-0.569,3.194-2.673,3.063-5.357C176.657,199.341,172.464,196.981,169.635,192.501z"/>
		</g>
		<g>
			<path fill="#C0373B" d="M110.775,212.849c-0.088-11.711-10.568-17.607-17.648-28.807c-7.075,11.199-17.671,17.079-17.701,28.84
				c-0.613,6.781,3.182,11.963,7.716,13.358c3.117,0.968,7.963-0.736,9.744-7.806c0.149-0.387,0.305-0.379,0.446,0.014
				c2.571,7.162,6.808,8.728,9.786,7.792C107.528,224.817,111.103,219.559,110.775,212.849z"/>
			<path fill="#C0373B" d="M93.08,183.969c0.016,0.024,0.031,0.049,0.047,0.073c0.016-0.024,0.033-0.049,0.049-0.073H93.08z"/>
		</g>
		<g>
			<path fill="#C0373B" d="M93.072,70.582c-0.016-0.025-0.033-0.049-0.049-0.074c-0.016,0.025-0.032,0.049-0.047,0.074H93.072z"/>
			<path fill="#C0373B" d="M103.015,28.312c-3.117-0.969-7.969,0.735-9.749,7.805c-0.148,0.387-0.305,0.378-0.446-0.014
				c-2.57-7.163-6.804-8.727-9.782-7.791c-4.409,1.423-7.983,6.681-7.656,13.391c0.088,11.71,10.566,17.607,17.642,28.806
				c7.08-11.199,17.678-17.079,17.708-28.84C111.344,34.889,107.548,29.707,103.015,28.312z"/>
		</g>
		<g>
			<path fill="#C0373B" d="M93.072,148.535c-0.016-0.024-0.033-0.049-0.049-0.073c-0.016,0.024-0.032,0.049-0.047,0.073H93.072z"/>
			<path fill="#C0373B" d="M103.015,106.265c-3.117-0.969-7.969,0.735-9.749,7.804c-0.148,0.387-0.305,0.378-0.446-0.014
				c-2.57-7.162-6.804-8.727-9.782-7.79c-4.409,1.422-7.983,6.68-7.656,13.39c0.088,11.712,10.566,17.61,17.642,28.808
				c7.08-11.197,17.678-17.079,17.708-28.842C111.344,112.84,107.548,107.66,103.015,106.265z"/>
		</g>
		<g>
			<path fill="#C0373B" d="M17.6,24.513l5.877-5.248h0.02v-0.018l0.006-0.006l-0.006-0.007v-2.511l-13.53,0.001l0.007,1.813v2.257
				h2.079v-1.542l7.914,0.009l-7.769,7.195l1.119,1.658c0.847-0.78,1.911-1.244,3.079-1.244c1.369,0,2.743,0.64,3.642,1.679
				c0.897,1.041,1.449,2.467,1.449,4.054c0,1.587-0.552,3.012-1.449,4.053c-0.899,1.04-2.272,1.679-3.642,1.68
				c-1.371-0.001-2.601-0.64-3.5-1.68c-0.648-0.753-1.117-1.707-1.327-2.778l-2.112,0.436c0.679,3.717,3.527,6.505,6.938,6.506
				c3.917-0.001,7.234-3.678,7.234-8.216C23.629,28.539,20.968,25.175,17.6,24.513z"/>
			<polygon fill="#C0373B" points="13.316,28.114 13.316,28.114 13.315,28.114 			"/>
		</g>
		<g>
			<path fill="#C0373B" d="M168.557,230.038l-5.877,5.248h-0.02v0.018l-0.007,0.006l0.007,0.007l-0.001,2.511l13.531-0.002
				l-0.008-1.813v-2.256h-2.078v1.542l-7.913-0.009l7.769-7.195l-1.119-1.658c-0.848,0.78-1.911,1.244-3.079,1.244
				c-1.37,0-2.743-0.64-3.642-1.679c-0.897-1.042-1.449-2.467-1.449-4.054c0-1.588,0.552-3.012,1.449-4.053
				c0.898-1.041,2.271-1.68,3.642-1.68s2.601,0.639,3.499,1.68c0.649,0.752,1.117,1.707,1.327,2.777l2.112-0.436
				c-0.68-3.717-3.527-6.504-6.938-6.506c-3.917,0.002-7.235,3.679-7.235,8.217C162.526,226.011,165.188,229.376,168.557,230.038z"
				/>
			<polygon fill="#C0373B" points="172.841,226.437 172.841,226.437 172.841,226.437 			"/>
		</g>
	</g>
</g>
<g id="four" display="none">
	<g display="inline">
		<path fill="#F8F8F7" stroke="#222221" d="M181.756,237.826c0,7.828-6.346,14.174-14.174,14.174H17.346
			c-7.827,0-14.173-6.346-14.173-14.174V16.724c0-7.827,6.346-14.173,14.173-14.173h150.236c7.828,0,14.174,6.346,14.174,14.173
			V237.826z"/>
		<g>
			<path fill="#C0373B" d="M19.902,45.17c-1.246-0.388-3.186,0.294-3.898,3.122c-0.059,0.154-0.121,0.151-0.178-0.006
				c-1.027-2.865-2.721-3.49-3.912-3.116c-1.766,0.568-3.194,2.672-3.064,5.356c0.036,4.684,4.229,7.043,7.059,11.522
				c2.83-4.479,7.068-6.832,7.082-11.536C23.234,47.801,21.716,45.729,19.902,45.17z"/>
			<path fill="#C0373B" d="M15.928,62.078c-0.006-0.01-0.014-0.02-0.02-0.029c-0.006,0.01-0.014,0.019-0.02,0.029H15.928z"/>
		</g>
		<g>
			<path fill="#C0373B" d="M169.021,192.502c-2.832,4.479-7.07,6.833-7.082,11.536c-0.246,2.712,1.273,4.784,3.086,5.343
				c1.248,0.387,3.188-0.295,3.9-3.123c0.059-0.154,0.121-0.15,0.176,0.006c1.029,2.865,2.723,3.491,3.914,3.117
				c1.764-0.568,3.193-2.673,3.063-5.356C176.043,199.341,171.852,196.98,169.021,192.502z"/>
			<path fill="#C0373B" d="M169.002,192.473c0.006,0.011,0.014,0.02,0.02,0.029c0.006-0.01,0.014-0.019,0.02-0.029H169.002z"/>
		</g>
		<g>
			<path fill="#C0373B" d="M59.17,28.312c-3.117-0.969-7.964,0.735-9.745,7.805c-0.147,0.387-0.304,0.379-0.445-0.014
				c-2.569-7.162-6.804-8.727-9.782-7.791c-4.41,1.423-7.984,6.682-7.656,13.391c0.088,11.711,10.568,17.608,17.643,28.808
				c7.076-11.199,17.674-17.079,17.703-28.842C67.5,34.889,63.705,29.707,59.17,28.312z"/>
			<path fill="#C0373B" d="M49.23,70.582c-0.016-0.024-0.031-0.048-0.047-0.072c-0.016,0.024-0.031,0.048-0.047,0.072H49.23z"/>
		</g>
		<g>
			<path fill="#C0373B" d="M66.932,212.849c-0.088-11.711-10.568-17.608-17.644-28.807c-7.076,11.198-17.675,17.078-17.704,28.84
				c-0.613,6.78,3.184,11.962,7.717,13.357c3.117,0.968,7.965-0.735,9.746-7.806c0.148-0.387,0.305-0.379,0.445,0.014
				c2.57,7.163,6.804,8.728,9.782,7.792C63.686,224.816,67.258,219.559,66.932,212.849z"/>
			<path fill="#C0373B" d="M49.24,183.968c0.016,0.025,0.032,0.049,0.048,0.074c0.016-0.025,0.032-0.049,0.048-0.074H49.24z"/>
		</g>
		<g>
			<path fill="#C0373B" d="M135.688,67.747c-0.016-0.025-0.032-0.049-0.048-0.074c-0.016,0.025-0.032,0.049-0.048,0.074H135.688z"/>
			<path fill="#C0373B" d="M145.627,25.477c-3.117-0.968-7.965,0.735-9.746,7.805c-0.148,0.388-0.305,0.379-0.445-0.014
				c-2.57-7.162-6.805-8.727-9.783-7.791c-4.41,1.423-7.984,6.682-7.656,13.391c0.088,11.711,10.568,17.608,17.644,28.806
				c7.076-11.198,17.675-17.079,17.704-28.84C153.957,32.054,150.16,26.872,145.627,25.477z"/>
		</g>
		<g>
			<path fill="#C0373B" d="M153.389,212.85c-0.088-11.712-10.568-17.609-17.644-28.808c-7.076,11.198-17.675,17.078-17.704,28.84
				c-0.613,6.78,3.184,11.962,7.717,13.357c3.117,0.968,7.965-0.735,9.746-7.806c0.148-0.387,0.305-0.379,0.445,0.014
				c2.57,7.163,6.805,8.729,9.783,7.792C150.143,224.816,153.715,219.559,153.389,212.85z"/>
			<path fill="#C0373B" d="M135.697,183.968c0.016,0.025,0.032,0.049,0.048,0.074c0.016-0.025,0.032-0.049,0.048-0.074H135.697z"/>
		</g>
		<path fill="#C0373B" d="M23.016,34.682V32.29h-2.979l-0.006-15.566l-2.236,0.001l0,0h-0.076L8.842,32.29v2.392h8.961l0.002,3.74
			l-1.496,0.005l0.007,2.392l5.236-0.019l-0.008-2.392l-1.505,0.005l-0.001-3.731H23.016z M11.461,32.29l6.336-11.134l0.005,11.134
			H11.461z"/>
		<path fill="#C0373B" d="M161.912,219.867v2.393h2.979l0.006,15.566l2.236-0.001v-0.001l0.076,0.001l8.877-15.565v-2.393h-8.961
			l-0.002-3.739l1.496-0.005l-0.006-2.392l-5.236,0.019l0.008,2.392l1.504-0.005l0.002,3.73H161.912z M173.467,222.26l-6.336,11.134
			l-0.004-11.134H173.467z"/>
	</g>
</g>
<g id="five" display="none">
	<g display="inline">
		<path fill="#F8F8F7" stroke="#222221" d="M182.143,237.647c0,7.828-6.346,14.174-14.174,14.174H17.732
			c-7.828,0-14.174-6.346-14.174-14.174V16.545c0-7.827,6.346-14.173,14.174-14.173h150.236c7.828,0,14.174,6.346,14.174,14.173
			V237.647z"/>
		<g>
			<path fill="#C0373B" d="M16.313,61.899c-0.006-0.01-0.013-0.019-0.019-0.028c-0.006,0.009-0.013,0.018-0.019,0.028H16.313z"/>
			<path fill="#C0373B" d="M20.289,44.991c-1.247-0.387-3.186,0.294-3.898,3.122c-0.06,0.154-0.122,0.151-0.178-0.006
				c-1.028-2.865-2.722-3.491-3.913-3.116c-1.765,0.569-3.194,2.673-3.063,5.356c0.035,4.685,4.228,7.043,7.058,11.524
				c2.83-4.48,7.069-6.833,7.081-11.538C23.621,47.622,22.102,45.55,20.289,44.991z"/>
		</g>
		<g>
			<path fill="#C0373B" d="M169.408,192.321c-2.832,4.479-7.07,6.833-7.082,11.537c-0.246,2.712,1.273,4.785,3.086,5.344
				c1.246,0.387,3.186-0.295,3.898-3.123c0.061-0.154,0.123-0.15,0.178,0.006c1.029,2.865,2.723,3.49,3.913,3.117
				c1.765-0.569,3.194-2.673,3.063-5.357C176.43,199.162,172.237,196.801,169.408,192.321z"/>
			<path fill="#C0373B" d="M169.389,192.293c0.006,0.01,0.013,0.019,0.02,0.028c0.006-0.01,0.013-0.019,0.019-0.028H169.389z"/>
		</g>
		<g>
			<path fill="#C0373B" d="M59.557,25.298c-3.117-0.969-7.965,0.735-9.746,7.805c-0.147,0.388-0.305,0.379-0.445-0.014
				c-2.569-7.162-6.804-8.727-9.782-7.791c-4.41,1.423-7.984,6.682-7.656,13.392C32.014,50.4,42.495,56.296,49.57,67.495
				c7.075-11.199,17.674-17.079,17.703-28.84C67.887,31.875,64.091,26.694,59.557,25.298z"/>
			<path fill="#C0373B" d="M49.617,67.568c-0.016-0.025-0.032-0.048-0.047-0.073c-0.016,0.025-0.032,0.048-0.048,0.073H49.617z"/>
		</g>
		<g>
			<path fill="#C0373B" d="M49.627,183.788c0.016,0.024,0.032,0.048,0.047,0.073c0.016-0.025,0.032-0.049,0.048-0.073H49.627z"/>
			<path fill="#C0373B" d="M67.317,212.669c-0.088-11.71-10.568-17.608-17.644-28.808c-7.075,11.199-17.674,17.08-17.703,28.841
				c-0.613,6.781,3.183,11.963,7.717,13.357c3.117,0.969,7.965-0.734,9.746-7.805c0.147-0.387,0.305-0.379,0.445,0.014
				c2.569,7.162,6.804,8.728,9.782,7.791C64.071,224.638,67.645,219.379,67.317,212.669z"/>
		</g>
		<g>
			<path fill="#C0373B" d="M146.014,25.298c-3.118-0.969-7.965,0.736-9.746,7.805c-0.148,0.388-0.305,0.379-0.445-0.014
				c-2.57-7.162-6.805-8.727-9.782-7.791c-4.411,1.423-7.985,6.682-7.657,13.392c0.088,11.71,10.568,17.606,17.644,28.805
				c7.076-11.199,17.674-17.079,17.704-28.839C154.343,31.875,150.547,26.694,146.014,25.298z"/>
			<path fill="#C0373B" d="M136.074,67.568c-0.016-0.025-0.032-0.049-0.048-0.074c-0.016,0.025-0.032,0.049-0.048,0.074H136.074z"/>
		</g>
		<g>
			<path fill="#C0373B" d="M153.774,209.835c-0.088-11.711-10.569-17.609-17.644-28.809c-7.076,11.199-17.674,17.081-17.703,28.842
				c-0.613,6.78,3.183,11.961,7.716,13.357c3.118,0.967,7.965-0.736,9.747-7.805c0.147-0.388,0.304-0.38,0.444,0.014
				c2.569,7.162,6.804,8.727,9.783,7.791C150.527,221.802,154.102,216.544,153.774,209.835z"/>
			<path fill="#C0373B" d="M136.084,180.954c0.016,0.024,0.031,0.048,0.047,0.072c0.016-0.024,0.031-0.048,0.047-0.072H136.084z"/>
		</g>
		<g>
			<path fill="#C0373B" d="M102.787,106.085c-3.117-0.968-7.971,0.736-9.752,7.805c-0.148,0.387-0.305,0.378-0.445-0.015
				c-2.568-7.161-6.803-8.725-9.78-7.79c-4.409,1.423-7.982,6.681-7.655,13.39c0.088,11.715,10.566,17.611,17.641,28.809
				c7.082-11.197,17.678-17.076,17.707-28.843C111.115,112.661,107.32,107.481,102.787,106.085z"/>
			<path fill="#C0373B" d="M92.842,148.356c-0.016-0.024-0.031-0.048-0.047-0.073c-0.016,0.025-0.032,0.049-0.048,0.073H92.842z"/>
		</g>
		<path fill="#C0373B" d="M21.293,25.506c-1.312-1.622-3.192-2.676-5.287-2.675c-1.309-0.001-2.535,0.416-3.592,1.122l-0.003-5.032
			h9.365v-2.376H10.171v0.831h-0.012l0.007,9.733l2.251-0.002c0.757-1.088,2.402-1.899,3.589-1.901
			c1.368,0.002,2.622,0.675,3.579,1.846c0.951,1.17,1.566,2.828,1.565,4.684c0.001,1.854-0.614,3.513-1.565,4.683
			c-0.957,1.172-2.211,1.844-3.579,1.846c-1.012-0.001-1.95-0.367-2.767-1.027c-0.813-0.661-1.49-1.624-1.909-2.78l-2.102,0.851
			c0.559,1.537,1.469,2.859,2.636,3.811c1.166,0.95,2.601,1.523,4.142,1.522c0.001,0,0.003,0,0.005,0
			c2.093,0,3.972-1.055,5.282-2.675c1.318-1.624,2.107-3.822,2.108-6.229C23.4,29.328,22.611,27.129,21.293,25.506z"/>
		<path fill="#C0373B" d="M164.408,228.687c1.311,1.621,3.192,2.676,5.286,2.675c1.31,0.001,2.536-0.416,3.592-1.122l0.003,5.031
			h-9.365v2.377h11.605v-0.831h0.012l-0.006-9.733l-2.251,0.002c-0.757,1.088-2.402,1.899-3.59,1.9
			c-1.368-0.001-2.622-0.674-3.578-1.846c-0.952-1.169-1.567-2.828-1.565-4.683c-0.002-1.854,0.613-3.513,1.565-4.683
			c0.956-1.172,2.21-1.844,3.578-1.846c1.013,0.001,1.95,0.367,2.767,1.027c0.813,0.661,1.49,1.624,1.91,2.78l2.102-0.851
			c-0.559-1.537-1.469-2.859-2.637-3.811c-1.165-0.95-2.601-1.523-4.142-1.522c-0.001,0-0.003,0-0.004,0
			c-2.093,0-3.972,1.055-5.282,2.675c-1.318,1.623-2.107,3.822-2.109,6.229C162.301,224.864,163.09,227.063,164.408,228.687z"/>
	</g>
</g>
<g id="six" display="none">
	<g display="inline">
		<path fill="#F8F8F7" stroke="#222221" d="M181.599,237.826c0,7.828-6.346,14.174-14.174,14.174H17.188
			c-7.828,0-14.173-6.346-14.173-14.174V16.725c0-7.828,6.346-14.174,14.173-14.174h150.236c7.828,0,14.174,6.346,14.174,14.174
			V237.826z"/>
		<g>
			<path fill="#C0373B" d="M19.745,45.17c-1.247-0.387-3.186,0.294-3.898,3.122c-0.06,0.155-0.122,0.151-0.178-0.006
				c-1.028-2.865-2.722-3.491-3.913-3.116c-1.764,0.569-3.194,2.672-3.063,5.356c0.035,4.685,4.228,7.044,7.058,11.523
				c2.83-4.479,7.069-6.832,7.082-11.537C23.077,47.801,21.558,45.729,19.745,45.17z"/>
			<path fill="#C0373B" d="M15.77,62.079c-0.006-0.01-0.013-0.019-0.019-0.029c-0.006,0.01-0.013,0.019-0.019,0.029H15.77z"/>
		</g>
		<g>
			<path fill="#C0373B" d="M168.845,192.473c0.006,0.01,0.013,0.018,0.019,0.027c0.006-0.01,0.013-0.018,0.019-0.027H168.845z"/>
			<path fill="#C0373B" d="M168.863,192.5c-2.83,4.48-7.069,6.832-7.082,11.537c-0.245,2.713,1.274,4.785,3.087,5.344
				c1.246,0.387,3.186-0.295,3.898-3.123c0.061-0.154,0.123-0.15,0.179,0.006c1.028,2.865,2.722,3.49,3.911,3.117
				c1.766-0.568,3.195-2.674,3.064-5.357C175.886,199.34,171.693,196.98,168.863,192.5z"/>
		</g>
		<g>
			<path fill="#C0373B" d="M49.073,67.748c-0.016-0.025-0.032-0.048-0.047-0.073c-0.016,0.025-0.032,0.048-0.047,0.073H49.073z"/>
			<path fill="#C0373B" d="M59.013,25.478c-3.117-0.969-7.964,0.735-9.746,7.805c-0.147,0.387-0.304,0.379-0.445-0.014
				c-2.569-7.163-6.804-8.727-9.782-7.791c-4.41,1.423-7.984,6.682-7.657,13.391c0.088,11.711,10.569,17.608,17.644,28.807
				c7.076-11.198,17.674-17.079,17.704-28.84C67.343,32.055,63.547,26.873,59.013,25.478z"/>
		</g>
		<g>
			<path fill="#C0373B" d="M49.083,183.969c0.016,0.025,0.032,0.049,0.047,0.074c0.016-0.025,0.032-0.049,0.047-0.074H49.083z"/>
			<path fill="#C0373B" d="M66.774,212.848c-0.088-11.711-10.568-17.607-17.644-28.805c-7.075,11.197-17.674,17.078-17.704,28.838
				c-0.613,6.781,3.183,11.963,7.717,13.357c3.117,0.969,7.965-0.734,9.746-7.805c0.148-0.387,0.305-0.379,0.445,0.014
				c2.569,7.162,6.804,8.729,9.783,7.791C63.527,224.816,67.101,219.559,66.774,212.848z"/>
		</g>
		<g>
			<path fill="#C0373B" d="M135.53,147.117c-0.016-0.025-0.032-0.049-0.048-0.074c-0.016,0.025-0.032,0.049-0.048,0.074H135.53z"/>
			<path fill="#C0373B" d="M145.469,104.848c-3.117-0.968-7.964,0.735-9.745,7.804c-0.148,0.387-0.305,0.378-0.445-0.015
				c-2.57-7.161-6.804-8.725-9.783-7.789c-4.41,1.422-7.984,6.68-7.656,13.388c0.088,11.716,10.567,17.612,17.644,28.808
				c7.076-11.195,17.674-17.076,17.704-28.841C153.8,111.423,150.003,106.243,145.469,104.848z"/>
		</g>
		<g>
			<path fill="#C0373B" d="M145.47,25.478c-3.118-0.969-7.966,0.735-9.747,7.805c-0.147,0.387-0.304,0.379-0.444-0.014
				c-2.57-7.162-6.805-8.727-9.783-7.791c-4.41,1.423-7.984,6.682-7.656,13.391c0.088,11.71,10.567,17.607,17.644,28.806
				c7.076-11.198,17.673-17.079,17.703-28.84C153.799,32.055,150.003,26.873,145.47,25.478z"/>
			<path fill="#C0373B" d="M135.53,67.748c-0.016-0.025-0.032-0.049-0.048-0.074c-0.016,0.025-0.032,0.049-0.048,0.074H135.53z"/>
		</g>
		<g>
			<path fill="#C0373B" d="M135.54,183.969c0.016,0.025,0.031,0.049,0.047,0.072c0.016-0.023,0.031-0.047,0.047-0.072H135.54z"/>
			<path fill="#C0373B" d="M153.231,212.848c-0.088-11.711-10.569-17.607-17.645-28.807c-7.074,11.199-17.674,17.078-17.703,28.84
				c-0.613,6.781,3.184,11.963,7.717,13.357c3.117,0.969,7.965-0.734,9.746-7.805c0.148-0.387,0.305-0.379,0.445,0.014
				c2.57,7.162,6.803,8.729,9.783,7.791C149.985,224.816,153.558,219.559,153.231,212.848z"/>
		</g>
		<g>
			<path fill="#C0373B" d="M49.073,147.117c-0.016-0.023-0.032-0.049-0.047-0.072c-0.016,0.023-0.032,0.049-0.047,0.072H49.073z"/>
			<path fill="#C0373B" d="M59.013,104.848c-3.117-0.968-7.965,0.735-9.746,7.804c-0.147,0.387-0.304,0.378-0.445-0.014
				c-2.569-7.162-6.804-8.726-9.783-7.79c-4.41,1.423-7.983,6.68-7.656,13.39c0.088,11.716,10.568,17.61,17.644,28.808
				c7.075-11.195,17.674-17.076,17.704-28.843C67.343,111.423,63.546,106.243,59.013,104.848z"/>
		</g>
		<path fill="#C0373B" d="M21.034,26.043c-0.604-0.792-1.359-1.445-2.235-1.893c-0.875-0.448-1.872-0.689-2.941-0.689
			c-0.029,0-0.055,0-0.076,0c-1.074,0.011-2.074,0.284-2.949,0.768c-0.581,0.321-1.1,0.737-1.561,1.218
			c0.042-0.248,0.084-0.488,0.126-0.708c0.132-0.677,0.263-1.215,0.359-1.577c0.049-0.181,0.088-0.318,0.115-0.409
			c0.014-0.044,0.023-0.077,0.029-0.098c0.004-0.01,0.006-0.018,0.007-0.021c0-0.001,0.001-0.002,0.001-0.002v-0.002l0.01-0.029
			l0.006-0.026l0.002-0.005v0c0.023-0.083,0.296-0.937,0.913-1.736c0.319-0.417,0.727-0.82,1.237-1.128
			c0.511-0.309,1.129-0.531,1.924-0.576c0.111-0.006,0.218-0.008,0.323-0.008c1.412,0.004,2.339,0.502,2.952,0.986
			c0.304,0.243,0.523,0.484,0.66,0.656c0.067,0.086,0.115,0.154,0.144,0.194c0.013,0.021,0.021,0.034,0.025,0.04
			c0.002,0.003,0.002,0.003,0.002,0.003l0.544-0.387l1.304-0.895c-0.053-0.09-0.478-0.818-1.391-1.55
			c-0.909-0.732-2.333-1.451-4.239-1.447c-0.14,0-0.284,0.004-0.432,0.012c-1.155,0.061-2.146,0.416-2.946,0.917
			c-1.203,0.753-1.97,1.803-2.44,2.649c-0.428,0.774-0.619,1.393-0.665,1.55c-0.113,0.36-1.157,3.746-1.159,8.375
			c0,0.85,0.044,1.749,0.127,2.671c0.096,2.108,0.758,4.013,1.9,5.436c1.227,1.539,3.025,2.484,5.059,2.484c0.007,0,0.015,0,0.022,0
			c1.071,0,2.071-0.255,2.951-0.723c1.324-0.699,2.363-1.864,3.056-3.267c0.695-1.405,1.056-3.053,1.058-4.785
			C22.856,29.758,22.242,27.634,21.034,26.043z M19.308,36.617c-0.426,0.565-0.932,1.01-1.513,1.319
			c-0.583,0.307-1.244,0.483-2.002,0.483c-1.443-0.006-2.59-0.622-3.441-1.67c-0.746-0.929-1.245-2.226-1.351-3.763l0.011-0.001
			c-0.01-0.093-0.012-0.182-0.021-0.274c-0.005-0.114-0.013-0.227-0.013-0.344c-0.002-1.828,0.502-3.485,1.343-4.639
			c0.42-0.579,0.921-1.036,1.496-1.354c0.576-0.318,1.23-0.502,1.985-0.511c0.021,0,0.041,0,0.056,0
			c0.776,0.001,1.441,0.17,2.018,0.464c0.863,0.443,1.544,1.173,2.033,2.152c0.485,0.978,0.763,2.204,0.763,3.566
			C20.673,33.867,20.158,35.49,19.308,36.617z"/>
		<path fill="#C0373B" d="M163.579,228.506c0.604,0.793,1.359,1.445,2.234,1.893c0.876,0.449,1.871,0.689,2.941,0.689
			c0.029,0,0.055,0,0.076,0c1.074-0.012,2.074-0.283,2.949-0.768c0.58-0.322,1.1-0.738,1.561-1.219
			c-0.041,0.248-0.084,0.488-0.127,0.707c-0.131,0.678-0.262,1.215-0.358,1.578c-0.05,0.18-0.089,0.318-0.115,0.408
			c-0.014,0.043-0.022,0.076-0.029,0.098c-0.004,0.01-0.007,0.018-0.007,0.02s-0.002,0.002-0.002,0.002v0.002l-0.01,0.029
			l-0.006,0.027l-0.002,0.006l0,0c-0.023,0.082-0.297,0.936-0.913,1.736c-0.319,0.416-0.727,0.818-1.237,1.127
			c-0.512,0.309-1.129,0.531-1.924,0.576c-0.111,0.006-0.219,0.008-0.323,0.008c-1.411-0.004-2.339-0.502-2.952-0.986
			c-0.304-0.242-0.523-0.484-0.66-0.656c-0.066-0.086-0.115-0.152-0.143-0.193c-0.014-0.021-0.021-0.035-0.025-0.039
			c-0.002-0.004-0.002-0.004-0.002-0.004l-0.544,0.387l-1.304,0.895c0.053,0.092,0.478,0.818,1.391,1.551
			c0.91,0.732,2.333,1.451,4.239,1.447c0.14,0,0.284-0.004,0.433-0.012c1.154-0.063,2.146-0.416,2.945-0.918
			c1.203-0.752,1.97-1.803,2.439-2.648c0.428-0.773,0.619-1.393,0.664-1.551c0.113-0.359,1.158-3.746,1.16-8.375
			c0-0.85-0.044-1.748-0.127-2.672c-0.097-2.107-0.759-4.012-1.9-5.436c-1.227-1.539-3.025-2.484-5.059-2.484
			c-0.008,0-0.016,0-0.022,0c-1.071,0-2.071,0.256-2.952,0.723c-1.322,0.699-2.361,1.865-3.055,3.268
			c-0.695,1.404-1.057,3.053-1.059,4.785C161.757,224.791,162.37,226.916,163.579,228.506z M165.306,217.934
			c0.426-0.566,0.932-1.01,1.513-1.318c0.583-0.309,1.243-0.484,2.002-0.484c1.442,0.006,2.59,0.621,3.44,1.67
			c0.746,0.93,1.245,2.227,1.352,3.764h-0.012c0.01,0.094,0.014,0.182,0.021,0.275c0.004,0.113,0.013,0.227,0.013,0.344
			c0.002,1.828-0.503,3.484-1.343,4.639c-0.42,0.578-0.921,1.035-1.496,1.355c-0.576,0.316-1.23,0.502-1.985,0.51
			c-0.022,0-0.041,0-0.056,0c-0.775,0-1.441-0.17-2.018-0.463c-0.863-0.443-1.545-1.174-2.033-2.152
			c-0.486-0.979-0.763-2.205-0.763-3.566C163.94,220.684,164.455,219.061,165.306,217.934z"/>
	</g>
</g>
<g id="seven">
	<g>
		<path fill="#F8F8F7" stroke="#222221" d="M181.984,237.826c0,7.828-6.346,14.174-14.174,14.174H17.575
			c-7.828,0-14.173-6.346-14.173-14.174V16.724c0-7.828,6.346-14.173,14.173-14.173h150.236c7.828,0,14.174,6.346,14.174,14.173
			V237.826z"/>
		<g>
			<path fill="#C0373B" d="M16.155,62.078c-0.006-0.01-0.013-0.019-0.019-0.028c-0.006,0.01-0.013,0.019-0.019,0.028H16.155z"/>
			<path fill="#C0373B" d="M20.131,45.17c-1.247-0.387-3.186,0.294-3.898,3.122c-0.06,0.155-0.122,0.151-0.178-0.006
				c-1.029-2.865-2.722-3.49-3.913-3.116c-1.765,0.569-3.194,2.673-3.063,5.356c0.035,4.684,4.228,7.044,7.058,11.523
				c2.83-4.479,7.069-6.832,7.081-11.537C23.463,47.801,21.944,45.729,20.131,45.17z"/>
		</g>
		<g>
			<path fill="#C0373B" d="M169.229,192.471c0.007,0.01,0.014,0.02,0.02,0.029c0.007-0.01,0.014-0.02,0.02-0.029H169.229z"/>
			<path fill="#C0373B" d="M169.248,192.5c-2.83,4.48-7.068,6.832-7.082,11.537c-0.244,2.713,1.273,4.785,3.086,5.344
				c1.248,0.387,3.188-0.295,3.9-3.123c0.059-0.154,0.121-0.15,0.178,0.006c1.027,2.865,2.721,3.49,3.912,3.117
				c1.766-0.57,3.193-2.674,3.063-5.357C176.27,199.34,172.078,196.98,169.248,192.5z"/>
		</g>
		<g>
			<path fill="#C0373B" d="M59.398,25.478c-3.118-0.97-7.965,0.735-9.746,7.804c-0.148,0.387-0.305,0.378-0.445-0.014
				c-2.57-7.162-6.804-8.727-9.782-7.79c-4.41,1.422-7.984,6.681-7.657,13.391c0.088,11.71,10.568,17.608,17.643,28.806
				c7.076-11.198,17.674-17.078,17.704-28.84C67.728,32.055,63.932,26.873,59.398,25.478z"/>
			<path fill="#C0373B" d="M49.458,67.748c-0.016-0.025-0.032-0.048-0.047-0.073c-0.016,0.025-0.032,0.048-0.047,0.073H49.458z"/>
		</g>
		<g>
			<path fill="#C0373B" d="M67.159,212.848c-0.088-11.711-10.568-17.607-17.644-28.807c-7.075,11.197-17.673,17.078-17.703,28.84
				c-0.613,6.781,3.183,11.961,7.717,13.357c3.117,0.969,7.964-0.734,9.746-7.805c0.148-0.387,0.305-0.379,0.445,0.014
				c2.57,7.162,6.804,8.727,9.783,7.791C63.913,224.816,67.487,219.557,67.159,212.848z"/>
			<path fill="#C0373B" d="M49.468,183.967c0.016,0.025,0.032,0.049,0.047,0.074c0.016-0.025,0.032-0.049,0.047-0.074H49.468z"/>
		</g>
		<g>
			<path fill="#C0373B" d="M135.916,148.535c-0.016-0.025-0.031-0.049-0.047-0.074c-0.016,0.025-0.033,0.049-0.049,0.074H135.916z"
				/>
			<path fill="#C0373B" d="M145.855,106.265c-3.117-0.969-7.965,0.735-9.746,7.804c-0.148,0.387-0.305,0.379-0.445-0.014
				c-2.57-7.162-6.803-8.726-9.783-7.79c-4.41,1.423-7.982,6.681-7.656,13.39c0.088,11.713,10.568,17.609,17.645,28.807
				c7.076-11.197,17.674-17.078,17.703-28.842C154.186,112.84,150.389,107.66,145.855,106.265z"/>
		</g>
		<g>
			<path fill="#C0373B" d="M135.916,67.748c-0.016-0.025-0.031-0.049-0.047-0.074c-0.016,0.025-0.033,0.049-0.049,0.074H135.916z"/>
			<path fill="#C0373B" d="M145.855,25.478c-3.117-0.969-7.965,0.735-9.746,7.805c-0.148,0.387-0.305,0.378-0.445-0.014
				c-2.57-7.162-6.805-8.727-9.781-7.791c-4.41,1.422-7.984,6.681-7.658,13.391c0.088,11.71,10.568,17.607,17.645,28.806
				c7.076-11.198,17.674-17.079,17.703-28.84C154.186,32.055,150.391,26.873,145.855,25.478z"/>
		</g>
		<g>
			<path fill="#C0373B" d="M153.617,212.848c-0.088-11.711-10.568-17.607-17.644-28.807c-7.075,11.197-17.675,17.078-17.704,28.84
				c-0.613,6.781,3.184,11.961,7.717,13.357c3.117,0.969,7.965-0.734,9.746-7.805c0.148-0.387,0.305-0.379,0.445,0.014
				c2.57,7.162,6.803,8.727,9.783,7.791C150.371,224.816,153.943,219.557,153.617,212.848z"/>
			<path fill="#C0373B" d="M135.926,183.967c0.016,0.025,0.032,0.049,0.048,0.074c0.016-0.025,0.032-0.049,0.048-0.074H135.926z"/>
		</g>
		<g>
			<path fill="#C0373B" d="M59.398,106.265c-3.117-0.969-7.965,0.735-9.746,7.804c-0.148,0.387-0.304,0.379-0.446-0.014
				c-2.569-7.162-6.804-8.726-9.782-7.79c-4.41,1.423-7.983,6.681-7.656,13.39c0.088,11.713,10.568,17.609,17.643,28.807
				c7.076-11.197,17.674-17.078,17.704-28.841C67.728,112.84,63.931,107.66,59.398,106.265z"/>
			<path fill="#C0373B" d="M49.459,148.535c-0.016-0.025-0.032-0.049-0.048-0.074c-0.016,0.025-0.032,0.049-0.047,0.074H49.459z"/>
		</g>
		<g>
			<path fill="#C0373B" d="M102.629,59.492c-3.117-0.969-7.971,0.736-9.752,7.805c-0.148,0.387-0.305,0.378-0.445-0.014
				c-2.568-7.162-6.802-8.727-9.78-7.791c-4.409,1.423-7.982,6.682-7.655,13.391c0.087,11.711,10.565,17.607,17.64,28.806
				c7.082-11.198,17.678-17.079,17.707-28.84C110.957,66.069,107.162,60.889,102.629,59.492z"/>
			<path fill="#C0373B" d="M92.684,101.763c-0.016-0.025-0.031-0.049-0.047-0.074c-0.016,0.025-0.033,0.049-0.049,0.074H92.684z"/>
		</g>
		<path fill="#C0373B" d="M9.073,16.724v1.442H9.071v2.452l2.227-0.002l-0.002-1.486h9.345c-1.448,2.657-5.353,10.628-6.765,21.688
			l2.238-0.001c0.83-6.522,2.253-11.626,3.879-15.41c0.813-1.892,1.572-3.373,2.125-4.375c0.276-0.501,0.501-0.883,0.655-1.136
			c0.161-0.266,0.432-0.705,0.471-0.767v-2.406H9.073z"/>
		<path fill="#C0373B" d="M176.313,237.826v-1.443h0.002v-2.451l-2.227,0.002l0.002,1.486h-9.346
			c1.449-2.656,5.354-10.629,6.766-21.689l-2.238,0.002c-0.83,6.523-2.252,11.627-3.879,15.41c-0.813,1.891-1.572,3.373-2.125,4.375
			c-0.277,0.5-0.502,0.883-0.654,1.135c-0.162,0.266-0.434,0.705-0.473,0.768v2.406H176.313z"/>
	</g>
</g>
</svg>
