<?xml version="1.0" encoding="utf-8"?>
<!-- Generator: Adobe Illustrator 15.1.0, SVG Export Plug-In . SVG Version: 6.00 Build 0)  -->
<svg version="1.2" baseProfile="tiny" xmlns="http://www.w3.org/2000/svg" xmlns:xlink="http://www.w3.org/1999/xlink" x="0px"
	 y="0px" width="184px" height="254px" viewBox="0 0 184 254" xml:space="preserve">
<g id="Warstwa_1" display="none">
</g>
<g id="ace" display="none">
	<g display="inline">
		<path fill="#F8F8F7" stroke="#222221" d="M181.598,237.898c0,7.827-6.344,14.173-14.172,14.173H17.19
			c-7.828,0-14.174-6.346-14.174-14.173V16.795c0-7.827,6.346-14.173,14.174-14.173h150.236c7.828,0,14.172,6.346,14.172,14.173
			V237.898z"/>
		<path d="M15.771,45.143c-1.862,0-3.376,1.703-3.376,3.802c0,1.198,0.501,2.265,1.269,2.966c0.258,0.238,0.146,0.496-0.115,0.334
			c-0.48-0.291-1.021-0.477-1.606-0.477c-1.797,0-3.256,1.643-3.256,3.666c0,2.025,1.459,3.668,3.256,3.668
			c1.197,0,2.247-0.729,2.811-1.816c0.056-0.107,0.098-0.252,0.176-0.252c0.108,0,0.158,0.174,0.158,0.502
			c0,1.314-0.504,2.85-1.252,4.615c0.324-0.076,1.298-0.271,1.937-0.271s1.615,0.195,1.937,0.271
			c-0.744-1.766-1.25-3.301-1.25-4.615c0-0.328,0.048-0.502,0.156-0.502c0.078,0,0.124,0.145,0.176,0.252
			c0.566,1.088,1.613,1.816,2.813,1.816c1.798,0,3.256-1.643,3.256-3.668c0-2.023-1.458-3.666-3.256-3.666
			c-0.585,0-1.129,0.186-1.608,0.477c-0.263,0.162-0.374-0.096-0.116-0.334c0.771-0.701,1.269-1.768,1.269-2.966
			C19.147,46.846,17.636,45.143,15.771,45.143z"/>
		<path d="M168.844,209.552c1.861,0,3.377-1.704,3.377-3.802c0-1.2-0.504-2.264-1.268-2.967c-0.262-0.238-0.148-0.495,0.117-0.334
			c0.477,0.292,1.02,0.477,1.602,0.477c1.797,0,3.258-1.643,3.258-3.667c0-2.023-1.461-3.666-3.258-3.666
			c-1.195,0-2.246,0.729-2.811,1.816c-0.055,0.106-0.1,0.253-0.176,0.253c-0.107,0-0.158-0.176-0.158-0.504
			c0-1.313,0.506-2.851,1.256-4.615c-0.324,0.076-1.303,0.271-1.939,0.271s-1.615-0.195-1.936-0.271
			c0.744,1.765,1.252,3.302,1.252,4.615c0,0.328-0.051,0.504-0.16,0.504c-0.074,0-0.121-0.146-0.176-0.253
			c-0.563-1.088-1.613-1.816-2.811-1.816c-1.797,0-3.258,1.643-3.258,3.666c0,2.024,1.461,3.667,3.258,3.667
			c0.582,0,1.127-0.185,1.604-0.477c0.266-0.161,0.377,0.096,0.121,0.334c-0.77,0.703-1.271,1.767-1.271,2.967
			C165.467,207.848,166.98,209.552,168.844,209.552z"/>
		<path d="M92.307,106.088c-4.659,0-8.44,4.258-8.44,9.502c0,3,1.251,5.66,3.172,7.416c0.647,0.594,0.369,1.238-0.292,0.836
			c-1.198-0.729-2.552-1.191-4.015-1.191c-4.493,0-8.141,4.105-8.141,9.164c0,5.061,3.647,9.167,8.141,9.167
			c2.997,0,5.618-1.822,7.028-4.54c0.137-0.267,0.246-0.631,0.443-0.631c0.266,0,0.391,0.437,0.391,1.255
			c0,3.288-1.262,7.126-3.127,11.541c0.805-0.192,3.248-0.679,4.84-0.679c1.597,0,4.037,0.486,4.845,0.679
			c-1.867-4.415-3.131-8.253-3.131-11.541c0-0.818,0.127-1.255,0.395-1.255c0.195,0,0.305,0.364,0.439,0.631
			c1.412,2.718,4.031,4.54,7.027,4.54c4.496,0,8.141-4.106,8.141-9.167c0-5.059-3.645-9.164-8.141-9.164
			c-1.459,0-2.814,0.463-4.018,1.191c-0.654,0.402-0.936-0.242-0.285-0.836c1.918-1.756,3.168-4.416,3.168-7.416
			C100.748,110.346,96.967,106.088,92.307,106.088z"/>
		<g>
			<polygon fill="none" points="13.659,32.754 17.985,32.748 15.826,21.193 			"/>
			<path d="M21.247,38.588L17.18,16.821l-2.189-0.026l0.004,0.016l-0.545-0.004l-4.057,21.781l-1.705,0.001l-0.003,2.302h5.45
				l0.003-2.303h-1.572l0.624-3.334l5.262-0.008l0.624,3.342l-1.667-0.002l-0.004,2.303l5.45,0.002l0.003-2.303H21.247z
				 M13.659,32.754l2.167-11.561l2.159,11.555L13.659,32.754z"/>
		</g>
		<g>
			<polygon fill="none" points="170.955,221.939 166.631,221.945 168.789,233.5 			"/>
			<path d="M163.367,216.105l4.068,21.767l2.188,0.026l-0.002-0.016l0.545,0.004l4.055-21.781l1.705-0.001l0.004-2.302h-5.449
				l-0.004,2.303h1.572l-0.625,3.334l-5.26,0.008l-0.625-3.342l1.666,0.002l0.006-2.303l-5.451-0.002l-0.004,2.303H163.367z
				 M170.955,221.939l-2.166,11.561l-2.158-11.555L170.955,221.939z"/>
		</g>
	</g>
	<g display="inline">
		<path fill="#F8F8F7" stroke="#222221" d="M181.599,237.827c0,7.827-6.346,14.173-14.174,14.173H17.188
			c-7.828,0-14.173-6.346-14.173-14.173V16.725c0-7.828,6.346-14.174,14.173-14.174h150.236c7.828,0,14.174,6.346,14.174,14.174
			V237.827z"/>
		<g>
			<path fill="#C0373B" d="M19.745,45.17c-1.247-0.387-3.186,0.295-3.898,3.123c-0.06,0.154-0.122,0.15-0.178-0.006
				c-1.028-2.865-2.722-3.491-3.913-3.117c-1.764,0.569-3.194,2.673-3.063,5.356c0.035,4.685,4.228,7.044,7.058,11.524
				c2.83-4.479,7.069-6.832,7.082-11.537C23.077,47.801,21.558,45.729,19.745,45.17z"/>
			<path fill="#C0373B" d="M15.77,62.079c-0.006-0.01-0.013-0.019-0.019-0.029c-0.006,0.01-0.013,0.019-0.019,0.029H15.77z"/>
		</g>
		<g>
			<path fill="#C0373B" d="M168.863,192.501c-2.83,4.479-7.069,6.832-7.082,11.537c-0.245,2.712,1.274,4.784,3.087,5.344
				c1.246,0.387,3.186-0.296,3.898-3.123c0.061-0.155,0.123-0.15,0.179,0.006c1.028,2.865,2.722,3.49,3.911,3.117
				c1.766-0.569,3.195-2.674,3.064-5.357C175.886,199.34,171.693,196.979,168.863,192.501z"/>
			<path fill="#C0373B" d="M168.845,192.473c0.006,0.01,0.013,0.019,0.019,0.028c0.006-0.01,0.013-0.019,0.019-0.028H168.845z"/>
		</g>
		<g>
			<path fill="#C0373B" d="M92.296,148.536c-0.016-0.025-0.032-0.049-0.048-0.074c-0.016,0.025-0.032,0.049-0.048,0.074H92.296z"/>
			<path fill="#C0373B" d="M102.244,106.265c-3.116-0.969-7.975,0.735-9.755,7.803c-0.148,0.387-0.305,0.379-0.445-0.014
				c-2.569-7.16-6.802-8.725-9.78-7.789c-4.409,1.422-7.981,6.68-7.654,13.389c0.088,11.714,10.564,17.613,17.638,28.809
				c7.086-11.195,17.681-17.078,17.71-28.844C110.571,112.839,106.776,107.661,102.244,106.265z"/>
		</g>
		<path fill="#C0373B" d="M21.246,38.516l-4.067-21.767l-2.188-0.025l0.003,0.016l-0.545-0.005l-4.057,21.782H8.687l-0.002,2.302
			h5.449l0.003-2.302h-1.572l0.625-3.334l5.261-0.008l0.624,3.341l-1.667-0.001l-0.004,2.302l5.451,0.002l0.003-2.302L21.246,38.516
			z M13.658,32.682l2.166-11.56l2.159,11.554L13.658,32.682z"/>
		<path fill="#C0373B" d="M163.366,216.034l4.067,21.768l2.188,0.025l-0.003-0.016l0.545,0.004l4.057-21.781h1.704l0.004-2.303
			h-5.45l-0.003,2.303h1.572l-0.625,3.334l-5.261,0.008l-0.624-3.341l1.667,0.001l0.004-2.303l-5.45-0.002l-0.004,2.303H163.366z
			 M170.954,221.868l-2.166,11.561l-2.159-11.555L170.954,221.868z"/>
	</g>
</g>
<g id="two">
	<g>
		<path fill="#F8F8F7" stroke="#222221" d="M181.984,237.826c0,7.828-6.346,14.174-14.174,14.174H17.575
			c-7.828,0-14.173-6.346-14.173-14.174V16.724c0-7.827,6.346-14.173,14.173-14.173h150.236c7.828,0,14.174,6.346,14.174,14.173
			V237.826z"/>
		<g>
			<path fill="#C0373B" d="M20.131,45.17c-1.247-0.388-3.186,0.294-3.898,3.122c-0.06,0.154-0.122,0.151-0.178-0.006
				c-1.028-2.865-2.722-3.491-3.913-3.116c-1.765,0.568-3.194,2.672-3.063,5.356c0.036,4.684,4.228,7.043,7.058,11.523
				c2.83-4.479,7.069-6.832,7.082-11.537C23.463,47.801,21.944,45.729,20.131,45.17z"/>
			<path fill="#C0373B" d="M16.156,62.078c-0.006-0.01-0.013-0.019-0.019-0.029c-0.006,0.01-0.013,0.019-0.019,0.029H16.156z"/>
		</g>
		<g>
			<path fill="#C0373B" d="M169.25,192.499c-2.83,4.48-7.07,6.833-7.082,11.538c-0.246,2.712,1.273,4.785,3.086,5.344
				c1.246,0.387,3.186-0.295,3.898-3.123c0.061-0.154,0.123-0.15,0.178,0.006c1.029,2.864,2.723,3.49,3.912,3.117
				c1.766-0.569,3.195-2.674,3.064-5.357C176.271,199.34,172.079,196.979,169.25,192.499z"/>
			<path fill="#C0373B" d="M169.23,192.472c0.006,0.01,0.014,0.019,0.02,0.027c0.006-0.009,0.012-0.018,0.018-0.027H169.23z"/>
		</g>
		<g>
			<path fill="#C0373B" d="M92.693,183.968c0.016,0.025,0.033,0.049,0.049,0.074c0.016-0.025,0.031-0.049,0.047-0.074H92.693z"/>
			<path fill="#C0373B" d="M110.389,212.848c-0.088-11.71-10.565-17.607-17.646-28.806c-7.076,11.198-17.671,17.078-17.701,28.839
				c-0.613,6.781,3.182,11.963,7.715,13.358c3.117,0.968,7.963-0.736,9.744-7.806c0.148-0.387,0.305-0.379,0.445,0.014
				c2.572,7.162,6.811,8.728,9.789,7.792C107.143,224.816,110.715,219.558,110.389,212.848z"/>
		</g>
		<g>
			<path fill="#C0373B" d="M92.684,70.582c-0.016-0.025-0.031-0.049-0.047-0.074c-0.016,0.025-0.033,0.049-0.049,0.074H92.684z"/>
			<path fill="#C0373B" d="M102.629,28.312c-3.117-0.969-7.971,0.735-9.752,7.805c-0.148,0.387-0.305,0.378-0.445-0.015
				c-2.568-7.162-6.802-8.727-9.78-7.79c-4.409,1.422-7.982,6.681-7.655,13.391c0.088,11.71,10.566,17.607,17.64,28.806
				c7.082-11.199,17.678-17.079,17.707-28.84C110.957,34.889,107.162,29.707,102.629,28.312z"/>
		</g>
		<path fill="#C0373B" d="M23.223,37.047l-2.276-0.01l-0.009,1.448h-9.56c0.05-0.333,0.195-0.756,0.462-1.238
			c0.489-0.891,1.352-1.938,2.387-2.973c1.036-1.039,2.242-2.078,3.416-3.023l0.005-0.003l0.009-0.008
			c1.419-1.183,2.632-2.056,3.617-3.099c0.49-0.521,0.92-1.094,1.242-1.758c0.324-0.664,0.531-1.411,0.607-2.236
			c0.016-0.173,0.025-0.358,0.025-0.561c-0.001-0.561-0.066-1.239-0.253-1.972c-0.281-1.092-0.848-2.322-1.929-3.291
			c-1.079-0.973-2.652-1.607-4.676-1.601c-1.625-0.003-2.959,0.42-3.978,1.107c-0.764,0.513-1.343,1.161-1.769,1.829
			c-0.639,1.007-0.951,2.055-1.116,2.896c-0.163,0.842-0.176,1.483-0.176,1.694c0,0.038,0,0.063,0.001,0.072l1.974-0.053
			l0.303-0.004c0-0.003,0-0.008,0-0.016c-0.006-0.178,0.042-1.621,0.665-2.858c0.31-0.622,0.741-1.188,1.367-1.609
			c0.628-0.42,1.473-0.722,2.729-0.726c1.058,0.001,1.832,0.208,2.418,0.506c0.873,0.45,1.386,1.12,1.722,1.881
			c0.331,0.753,0.443,1.588,0.44,2.144c0,0.132-0.006,0.247-0.014,0.337c-0.055,0.576-0.184,1.017-0.379,1.42
			c-0.291,0.603-0.766,1.155-1.485,1.802c-0.715,0.643-1.655,1.359-2.761,2.276c-1.621,1.306-3.321,2.793-4.668,4.326
			c-0.674,0.769-1.262,1.549-1.705,2.352c-0.415,0.758-0.707,1.546-0.765,2.385H9.084l-0.008,0.145c0,0.001,0,0.001,0,0.002l0,0
			v0.007l-0.006,2.181h14.155v-1.001L23.223,37.047z"/>
		<path fill="#C0373B" d="M162.162,217.502l2.275,0.01l0.01-1.447h9.561c-0.051,0.333-0.195,0.756-0.463,1.238
			c-0.488,0.891-1.352,1.938-2.387,2.973c-1.035,1.039-2.242,2.078-3.416,3.023l-0.006,0.002l-0.008,0.008
			c-1.42,1.184-2.633,2.057-3.617,3.1c-0.49,0.521-0.92,1.094-1.242,1.758c-0.324,0.664-0.531,1.41-0.607,2.236
			c-0.016,0.172-0.025,0.358-0.025,0.561c0.002,0.561,0.066,1.239,0.254,1.972c0.281,1.091,0.848,2.322,1.93,3.291
			c1.078,0.973,2.652,1.607,4.676,1.601c1.625,0.003,2.959-0.42,3.977-1.107c0.766-0.513,1.344-1.161,1.77-1.83
			c0.639-1.006,0.951-2.054,1.115-2.895c0.164-0.842,0.178-1.483,0.178-1.694c0-0.038-0.002-0.063-0.002-0.072l-1.973,0.053
			l-0.305,0.004c0,0.003,0.002,0.008,0.002,0.016c0.006,0.178-0.043,1.621-0.666,2.858c-0.311,0.622-0.742,1.188-1.367,1.609
			c-0.629,0.42-1.473,0.722-2.729,0.726c-1.059-0.001-1.832-0.208-2.42-0.507c-0.873-0.449-1.385-1.119-1.721-1.88
			c-0.332-0.753-0.443-1.588-0.441-2.144c0-0.132,0.008-0.247,0.016-0.338c0.055-0.575,0.184-1.016,0.379-1.42
			c0.291-0.602,0.766-1.154,1.484-1.801c0.715-0.643,1.656-1.359,2.762-2.276c1.621-1.306,3.32-2.794,4.668-4.326
			c0.674-0.769,1.262-1.549,1.705-2.352c0.416-0.758,0.707-1.546,0.766-2.386h0.008l0.008-0.144c0-0.001,0-0.001,0-0.002l0,0v-0.007
			l0.006-2.181h-14.156v1.001L162.162,217.502z"/>
	</g>
</g>
</svg>
