<?xml version="1.0" encoding="utf-8"?>
<!-- Generator: Adobe Illustrator 15.1.0, SVG Export Plug-In . SVG Version: 6.00 Build 0)  -->
<svg version="1.2" baseProfile="tiny" xmlns="http://www.w3.org/2000/svg" xmlns:xlink="http://www.w3.org/1999/xlink" x="0px"
	 y="0px" width="184px" height="254px" viewBox="0 0 184 254" xml:space="preserve">
<g id="Warstwa_1" display="none">
</g>
<g id="six" display="none">
	<g display="inline">
		<path fill="#F8F8F7" stroke="#222221" d="M181.291,238.072c0,7.828-6.346,14.174-14.174,14.174H16.882
			c-7.828,0-14.173-6.346-14.173-14.174V16.973c0-7.828,6.346-14.174,14.173-14.174h150.235c7.828,0,14.174,6.346,14.174,14.174
			V238.072z"/>
		<g>
			<path fill="none" d="M17.57,26.576c-0.577-0.295-1.242-0.464-2.018-0.465c-0.015,0-0.034,0-0.056,0
				c-0.755,0.01-1.409,0.193-1.985,0.512c-0.575,0.318-1.076,0.775-1.496,1.354c-0.841,1.153-1.345,2.811-1.343,4.639
				c0,0.117,0.008,0.229,0.013,0.344c0.008,0.093,0.011,0.182,0.021,0.274l-0.011,0.001c0.106,1.537,0.605,2.834,1.351,3.763
				c0.851,1.049,1.998,1.664,3.441,1.671c0.758-0.001,1.419-0.177,2.002-0.483c0.581-0.31,1.087-0.754,1.513-1.319
				c0.85-1.127,1.365-2.75,1.364-4.572c0-1.362-0.277-2.589-0.763-3.566C19.114,27.749,18.433,27.018,17.57,26.576z"/>
			<path d="M20.728,26.292c-0.604-0.792-1.358-1.445-2.235-1.893c-0.875-0.448-1.872-0.689-2.941-0.688c-0.029,0-0.055,0-0.076,0
				c-1.074,0.012-2.074,0.284-2.949,0.769c-0.581,0.321-1.1,0.736-1.561,1.218c0.042-0.248,0.084-0.487,0.126-0.708
				c0.132-0.677,0.263-1.215,0.359-1.576c0.049-0.182,0.088-0.318,0.115-0.409c0.014-0.044,0.023-0.077,0.029-0.098
				c0.004-0.01,0.006-0.018,0.007-0.021c0-0.001,0.001-0.002,0.001-0.002v-0.002l0.01-0.029l0.006-0.026l0.002-0.005v-0.001
				c0.023-0.083,0.296-0.937,0.913-1.735c0.319-0.417,0.727-0.82,1.237-1.128c0.511-0.309,1.129-0.531,1.924-0.576
				c0.111-0.006,0.218-0.008,0.323-0.008c1.412,0.004,2.339,0.502,2.952,0.986c0.304,0.242,0.523,0.484,0.661,0.655
				c0.067,0.086,0.115,0.154,0.144,0.194c0.013,0.021,0.021,0.034,0.024,0.04c0.002,0.003,0.002,0.003,0.002,0.003l0.544-0.388
				l1.304-0.895c-0.053-0.09-0.478-0.818-1.391-1.55c-0.909-0.732-2.333-1.451-4.239-1.447c-0.14,0-0.284,0.004-0.432,0.013
				c-1.155,0.061-2.146,0.415-2.946,0.916c-1.203,0.753-1.97,1.803-2.44,2.649c-0.428,0.774-0.619,1.393-0.665,1.55
				c-0.113,0.36-1.157,3.746-1.159,8.376c0,0.85,0.044,1.748,0.127,2.671c0.096,2.108,0.758,4.013,1.9,5.436
				c1.227,1.539,3.025,2.484,5.059,2.484c0.007,0,0.015,0,0.022,0c1.071,0,2.071-0.255,2.951-0.723
				c1.324-0.699,2.363-1.864,3.057-3.267c0.695-1.405,1.056-3.053,1.058-4.785C22.55,30.007,21.936,27.883,20.728,26.292z
				 M19.001,36.866c-0.426,0.565-0.932,1.01-1.513,1.319c-0.583,0.307-1.244,0.482-2.002,0.483c-1.443-0.007-2.59-0.622-3.441-1.671
				c-0.746-0.929-1.245-2.226-1.351-3.763l0.011-0.001c-0.01-0.093-0.012-0.182-0.021-0.274c-0.005-0.114-0.013-0.227-0.013-0.344
				c-0.002-1.828,0.502-3.485,1.343-4.639c0.42-0.579,0.921-1.036,1.496-1.354c0.576-0.318,1.23-0.502,1.985-0.512
				c0.021,0,0.041,0,0.056,0c0.776,0.001,1.441,0.17,2.018,0.465c0.863,0.442,1.544,1.173,2.033,2.151
				c0.485,0.978,0.763,2.204,0.763,3.566C20.366,34.116,19.852,35.739,19.001,36.866z"/>
		</g>
		<g>
			<path fill="none" d="M166.43,228.471c0.576,0.293,1.242,0.463,2.018,0.465c0.016,0,0.033-0.002,0.057-0.002
				c0.754-0.008,1.408-0.193,1.984-0.51c0.576-0.318,1.076-0.775,1.496-1.355c0.84-1.152,1.346-2.811,1.344-4.639
				c0-0.117-0.01-0.229-0.014-0.344c-0.008-0.092-0.012-0.182-0.021-0.273l0.012-0.002c-0.105-1.537-0.605-2.834-1.352-3.762
				c-0.85-1.051-1.998-1.664-3.439-1.672c-0.76,0.002-1.42,0.176-2.002,0.484s-1.088,0.754-1.514,1.318
				c-0.85,1.127-1.365,2.75-1.363,4.572c0,1.363,0.275,2.59,0.762,3.566C164.885,227.297,165.566,228.027,166.43,228.471z"/>
			<path d="M163.271,228.754c0.604,0.791,1.359,1.445,2.234,1.893c0.877,0.447,1.871,0.689,2.941,0.688c0.029,0,0.055,0,0.076,0
				c1.074-0.012,2.074-0.283,2.949-0.768c0.58-0.322,1.1-0.736,1.561-1.219c-0.041,0.248-0.084,0.488-0.127,0.707
				c-0.131,0.678-0.262,1.215-0.357,1.578c-0.051,0.18-0.09,0.318-0.115,0.408c-0.014,0.045-0.023,0.078-0.029,0.098
				c-0.004,0.01-0.008,0.018-0.008,0.021l-0.002,0.002v0.002l-0.01,0.029l-0.006,0.025l-0.002,0.006l0,0
				c-0.023,0.084-0.297,0.936-0.912,1.736c-0.32,0.416-0.727,0.818-1.238,1.127s-1.129,0.531-1.924,0.576
				c-0.111,0.006-0.219,0.008-0.322,0.008c-1.412-0.004-2.34-0.502-2.953-0.986c-0.303-0.242-0.523-0.484-0.66-0.654
				c-0.066-0.086-0.115-0.154-0.143-0.195c-0.014-0.021-0.021-0.033-0.025-0.039c-0.002-0.004-0.002-0.004-0.002-0.004l-0.543,0.389
				l-1.305,0.895c0.053,0.09,0.479,0.818,1.391,1.549c0.91,0.732,2.334,1.451,4.24,1.447c0.139,0,0.283-0.004,0.432-0.012
				c1.154-0.061,2.146-0.416,2.945-0.916c1.203-0.754,1.971-1.803,2.439-2.65c0.428-0.773,0.619-1.393,0.664-1.549
				c0.113-0.361,1.158-3.748,1.16-8.377c0-0.85-0.043-1.748-0.127-2.672c-0.096-2.107-0.758-4.012-1.9-5.434
				c-1.227-1.541-3.025-2.484-5.059-2.484c-0.008,0-0.016,0-0.021,0c-1.072-0.002-2.072,0.254-2.953,0.721
				c-1.322,0.701-2.361,1.865-3.055,3.268c-0.695,1.406-1.057,3.053-1.059,4.785C161.449,225.039,162.063,227.162,163.271,228.754z
				 M164.998,218.18c0.426-0.564,0.932-1.01,1.514-1.318s1.242-0.482,2.002-0.484c1.441,0.008,2.59,0.621,3.439,1.672
				c0.746,0.928,1.246,2.225,1.352,3.762l-0.012,0.002c0.01,0.092,0.014,0.182,0.021,0.273c0.004,0.115,0.014,0.227,0.014,0.344
				c0.002,1.828-0.504,3.486-1.344,4.639c-0.42,0.58-0.92,1.037-1.496,1.355c-0.576,0.316-1.23,0.502-1.984,0.51
				c-0.023,0-0.041,0.002-0.057,0.002c-0.775-0.002-1.441-0.172-2.018-0.465c-0.863-0.443-1.545-1.174-2.033-2.152
				c-0.486-0.977-0.762-2.203-0.762-3.566C163.633,220.93,164.148,219.307,164.998,218.18z"/>
		</g>
		<path fill-rule="evenodd" fill="#222221" stroke="#222221" stroke-width="0.065" stroke-linejoin="round" d="M15.455,45.32
			c-0.041,0.026-0.07,0.041-0.117,0.072c-3.038,1.939-6.583,5.724-6.946,10.441c-0.173,2.244,1.263,3.798,3.118,3.832
			c1.184,0.021,2.137-0.399,2.653-1.203c0.429-0.669,0.538-1.699,0.607-1.223c0.25,1.816-0.511,3.563-0.922,5.088
			c0.459-0.167,1.035-0.251,1.613-0.253h0.01c0.577,0.002,1.152,0.086,1.61,0.253c-0.411-1.525-1.17-3.271-0.921-5.088
			c0.069-0.477,0.179,0.554,0.606,1.223c0.516,0.804,1.469,1.225,2.652,1.203c1.855-0.034,3.291-1.588,3.118-3.832
			c-0.364-4.718-3.908-8.502-6.943-10.441c-0.033-0.025-0.063-0.04-0.11-0.072H15.455z"/>
		<path fill-rule="evenodd" fill="#222221" stroke="#222221" stroke-width="0.065" stroke-linejoin="round" d="M168.525,209.727
			c-0.041-0.027-0.07-0.041-0.117-0.072c-3.039-1.939-6.584-5.725-6.947-10.441c-0.172-2.244,1.264-3.799,3.119-3.832
			c1.184-0.021,2.137,0.398,2.652,1.203c0.428,0.668,0.537,1.699,0.607,1.223c0.25-1.816-0.512-3.563-0.922-5.088
			c0.459,0.166,1.035,0.25,1.613,0.252h0.01c0.576-0.002,1.152-0.086,1.609-0.252c-0.41,1.525-1.17,3.271-0.92,5.088
			c0.068,0.477,0.178-0.555,0.605-1.223c0.516-0.805,1.469-1.225,2.654-1.203c1.855,0.033,3.291,1.588,3.117,3.832
			c-0.363,4.717-3.908,8.502-6.943,10.441c-0.033,0.023-0.063,0.039-0.111,0.072H168.525z"/>
		<path fill-rule="evenodd" fill="#222221" stroke="#222221" stroke-width="0.1625" stroke-linejoin="round" d="M48.748,28.312
			c-0.103,0.066-0.175,0.103-0.293,0.181c-7.595,4.849-16.456,14.31-17.364,26.104c-0.432,5.61,3.155,9.495,7.793,9.579
			c2.961,0.055,5.342-0.997,6.633-3.007c1.072-1.672,1.346-4.248,1.52-3.058c0.625,4.542-1.277,8.907-2.307,12.721
			c1.147-0.417,2.59-0.627,4.033-0.632h0.024c1.442,0.005,2.882,0.215,4.027,0.632c-1.028-3.813-2.927-8.179-2.303-12.721
			c0.173-1.19,0.446,1.386,1.517,3.058c1.289,2.01,3.67,3.062,6.631,3.007c4.639-0.084,8.226-3.969,7.794-9.579
			c-0.909-11.794-9.77-21.255-17.358-26.104c-0.082-0.063-0.155-0.1-0.274-0.181H48.748z"/>
		<path fill-rule="evenodd" fill="#222221" stroke="#222221" stroke-width="0.1625" stroke-linejoin="round" d="M135.203,28.311
			c-0.102,0.067-0.174,0.104-0.293,0.181c-7.596,4.85-16.455,14.311-17.363,26.104c-0.434,5.61,3.154,9.494,7.793,9.579
			c2.961,0.054,5.342-0.998,6.631-3.007c1.072-1.672,1.346-4.248,1.52-3.058c0.625,4.541-1.275,8.906-2.305,12.72
			c1.146-0.417,2.588-0.627,4.033-0.632h0.023c1.443,0.005,2.881,0.215,4.027,0.632c-1.027-3.813-2.926-8.179-2.303-12.72
			c0.174-1.19,0.447,1.386,1.518,3.058c1.289,2.009,3.67,3.061,6.631,3.007c4.639-0.085,8.225-3.969,7.793-9.579
			c-0.908-11.794-9.77-21.255-17.357-26.104c-0.084-0.062-0.156-0.099-0.275-0.181H135.203z"/>
		<path fill-rule="evenodd" fill="#222221" stroke="#222221" stroke-width="0.1625" stroke-linejoin="round" d="M48.749,106.265
			c-0.104,0.066-0.176,0.103-0.293,0.18c-7.596,4.849-16.457,14.308-17.365,26.103c-0.433,5.609,3.155,9.494,7.792,9.578
			c2.961,0.055,5.342-0.996,6.633-3.006c1.072-1.672,1.346-4.248,1.52-3.059c0.625,4.543-1.277,8.908-2.307,12.721
			c1.148-0.416,2.59-0.627,4.033-0.631h0.025c1.441,0.004,2.881,0.215,4.027,0.631c-1.029-3.813-2.928-8.178-2.303-12.721
			c0.172-1.189,0.445,1.387,1.516,3.059c1.289,2.01,3.67,3.061,6.631,3.006c4.639-0.084,8.227-3.969,7.795-9.578
			c-0.91-11.795-9.77-21.254-17.359-26.103c-0.082-0.063-0.154-0.1-0.273-0.18H48.749z"/>
		<path fill-rule="evenodd" fill="#222221" stroke="#222221" stroke-width="0.1625" stroke-linejoin="round" d="M135.203,106.265
			c-0.102,0.066-0.174,0.104-0.293,0.18c-7.596,4.849-16.455,14.308-17.363,26.103c-0.434,5.609,3.154,9.494,7.793,9.578
			c2.961,0.055,5.342-0.998,6.631-3.006c1.072-1.672,1.346-4.248,1.52-3.059c0.625,4.541-1.275,8.906-2.305,12.721
			c1.146-0.418,2.588-0.627,4.033-0.633h0.023c1.443,0.006,2.881,0.215,4.027,0.633c-1.027-3.814-2.926-8.18-2.303-12.721
			c0.174-1.189,0.447,1.387,1.518,3.059c1.289,2.008,3.67,3.061,6.631,3.006c4.639-0.084,8.225-3.969,7.793-9.578
			c-0.908-11.795-9.77-21.254-17.357-26.103c-0.084-0.061-0.156-0.099-0.275-0.18H135.203z"/>
		<path fill-rule="evenodd" fill="#222221" stroke="#222221" stroke-width="0.1625" stroke-linejoin="round" d="M48.748,226.734
			c-0.103-0.068-0.175-0.104-0.293-0.182c-7.596-4.85-16.456-14.311-17.364-26.104c-0.433-5.611,3.155-9.494,7.793-9.58
			c2.961-0.053,5.342,0.998,6.632,3.008c1.072,1.672,1.346,4.248,1.52,3.057c0.625-4.541-1.276-8.906-2.306-12.719
			c1.147,0.416,2.589,0.627,4.033,0.631h0.024c1.442-0.004,2.881-0.215,4.027-0.631c-1.028,3.813-2.927,8.178-2.303,12.719
			c0.173,1.191,0.446-1.385,1.517-3.057c1.289-2.01,3.67-3.061,6.631-3.008c4.639,0.086,8.226,3.969,7.794,9.58
			c-0.909,11.793-9.77,21.254-17.358,26.104c-0.083,0.063-0.155,0.1-0.274,0.182H48.748z"/>
		<path fill-rule="evenodd" fill="#222221" stroke="#222221" stroke-width="0.1625" stroke-linejoin="round" d="M135.203,226.734
			c-0.102-0.066-0.174-0.104-0.293-0.182c-7.596-4.848-16.455-14.309-17.363-26.104c-0.434-5.609,3.154-9.494,7.793-9.578
			c2.961-0.055,5.342,0.996,6.631,3.006c1.072,1.672,1.346,4.248,1.52,3.059c0.625-4.543-1.275-8.908-2.305-12.721
			c1.146,0.416,2.588,0.627,4.033,0.631h0.023c1.443-0.004,2.881-0.215,4.027-0.631c-1.027,3.813-2.926,8.178-2.303,12.721
			c0.174,1.189,0.447-1.387,1.518-3.059c1.289-2.01,3.67-3.061,6.631-3.006c4.639,0.084,8.225,3.969,7.793,9.578
			c-0.908,11.795-9.77,21.256-17.357,26.104c-0.084,0.063-0.156,0.1-0.275,0.182H135.203z"/>
	</g>
</g>
<g id="seven" display="none">
	<g display="inline">
		<path fill="#F8F8F7" stroke="#222221" d="M181.984,237.826c0,7.828-6.346,14.174-14.174,14.174H17.574
			c-7.828,0-14.173-6.346-14.173-14.174V16.729c0-7.828,6.346-14.174,14.173-14.174h150.236c7.828,0,14.174,6.346,14.174,14.174
			V237.826z"/>
		<path d="M9.072,16.729v1.442H9.07v2.452l2.227-0.002l-0.001-1.486h9.345c-1.449,2.657-5.353,10.628-6.766,21.688l2.238-0.001
			c0.831-6.522,2.253-11.626,3.879-15.41c0.813-1.892,1.572-3.373,2.126-4.375c0.276-0.501,0.501-0.883,0.654-1.136
			c0.161-0.266,0.433-0.705,0.472-0.767v-2.406H9.072z"/>
		<path d="M176.313,237.826v-1.441h0.002v-2.453l-2.227,0.002l0.002,1.486h-9.346c1.449-2.656,5.354-10.627,6.766-21.688h-2.238
			c-0.83,6.523-2.252,11.627-3.879,15.41c-0.813,1.893-1.572,3.373-2.125,4.375c-0.277,0.502-0.502,0.883-0.654,1.137
			c-0.162,0.266-0.434,0.705-0.473,0.766v2.406H176.313z"/>
		<path fill-rule="evenodd" fill="#222221" stroke="#222221" stroke-width="0.065" stroke-linejoin="round" d="M16.147,45.075
			c-0.041,0.027-0.07,0.042-0.117,0.072c-3.038,1.94-6.583,5.725-6.946,10.441c-0.173,2.244,1.263,3.798,3.118,3.832
			c1.184,0.021,2.137-0.399,2.653-1.203c0.429-0.668,0.538-1.699,0.607-1.223c0.25,1.816-0.511,3.563-0.922,5.088
			c0.459-0.167,1.035-0.251,1.613-0.253h0.01c0.577,0.002,1.152,0.086,1.61,0.253c-0.411-1.525-1.17-3.271-0.921-5.088
			c0.069-0.477,0.179,0.555,0.606,1.223c0.516,0.804,1.469,1.225,2.652,1.203c1.855-0.034,3.291-1.588,3.118-3.832
			c-0.364-4.717-3.908-8.501-6.943-10.441c-0.033-0.024-0.063-0.04-0.11-0.072H16.147z"/>
		<path fill-rule="evenodd" fill="#222221" stroke="#222221" stroke-width="0.065" stroke-linejoin="round" d="M169.219,209.479
			c-0.041-0.027-0.07-0.041-0.117-0.072c-3.039-1.939-6.584-5.725-6.947-10.441c-0.172-2.244,1.264-3.797,3.119-3.832
			c1.184-0.021,2.137,0.4,2.652,1.203c0.428,0.668,0.537,1.699,0.607,1.223c0.25-1.816-0.512-3.563-0.922-5.088
			c0.459,0.168,1.035,0.252,1.613,0.254h0.01c0.576-0.002,1.152-0.086,1.609-0.254c-0.41,1.525-1.17,3.271-0.92,5.088
			c0.068,0.477,0.178-0.555,0.605-1.223c0.516-0.803,1.469-1.225,2.652-1.203c1.855,0.035,3.291,1.588,3.119,3.832
			c-0.363,4.717-3.908,8.502-6.943,10.441c-0.033,0.025-0.063,0.041-0.111,0.072H169.219z"/>
		<path fill-rule="evenodd" fill="#222221" stroke="#222221" stroke-width="0.1625" stroke-linejoin="round" d="M49.44,28.068
			c-0.102,0.066-0.174,0.103-0.293,0.181c-7.596,4.849-16.456,14.31-17.364,26.104c-0.432,5.61,3.155,9.495,7.794,9.579
			c2.961,0.055,5.342-0.997,6.631-3.007c1.072-1.672,1.346-4.248,1.52-3.058c0.625,4.542-1.276,8.907-2.306,12.721
			c1.147-0.417,2.589-0.627,4.034-0.632h0.023c1.442,0.005,2.881,0.215,4.027,0.632c-1.027-3.813-2.926-8.179-2.303-12.721
			c0.174-1.19,0.446,1.386,1.517,3.058c1.289,2.01,3.671,3.062,6.631,3.007c4.639-0.084,8.226-3.969,7.794-9.579
			c-0.908-11.794-9.77-21.255-17.358-26.104c-0.083-0.063-0.155-0.1-0.274-0.181H49.44z"/>
		<path fill-rule="evenodd" fill="#222221" stroke="#222221" stroke-width="0.1625" stroke-linejoin="round" d="M135.896,28.068
			c-0.102,0.066-0.174,0.103-0.293,0.181c-7.596,4.849-16.455,14.31-17.363,26.104c-0.434,5.61,3.154,9.495,7.793,9.579
			c2.961,0.055,5.342-0.997,6.631-3.007c1.072-1.672,1.346-4.248,1.52-3.058c0.625,4.542-1.275,8.907-2.305,12.721
			c1.146-0.417,2.588-0.627,4.033-0.632h0.023c1.443,0.005,2.881,0.215,4.027,0.632c-1.027-3.813-2.926-8.179-2.303-12.721
			c0.174-1.19,0.447,1.386,1.518,3.058c1.289,2.01,3.67,3.062,6.631,3.007c4.639-0.084,8.225-3.969,7.793-9.579
			c-0.908-11.794-9.77-21.255-17.357-26.104c-0.084-0.063-0.156-0.1-0.275-0.181H135.896z"/>
		<path fill-rule="evenodd" fill="#222221" stroke="#222221" stroke-width="0.1625" stroke-linejoin="round" d="M92.668,59.249
			c-0.102,0.067-0.174,0.104-0.293,0.181C84.78,64.279,75.918,73.74,75.01,85.533c-0.432,5.61,3.156,9.495,7.795,9.58
			c2.961,0.054,5.342-0.998,6.631-3.007c1.072-1.671,1.346-4.248,1.52-3.058c0.625,4.542-1.275,8.907-2.305,12.721
			c1.146-0.418,2.588-0.627,4.033-0.633h0.023c1.443,0.006,2.881,0.215,4.027,0.633c-1.027-3.814-2.926-8.179-2.303-12.721
			c0.174-1.19,0.447,1.386,1.518,3.058c1.289,2.01,3.67,3.062,6.631,3.007c4.639-0.084,8.225-3.969,7.793-9.58
			c-0.908-11.793-9.77-21.254-17.357-26.104c-0.084-0.062-0.156-0.099-0.275-0.181H92.668z"/>
		<path fill-rule="evenodd" fill="#222221" stroke="#222221" stroke-width="0.1625" stroke-linejoin="round" d="M49.44,106.02
			c-0.102,0.066-0.174,0.104-0.293,0.18c-7.596,4.849-16.456,14.308-17.364,26.099c-0.432,5.611,3.155,9.496,7.794,9.58
			c2.961,0.055,5.342-0.998,6.631-3.008c1.072-1.672,1.346-4.248,1.52-3.057c0.625,4.541-1.276,8.906-2.306,12.721
			c1.147-0.418,2.589-0.627,4.034-0.633h0.023c1.442,0.006,2.881,0.215,4.027,0.633c-1.027-3.814-2.926-8.18-2.303-12.721
			c0.174-1.191,0.446,1.385,1.517,3.057c1.289,2.01,3.671,3.063,6.631,3.008c4.639-0.084,8.226-3.969,7.794-9.58
			c-0.908-11.792-9.77-21.25-17.358-26.099c-0.083-0.061-0.155-0.1-0.274-0.18H49.44z"/>
		<path fill-rule="evenodd" fill="#222221" stroke="#222221" stroke-width="0.1625" stroke-linejoin="round" d="M135.896,106.02
			c-0.102,0.066-0.174,0.102-0.293,0.18c-7.596,4.849-16.455,14.308-17.363,26.099c-0.434,5.611,3.154,9.496,7.793,9.58
			c2.961,0.055,5.342-0.998,6.631-3.008c1.072-1.67,1.346-4.248,1.52-3.057c0.625,4.541-1.275,8.906-2.305,12.721
			c1.146-0.418,2.588-0.627,4.033-0.633h0.023c1.443,0.006,2.881,0.215,4.027,0.633c-1.027-3.814-2.926-8.18-2.303-12.721
			c0.174-1.191,0.447,1.387,1.518,3.057c1.289,2.01,3.67,3.063,6.631,3.008c4.639-0.084,8.225-3.969,7.793-9.58
			c-0.908-11.792-9.77-21.25-17.357-26.099c-0.084-0.063-0.156-0.1-0.275-0.18H135.896z"/>
		<path fill-rule="evenodd" fill="#222221" stroke="#222221" stroke-width="0.1625" stroke-linejoin="round" d="M49.44,226.488
			c-0.102-0.066-0.174-0.104-0.293-0.182c-7.596-4.848-16.456-14.309-17.364-26.104c-0.432-5.609,3.155-9.494,7.794-9.578
			c2.961-0.055,5.342,0.996,6.631,3.006c1.072,1.672,1.346,4.248,1.52,3.059c0.625-4.543-1.276-8.908-2.306-12.721
			c1.147,0.416,2.589,0.627,4.034,0.631h0.023c1.442-0.004,2.881-0.215,4.027-0.631c-1.027,3.813-2.926,8.178-2.303,12.721
			c0.174,1.189,0.446-1.387,1.517-3.059c1.289-2.01,3.671-3.061,6.631-3.006c4.639,0.084,8.226,3.969,7.794,9.578
			c-0.908,11.795-9.77,21.256-17.358,26.104c-0.083,0.063-0.155,0.1-0.274,0.182H49.44z"/>
		<path fill-rule="evenodd" fill="#222221" stroke="#222221" stroke-width="0.1625" stroke-linejoin="round" d="M135.896,226.488
			c-0.102-0.068-0.174-0.104-0.293-0.182c-7.596-4.85-16.455-14.311-17.363-26.104c-0.432-5.609,3.154-9.494,7.793-9.58
			c2.961-0.053,5.342,0.998,6.631,3.008c1.072,1.672,1.346,4.248,1.52,3.059c0.625-4.543-1.275-8.908-2.305-12.721
			c1.146,0.416,2.588,0.627,4.033,0.631h0.023c1.443-0.004,2.881-0.215,4.029-0.631c-1.029,3.813-2.928,8.178-2.305,12.721
			c0.174,1.189,0.449-1.387,1.518-3.059c1.289-2.01,3.67-3.061,6.631-3.008c4.639,0.086,8.225,3.971,7.793,9.58
			c-0.908,11.793-9.77,21.254-17.357,26.104c-0.084,0.063-0.156,0.1-0.275,0.182H135.896z"/>
	</g>
</g>
<g id="ten" display="none">
	<g display="inline">
		<path fill="#F8F8F7" stroke="#222221" d="M181.371,237.746c0,7.827-6.346,14.173-14.174,14.173H16.96
			c-7.828,0-14.174-6.346-14.174-14.173V16.648c0-7.828,6.346-14.174,14.174-14.174h150.237c7.828,0,14.174,6.346,14.174,14.174
			V237.746z"/>
		<g>
			<path fill="none" d="M15.542,29.089L15.542,29.089c-1.355,0-2.563,0.541-3.416,1.382c-0.857,0.846-1.352,1.957-1.354,3.178
				c0.002,1.22,0.496,2.33,1.354,3.177c0.855,0.841,2.063,1.382,3.416,1.381c1.355,0.001,2.563-0.54,3.418-1.381
				c0.855-0.847,1.352-1.957,1.354-3.177c-0.002-1.221-0.498-2.332-1.354-3.178C18.104,29.63,16.897,29.088,15.542,29.089z"/>
			<path fill="none" d="M15.542,26.531c1.123,0.001,2.121-0.448,2.826-1.142c0.705-0.697,1.109-1.607,1.109-2.605
				s-0.404-1.908-1.109-2.605c-0.705-0.693-1.703-1.143-2.826-1.142l0,0c-1.123,0-2.119,0.448-2.824,1.142
				c-0.705,0.697-1.109,1.607-1.111,2.605c0.002,0.998,0.406,1.908,1.111,2.605C13.423,26.083,14.421,26.532,15.542,26.531z"/>
			<path d="M20.509,28.585c-0.369-0.363-0.781-0.68-1.219-0.953c0.186-0.146,0.367-0.299,0.537-0.465
				c1.115-1.091,1.838-2.651,1.836-4.383c0.002-1.731-0.721-3.292-1.836-4.383c-1.115-1.095-2.631-1.753-4.285-1.753
				s-3.168,0.658-4.283,1.753c-1.115,1.091-1.836,2.651-1.836,4.383s0.721,3.292,1.836,4.383c0.168,0.166,0.35,0.319,0.537,0.465
				c-0.439,0.273-0.85,0.59-1.219,0.953c-1.291,1.263-2.121,3.065-2.121,5.063c0,1.997,0.83,3.8,2.121,5.063
				c1.289,1.268,3.047,2.03,4.965,2.031c1.92-0.001,3.676-0.764,4.967-2.031c1.289-1.263,2.123-3.065,2.121-5.063
				C22.632,31.65,21.798,29.848,20.509,28.585z M12.718,20.179c0.705-0.693,1.701-1.142,2.824-1.142l0,0
				c1.123-0.001,2.121,0.448,2.826,1.142c0.705,0.697,1.109,1.607,1.109,2.605s-0.404,1.908-1.109,2.605
				c-0.705,0.693-1.703,1.143-2.826,1.142c-1.121,0.001-2.119-0.448-2.824-1.142c-0.705-0.697-1.109-1.607-1.111-2.605
				C11.608,21.786,12.013,20.876,12.718,20.179z M18.96,36.825c-0.855,0.841-2.063,1.382-3.418,1.381
				c-1.354,0.001-2.561-0.54-3.416-1.381c-0.857-0.847-1.352-1.957-1.354-3.177c0.002-1.221,0.496-2.332,1.354-3.178
				c0.854-0.841,2.061-1.382,3.416-1.382l0,0c1.355-0.001,2.563,0.541,3.418,1.382c0.855,0.846,1.352,1.957,1.354,3.178
				C20.312,34.868,19.815,35.979,18.96,36.825z"/>
		</g>
		<g>
			<path fill="none" d="M168.613,225.305h0.002c1.354,0,2.561-0.541,3.416-1.381c0.855-0.847,1.35-1.957,1.352-3.178
				c-0.002-1.221-0.496-2.331-1.352-3.178c-0.855-0.841-2.064-1.382-3.418-1.381c-1.354-0.001-2.563,0.54-3.418,1.381
				c-0.855,0.847-1.352,1.957-1.352,3.178s0.496,2.331,1.352,3.178C166.051,224.764,167.26,225.306,168.613,225.305z"/>
			<path fill="none" d="M168.613,227.862c-1.123-0.001-2.119,0.448-2.826,1.142c-0.705,0.697-1.107,1.607-1.109,2.605
				c0.002,0.998,0.404,1.908,1.109,2.605c0.707,0.693,1.703,1.143,2.826,1.142h0.002c1.121,0,2.119-0.448,2.824-1.142
				c0.705-0.697,1.109-1.607,1.109-2.605s-0.404-1.908-1.109-2.605C170.734,228.311,169.736,227.861,168.613,227.862z"/>
			<path d="M163.646,225.809c0.371,0.363,0.781,0.68,1.221,0.953c-0.188,0.146-0.369,0.299-0.537,0.465
				c-1.115,1.091-1.838,2.652-1.836,4.383c-0.002,1.731,0.721,3.293,1.836,4.383c1.113,1.096,2.629,1.753,4.283,1.754
				c1.654-0.001,3.17-0.658,4.285-1.754c1.115-1.09,1.836-2.651,1.834-4.383c0.002-1.73-0.719-3.292-1.834-4.383
				c-0.17-0.166-0.352-0.318-0.539-0.465c0.439-0.273,0.852-0.59,1.221-0.953c1.289-1.262,2.121-3.064,2.121-5.063
				s-0.832-3.801-2.121-5.063c-1.291-1.268-3.047-2.03-4.967-2.031c-1.92,0.001-3.676,0.764-4.967,2.031
				c-1.289,1.263-2.121,3.065-2.119,5.063C161.525,222.744,162.357,224.547,163.646,225.809z M171.439,234.215
				c-0.705,0.693-1.703,1.142-2.824,1.142h-0.002c-1.123,0.001-2.119-0.448-2.826-1.142c-0.705-0.697-1.107-1.607-1.109-2.605
				c0.002-0.998,0.404-1.908,1.109-2.605c0.707-0.693,1.703-1.143,2.826-1.142c1.123-0.001,2.121,0.448,2.826,1.142
				c0.705,0.697,1.109,1.607,1.109,2.605S172.145,233.518,171.439,234.215z M165.195,217.568c0.855-0.841,2.064-1.382,3.418-1.381
				c1.354-0.001,2.563,0.54,3.418,1.381c0.855,0.847,1.35,1.957,1.352,3.178c-0.002,1.221-0.496,2.331-1.352,3.178
				c-0.855,0.84-2.063,1.381-3.416,1.381h-0.002c-1.354,0.001-2.563-0.541-3.418-1.381c-0.855-0.847-1.352-1.957-1.352-3.178
				S164.34,218.415,165.195,217.568z"/>
		</g>
		<path fill-rule="evenodd" fill="#222221" stroke="#222221" stroke-width="0.065" stroke-linejoin="round" d="M15.533,44.995
			c-0.041,0.027-0.07,0.041-0.117,0.072c-3.038,1.939-6.583,5.725-6.946,10.441c-0.173,2.244,1.263,3.798,3.117,3.832
			c1.185,0.021,2.137-0.399,2.653-1.203c0.429-0.668,0.538-1.699,0.607-1.223c0.25,1.816-0.511,3.563-0.922,5.088
			c0.459-0.167,1.035-0.251,1.613-0.253h0.01c0.576,0.002,1.152,0.086,1.61,0.253c-0.411-1.525-1.17-3.271-0.921-5.088
			c0.069-0.477,0.179,0.555,0.606,1.223c0.516,0.804,1.469,1.225,2.652,1.203c1.855-0.034,3.291-1.588,3.118-3.832
			c-0.364-4.717-3.908-8.502-6.943-10.441c-0.033-0.024-0.063-0.04-0.11-0.072H15.533z"/>
		<path fill-rule="evenodd" fill="#222221" stroke="#222221" stroke-width="0.065" stroke-linejoin="round" d="M168.605,209.398
			c-0.041-0.027-0.07-0.041-0.117-0.072c-3.039-1.939-6.584-5.725-6.947-10.441c-0.172-2.244,1.264-3.797,3.117-3.832
			c1.186-0.021,2.137,0.4,2.654,1.203c0.428,0.668,0.537,1.699,0.607,1.223c0.25-1.816-0.512-3.563-0.922-5.088
			c0.459,0.168,1.035,0.252,1.613,0.254h0.01c0.576-0.002,1.152-0.086,1.609-0.254c-0.41,1.525-1.17,3.271-0.92,5.088
			c0.068,0.477,0.178-0.555,0.605-1.223c0.516-0.803,1.469-1.225,2.652-1.203c1.855,0.035,3.291,1.588,3.119,3.832
			c-0.365,4.717-3.908,8.502-6.943,10.441c-0.033,0.025-0.063,0.04-0.111,0.072H168.605z"/>
		<path fill-rule="evenodd" fill="#222221" stroke="#222221" stroke-width="0.1625" stroke-linejoin="round" d="M48.827,27.986
			c-0.104,0.067-0.176,0.104-0.293,0.181c-7.596,4.85-16.457,14.311-17.365,26.104c-0.433,5.61,3.155,9.495,7.792,9.58
			c2.961,0.054,5.342-0.998,6.633-3.008c1.072-1.671,1.346-4.248,1.52-3.058c0.625,4.542-1.277,8.907-2.307,12.721
			c1.148-0.417,2.59-0.627,4.033-0.632h0.025c1.441,0.005,2.881,0.215,4.027,0.632c-1.029-3.813-2.928-8.179-2.303-12.721
			c0.172-1.19,0.445,1.387,1.516,3.058c1.289,2.01,3.67,3.062,6.631,3.008c4.639-0.085,8.227-3.97,7.795-9.58
			c-0.91-11.793-9.77-21.254-17.359-26.104c-0.082-0.062-0.154-0.1-0.273-0.181H48.827z"/>
		<path fill-rule="evenodd" fill="#222221" stroke="#222221" stroke-width="0.1625" stroke-linejoin="round" d="M135.283,27.986
			c-0.102,0.067-0.174,0.104-0.293,0.181c-7.596,4.85-16.455,14.311-17.363,26.104c-0.434,5.61,3.154,9.495,7.793,9.58
			c2.961,0.054,5.342-0.998,6.631-3.008c1.072-1.671,1.346-4.248,1.52-3.058c0.625,4.542-1.275,8.907-2.305,12.721
			c1.146-0.417,2.588-0.627,4.033-0.632h0.023c1.443,0.005,2.881,0.215,4.027,0.632c-1.027-3.813-2.926-8.179-2.303-12.721
			c0.174-1.19,0.447,1.387,1.518,3.058c1.289,2.01,3.67,3.062,6.631,3.008c4.639-0.085,8.225-3.97,7.793-9.58
			c-0.908-11.793-9.77-21.254-17.357-26.104c-0.084-0.062-0.156-0.1-0.275-0.181H135.283z"/>
		<path fill-rule="evenodd" fill="#222221" stroke="#222221" stroke-width="0.1625" stroke-linejoin="round" d="M92.053,69.089
			c-0.101,0.067-0.173,0.104-0.292,0.181c-7.594,4.85-16.455,14.311-17.363,26.104c-0.432,5.61,3.156,9.495,7.793,9.581
			c2.961,0.053,5.342-0.998,6.631-3.008c1.072-1.672,1.346-4.249,1.52-3.058c0.625,4.542-1.275,8.907-2.305,12.718
			c1.146-0.416,2.588-0.627,4.033-0.631h0.023c1.444,0.004,2.882,0.215,4.029,0.631c-1.028-3.812-2.927-8.176-2.304-12.718
			c0.174-1.19,0.447,1.386,1.518,3.058c1.29,2.01,3.671,3.061,6.632,3.008c4.639-0.086,8.225-3.971,7.793-9.581
			C108.852,83.58,99.99,74.119,92.4,69.27c-0.084-0.062-0.156-0.1-0.275-0.181H92.053z"/>
		<path fill-rule="evenodd" fill="#222221" stroke="#222221" stroke-width="0.1625" stroke-linejoin="round" d="M48.827,105.939
			c-0.104,0.066-0.176,0.104-0.293,0.18c-7.596,4.849-16.457,14.308-17.365,26.1c-0.433,5.611,3.155,9.496,7.792,9.58
			c2.961,0.055,5.342-0.998,6.633-3.008c1.072-1.671,1.346-4.248,1.52-3.057c0.625,4.541-1.277,8.906-2.307,12.721
			c1.148-0.418,2.59-0.627,4.033-0.633h0.025c1.441,0.006,2.881,0.215,4.027,0.633c-1.029-3.814-2.928-8.18-2.303-12.721
			c0.172-1.191,0.445,1.386,1.516,3.057c1.289,2.01,3.67,3.063,6.631,3.008c4.639-0.084,8.227-3.969,7.795-9.58
			c-0.91-11.792-9.77-21.251-17.359-26.1c-0.082-0.062-0.154-0.1-0.273-0.18H48.827z"/>
		<path fill-rule="evenodd" fill="#222221" stroke="#222221" stroke-width="0.1625" stroke-linejoin="round" d="M132.449,105.939
			c-0.104,0.066-0.176,0.104-0.293,0.18c-7.596,4.849-16.457,14.308-17.365,26.1c-0.432,5.61,3.156,9.495,7.793,9.58
			c2.961,0.054,5.342-0.998,6.633-3.008c1.072-1.672,1.346-4.248,1.52-3.058c0.625,4.542-1.277,8.907-2.307,12.721
			c1.148-0.417,2.59-0.627,4.033-0.632h0.025c1.441,0.005,2.881,0.215,4.027,0.632c-1.029-3.813-2.928-8.179-2.303-12.721
			c0.172-1.19,0.445,1.386,1.516,3.058c1.289,2.01,3.67,3.062,6.631,3.008c4.639-0.085,8.227-3.97,7.795-9.58
			c-0.91-11.792-9.77-21.251-17.359-26.1c-0.082-0.061-0.154-0.099-0.273-0.18H132.449z"/>
		<path fill-rule="evenodd" fill="#222221" stroke="#222221" stroke-width="0.1625" stroke-linejoin="round" d="M92.053,185.305
			c-0.101-0.067-0.173-0.104-0.292-0.182c-7.596-4.849-16.455-14.31-17.363-26.104c-0.434-5.609,3.154-9.494,7.793-9.579
			c2.961-0.054,5.342,0.997,6.631,3.007c1.072,1.672,1.346,4.248,1.52,3.059c0.625-4.543-1.275-8.908-2.305-12.721
			c1.146,0.416,2.588,0.627,4.033,0.631h0.023c1.444-0.004,2.882-0.215,4.029-0.631c-1.028,3.813-2.927,8.178-2.304,12.721
			c0.174,1.189,0.447-1.387,1.518-3.059c1.29-2.01,3.671-3.061,6.632-3.007c4.639,0.085,8.225,3.97,7.793,9.579
			c-0.908,11.794-9.77,21.255-17.359,26.104c-0.084,0.063-0.156,0.1-0.275,0.182H92.053z"/>
		<path fill-rule="evenodd" fill="#222221" stroke="#222221" stroke-width="0.1625" stroke-linejoin="round" d="M48.825,226.406
			c-0.102-0.066-0.174-0.104-0.293-0.18c-7.596-4.85-16.455-14.311-17.363-26.104c-0.434-5.61,3.154-9.495,7.792-9.579
			c2.961-0.055,5.342,0.997,6.631,3.007c1.072,1.671,1.346,4.248,1.52,3.058c0.625-4.542-1.275-8.907-2.305-12.721
			c1.146,0.417,2.588,0.627,4.033,0.632h0.023c1.443-0.005,2.881-0.215,4.027-0.632c-1.027,3.813-2.926,8.179-2.303,12.721
			c0.174,1.19,0.447-1.387,1.518-3.058c1.289-2.01,3.67-3.062,6.631-3.007c4.639,0.084,8.225,3.969,7.793,9.579
			c-0.908,11.794-9.77,21.255-17.357,26.104c-0.084,0.061-0.156,0.099-0.275,0.18H48.825z"/>
		<path fill-rule="evenodd" fill="#222221" stroke="#222221" stroke-width="0.1625" stroke-linejoin="round" d="M135.283,226.406
			c-0.102-0.066-0.174-0.103-0.293-0.18c-7.596-4.85-16.455-14.311-17.363-26.104c-0.434-5.611,3.154-9.496,7.793-9.58
			c2.961-0.055,5.342,0.998,6.631,3.008c1.072,1.671,1.346,4.248,1.52,3.057c0.625-4.541-1.275-8.906-2.305-12.721
			c1.146,0.418,2.588,0.627,4.033,0.633h0.023c1.443-0.006,2.881-0.215,4.027-0.633c-1.027,3.814-2.926,8.18-2.303,12.721
			c0.174,1.191,0.447-1.386,1.518-3.057c1.289-2.01,3.67-3.063,6.631-3.008c4.639,0.084,8.225,3.969,7.793,9.58
			c-0.908,11.793-9.77,21.254-17.357,26.104c-0.084,0.063-0.156,0.1-0.275,0.18H135.283z"/>
	</g>
</g>
<g id="nine">
	<g>
		<path fill="#F8F8F7" stroke="#222221" d="M181,237.283c0,7.826-6.346,14.172-14.174,14.172H16.59
			c-7.828,0-14.174-6.346-14.174-14.172V16.185c0-7.828,6.346-14.174,14.174-14.174h150.236c7.828,0,14.174,6.346,14.174,14.174
			V237.283z"/>
		<g>
			<path fill="none" d="M15.217,18.483c-0.746,0.001-1.395,0.168-1.967,0.463s-1.069,0.721-1.486,1.262
				c-0.835,1.079-1.34,2.634-1.339,4.377c-0.001,1.306,0.271,2.479,0.748,3.415c0.479,0.938,1.148,1.637,1.997,2.06
				c0.565,0.282,1.22,0.444,1.981,0.444c0.015,0,0.032,0,0.055,0c0.742-0.009,1.385-0.186,1.95-0.489
				c0.565-0.306,1.056-0.742,1.469-1.296c0.825-1.104,1.32-2.691,1.319-4.441c-0.001-1.732-0.52-3.188-1.349-4.194
				C17.76,19.078,16.633,18.489,15.217,18.483z"/>
			<path d="M22.063,23.56c-0.127-1.936-0.774-3.681-1.857-4.997c-1.205-1.473-2.972-2.378-4.97-2.378c-0.006,0-0.014,0-0.02,0
				c-1.053,0-2.035,0.244-2.901,0.691c-1.299,0.671-2.318,1.785-2.999,3.129c-0.683,1.345-1.038,2.921-1.039,4.579
				c0.001,2.189,0.604,4.223,1.791,5.744c0.593,0.76,1.334,1.385,2.194,1.813c0.861,0.429,1.839,0.659,2.889,0.658
				c0.028,0,0.055,0,0.075,0c1.055-0.01,2.037-0.271,2.896-0.735c0.73-0.394,1.363-0.933,1.9-1.568
				c-0.068,1.604-0.325,3.524-1.059,4.932c-0.383,0.739-0.872,1.338-1.538,1.771c-0.667,0.431-1.535,0.716-2.752,0.718
				c-0.887-0.001-1.581-0.208-2.157-0.512c-0.859-0.453-1.463-1.153-1.85-1.751c-0.192-0.298-0.328-0.566-0.413-0.753
				c-0.042-0.093-0.071-0.165-0.089-0.211c-0.01-0.021-0.016-0.037-0.018-0.045l-0.025,0.011L8.086,35.45
				c0.032,0.089,0.416,1.232,1.428,2.423c0.506,0.594,1.176,1.197,2.036,1.653s1.91,0.755,3.124,0.754c0.004,0,0.009,0,0.013,0
				c1.534,0,2.833-0.382,3.87-1.057c0.78-0.505,1.403-1.167,1.886-1.897c0.723-1.098,1.141-2.34,1.396-3.549
				c0.255-1.211,0.348-2.397,0.385-3.409c0.025-0.706,0.035-1.394,0.035-2.042C22.259,25.943,22.093,23.895,22.063,23.56z
				 M18.625,28.718c-0.413,0.554-0.903,0.99-1.469,1.296c-0.565,0.304-1.208,0.48-1.95,0.489c-0.022,0-0.04,0-0.055,0
				c-0.762,0-1.416-0.162-1.981-0.444c-0.849-0.423-1.518-1.122-1.997-2.06c-0.477-0.936-0.749-2.109-0.748-3.415
				c-0.001-1.743,0.504-3.298,1.339-4.377c0.417-0.541,0.914-0.967,1.486-1.262s1.221-0.462,1.967-0.463
				c1.416,0.006,2.543,0.595,3.379,1.6c0.829,1.006,1.348,2.462,1.349,4.194C19.945,26.027,19.45,27.614,18.625,28.718z"/>
		</g>
		<g>
			<path fill="none" d="M168.199,234.984c0.746,0,1.395-0.168,1.967-0.463s1.068-0.721,1.486-1.262
				c0.834-1.078,1.34-2.633,1.338-4.377c0.002-1.305-0.271-2.479-0.748-3.414c-0.479-0.938-1.148-1.637-1.996-2.061
				c-0.566-0.281-1.221-0.443-1.982-0.443c-0.014,0-0.031,0-0.055,0c-0.742,0.008-1.385,0.186-1.949,0.488
				c-0.566,0.307-1.057,0.742-1.469,1.297c-0.826,1.104-1.32,2.691-1.32,4.441c0.002,1.732,0.52,3.188,1.35,4.193
				C165.656,234.391,166.783,234.979,168.199,234.984z"/>
			<path d="M161.352,229.908c0.127,1.936,0.775,3.68,1.857,4.996c1.205,1.473,2.973,2.379,4.971,2.379c0.006,0,0.014,0,0.02,0
				c1.053,0,2.035-0.244,2.9-0.691c1.299-0.672,2.318-1.785,3-3.129c0.682-1.346,1.037-2.922,1.039-4.58
				c-0.002-2.189-0.605-4.223-1.791-5.744c-0.594-0.76-1.334-1.385-2.195-1.813c-0.861-0.43-1.838-0.66-2.889-0.658
				c-0.027,0-0.055,0-0.074,0c-1.055,0.01-2.037,0.27-2.896,0.734c-0.73,0.395-1.363,0.934-1.9,1.568
				c0.068-1.604,0.326-3.523,1.059-4.932c0.383-0.738,0.873-1.338,1.539-1.771c0.666-0.43,1.535-0.715,2.752-0.717
				c0.887,0,1.58,0.207,2.156,0.512c0.859,0.453,1.463,1.152,1.85,1.75c0.193,0.299,0.328,0.566,0.414,0.754
				c0.041,0.092,0.07,0.164,0.088,0.211c0.01,0.021,0.016,0.037,0.018,0.045l0.025-0.012l2.037-0.793
				c-0.033-0.088-0.416-1.232-1.428-2.422c-0.506-0.594-1.176-1.197-2.037-1.654c-0.859-0.455-1.91-0.754-3.123-0.754
				c-0.004,0-0.01,0-0.014,0c-1.533,0-2.832,0.383-3.869,1.057c-0.781,0.506-1.404,1.168-1.887,1.898
				c-0.723,1.098-1.141,2.34-1.396,3.549c-0.254,1.211-0.348,2.396-0.385,3.408c-0.025,0.707-0.035,1.395-0.035,2.043
				C161.156,227.525,161.322,229.572,161.352,229.908z M164.791,224.75c0.412-0.555,0.902-0.99,1.469-1.297
				c0.564-0.303,1.207-0.48,1.949-0.488c0.023,0,0.041,0,0.055,0c0.762,0,1.416,0.162,1.982,0.443
				c0.848,0.424,1.518,1.123,1.996,2.061c0.477,0.936,0.75,2.109,0.748,3.414c0.002,1.744-0.504,3.299-1.338,4.377
				c-0.418,0.541-0.914,0.967-1.486,1.262s-1.221,0.463-1.967,0.463c-1.416-0.006-2.543-0.594-3.379-1.6
				c-0.83-1.006-1.348-2.461-1.35-4.193C163.471,227.441,163.965,225.854,164.791,224.75z"/>
		</g>
		<path fill-rule="evenodd" fill="#222221" stroke="#222221" stroke-width="0.065" stroke-linejoin="round" d="M15.163,44.531
			c-0.041,0.027-0.07,0.041-0.117,0.072c-3.038,1.939-6.583,5.725-6.946,10.441c-0.173,2.244,1.263,3.798,3.118,3.832
			c1.184,0.021,2.137-0.399,2.652-1.203c0.429-0.668,0.538-1.699,0.607-1.223c0.25,1.816-0.511,3.563-0.922,5.088
			c0.459-0.167,1.035-0.251,1.613-0.253h0.01c0.577,0.002,1.152,0.086,1.61,0.253c-0.411-1.525-1.17-3.271-0.921-5.088
			c0.069-0.477,0.179,0.555,0.606,1.223c0.516,0.804,1.469,1.225,2.652,1.203c1.855-0.034,3.291-1.588,3.118-3.832
			c-0.363-4.717-3.908-8.502-6.943-10.441c-0.033-0.024-0.063-0.04-0.11-0.072H15.163z"/>
		<path fill-rule="evenodd" fill="#222221" stroke="#222221" stroke-width="0.065" stroke-linejoin="round" d="M168.234,208.936
			c-0.041-0.027-0.07-0.041-0.117-0.072c-3.039-1.939-6.584-5.725-6.947-10.441c-0.172-2.244,1.264-3.797,3.119-3.832
			c1.184-0.021,2.137,0.4,2.652,1.203c0.428,0.668,0.537,1.699,0.607,1.223c0.25-1.816-0.512-3.563-0.922-5.088
			c0.459,0.168,1.035,0.252,1.613,0.254h0.01c0.576-0.002,1.152-0.086,1.609-0.254c-0.41,1.525-1.17,3.271-0.92,5.088
			c0.068,0.477,0.178-0.555,0.605-1.223c0.516-0.803,1.469-1.225,2.652-1.203c1.855,0.035,3.291,1.588,3.119,3.832
			c-0.363,4.717-3.908,8.502-6.943,10.441c-0.033,0.025-0.063,0.041-0.111,0.072H168.234z"/>
		<path fill-rule="evenodd" fill="#222221" stroke="#222221" stroke-width="0.1625" stroke-linejoin="round" d="M48.455,27.524
			c-0.102,0.066-0.174,0.103-0.293,0.181c-7.595,4.849-16.456,14.31-17.364,26.104c-0.432,5.61,3.155,9.495,7.794,9.579
			c2.961,0.055,5.342-0.997,6.632-3.007c1.072-1.672,1.346-4.248,1.52-3.058c0.625,4.542-1.277,8.907-2.307,12.721
			c1.147-0.417,2.59-0.627,4.034-0.632h0.023c1.442,0.005,2.882,0.215,4.027,0.632c-1.027-3.813-2.926-8.179-2.303-12.721
			c0.174-1.19,0.446,1.386,1.517,3.058c1.289,2.01,3.671,3.062,6.631,3.007c4.639-0.084,8.227-3.969,7.794-9.579
			c-0.908-11.794-9.77-21.255-17.358-26.104c-0.082-0.063-0.155-0.1-0.274-0.181H48.455z"/>
		<path fill-rule="evenodd" fill="#222221" stroke="#222221" stroke-width="0.1625" stroke-linejoin="round" d="M134.912,27.524
			c-0.102,0.066-0.174,0.103-0.293,0.181c-7.596,4.849-16.457,14.31-17.365,26.104c-0.432,5.61,3.156,9.495,7.795,9.579
			c2.961,0.055,5.342-0.997,6.631-3.007c1.072-1.672,1.346-4.248,1.52-3.058c0.625,4.542-1.277,8.907-2.307,12.721
			c1.148-0.417,2.59-0.627,4.035-0.632h0.023c1.441,0.005,2.881,0.215,4.027,0.632c-1.027-3.813-2.926-8.179-2.303-12.721
			c0.174-1.19,0.445,1.386,1.516,3.058c1.289,2.01,3.672,3.062,6.631,3.007c4.639-0.084,8.227-3.969,7.795-9.579
			c-0.908-11.794-9.77-21.255-17.359-26.104c-0.082-0.063-0.154-0.1-0.273-0.181H134.912z"/>
		<path fill-rule="evenodd" fill="#222221" stroke="#222221" stroke-width="0.1625" stroke-linejoin="round" d="M48.455,79.492
			c-0.102,0.067-0.174,0.104-0.293,0.181c-7.595,4.85-16.456,14.311-17.364,26.104c-0.432,5.608,3.155,9.493,7.794,9.577
			c2.961,0.055,5.342-0.998,6.632-3.006c1.072-1.672,1.346-4.248,1.52-3.059c0.625,4.541-1.277,8.905-2.307,12.719
			c1.147-0.418,2.59-0.627,4.034-0.633h0.023c1.442,0.006,2.882,0.215,4.027,0.633c-1.027-3.813-2.926-8.178-2.303-12.719
			c0.174-1.189,0.446,1.387,1.517,3.059c1.289,2.008,3.671,3.061,6.631,3.006c4.639-0.084,8.227-3.969,7.794-9.577
			c-0.908-11.793-9.77-21.254-17.358-26.104c-0.082-0.062-0.155-0.099-0.274-0.181H48.455z"/>
		<path fill-rule="evenodd" fill="#222221" stroke="#222221" stroke-width="0.1625" stroke-linejoin="round" d="M134.912,79.492
			c-0.102,0.067-0.174,0.104-0.293,0.181c-7.596,4.85-16.457,14.311-17.365,26.104c-0.432,5.608,3.156,9.493,7.795,9.577
			c2.961,0.055,5.342-0.998,6.631-3.006c1.072-1.672,1.346-4.248,1.52-3.059c0.625,4.541-1.277,8.905-2.307,12.719
			c1.148-0.418,2.59-0.627,4.035-0.633h0.023c1.441,0.006,2.881,0.215,4.027,0.633c-1.027-3.813-2.926-8.178-2.303-12.719
			c0.174-1.189,0.445,1.387,1.516,3.059c1.289,2.008,3.672,3.061,6.631,3.006c4.639-0.084,8.227-3.969,7.795-9.577
			c-0.908-11.793-9.77-21.254-17.359-26.104c-0.082-0.062-0.154-0.099-0.273-0.181H134.912z"/>
		<path fill-rule="evenodd" fill="#222221" stroke="#222221" stroke-width="0.1625" stroke-linejoin="round" d="M91.684,105.476
			c-0.102,0.066-0.174,0.104-0.293,0.18c-7.595,4.849-16.456,14.308-17.364,26.101c-0.432,5.611,3.155,9.494,7.794,9.58
			c2.961,0.053,5.342-0.998,6.632-3.008c1.072-1.672,1.346-4.248,1.52-3.057c0.625,4.541-1.277,8.906-2.307,12.719
			c1.147-0.416,2.59-0.627,4.034-0.631h0.023c1.443,0.004,2.883,0.215,4.027,0.631c-1.027-3.813-2.926-8.178-2.303-12.719
			c0.174-1.191,0.447,1.385,1.518,3.057c1.289,2.01,3.67,3.061,6.631,3.008c4.639-0.086,8.227-3.969,7.793-9.58
			c-0.908-11.793-9.77-21.252-17.358-26.101c-0.082-0.061-0.155-0.099-0.274-0.18H91.684z"/>
		<path fill-rule="evenodd" fill="#222221" stroke="#222221" stroke-width="0.1625" stroke-linejoin="round" d="M48.455,173.977
			c-0.102-0.068-0.174-0.104-0.293-0.182c-7.595-4.85-16.456-14.311-17.364-26.104c-0.432-5.611,3.155-9.494,7.794-9.58
			c2.961-0.053,5.342,0.998,6.632,3.008c1.072,1.672,1.346,4.248,1.52,3.057c0.625-4.541-1.277-8.906-2.307-12.719
			c1.147,0.416,2.59,0.627,4.034,0.631h0.023c1.442-0.004,2.882-0.215,4.027-0.631c-1.027,3.813-2.926,8.178-2.303,12.719
			c0.174,1.191,0.446-1.385,1.517-3.057c1.289-2.01,3.671-3.061,6.631-3.008c4.639,0.086,8.227,3.969,7.794,9.58
			c-0.908,11.793-9.77,21.254-17.358,26.104c-0.082,0.063-0.155,0.1-0.274,0.182H48.455z"/>
		<path fill-rule="evenodd" fill="#222221" stroke="#222221" stroke-width="0.1625" stroke-linejoin="round" d="M134.912,173.977
			c-0.102-0.068-0.174-0.104-0.293-0.182c-7.594-4.85-16.455-14.311-17.363-26.104c-0.432-5.611,3.154-9.494,7.793-9.58
			c2.961-0.053,5.342,0.998,6.633,3.008c1.072,1.672,1.346,4.248,1.52,3.057c0.625-4.541-1.277-8.906-2.307-12.719
			c1.146,0.416,2.59,0.627,4.033,0.631h0.023c1.443-0.004,2.883-0.215,4.027-0.631c-1.027,3.813-2.926,8.178-2.303,12.719
			c0.174,1.191,0.447-1.385,1.518-3.057c1.289-2.01,3.67-3.061,6.631-3.008c4.639,0.086,8.227,3.969,7.793,9.58
			c-0.908,11.793-9.77,21.254-17.357,26.104c-0.082,0.063-0.156,0.1-0.275,0.182H134.912z"/>
		<path fill-rule="evenodd" fill="#222221" stroke="#222221" stroke-width="0.1625" stroke-linejoin="round" d="M48.455,225.943
			c-0.102-0.066-0.174-0.102-0.293-0.18c-7.595-4.85-16.456-14.311-17.364-26.104c-0.432-5.611,3.155-9.496,7.794-9.58
			c2.961-0.055,5.342,0.998,6.632,3.008c1.072,1.672,1.346,4.248,1.52,3.057c0.625-4.541-1.277-8.906-2.307-12.721
			c1.147,0.418,2.59,0.627,4.034,0.633h0.023c1.442-0.006,2.882-0.215,4.027-0.633c-1.027,3.814-2.926,8.18-2.303,12.721
			c0.174,1.191,0.446-1.385,1.517-3.057c1.289-2.01,3.671-3.063,6.631-3.008c4.639,0.084,8.227,3.969,7.794,9.58
			c-0.908,11.793-9.77,21.254-17.358,26.104c-0.082,0.063-0.155,0.1-0.274,0.18H48.455z"/>
		<path fill-rule="evenodd" fill="#222221" stroke="#222221" stroke-width="0.1625" stroke-linejoin="round" d="M134.912,225.943
			c-0.102-0.066-0.174-0.104-0.293-0.18c-7.594-4.85-16.455-14.311-17.363-26.104c-0.432-5.611,3.154-9.496,7.793-9.58
			c2.961-0.055,5.342,0.998,6.633,3.008c1.072,1.672,1.346,4.248,1.52,3.057c0.625-4.541-1.277-8.906-2.307-12.721
			c1.146,0.418,2.59,0.627,4.033,0.633h0.023c1.443-0.006,2.883-0.215,4.027-0.633c-1.027,3.814-2.926,8.18-2.303,12.721
			c0.174,1.191,0.447-1.385,1.518-3.057c1.289-2.01,3.67-3.063,6.631-3.008c4.639,0.084,8.227,3.969,7.793,9.58
			c-0.908,11.793-9.77,21.254-17.357,26.104c-0.082,0.063-0.156,0.1-0.275,0.18H134.912z"/>
	</g>
</g>
</svg>
