<?xml version="1.0" encoding="utf-8"?>
<!-- Generator: Adobe Illustrator 15.1.0, SVG Export Plug-In . SVG Version: 6.00 Build 0)  -->
<svg version="1.2" baseProfile="tiny" xmlns="http://www.w3.org/2000/svg" xmlns:xlink="http://www.w3.org/1999/xlink" x="0px"
	 y="0px" width="184px" height="254px" viewBox="0 0 184 254" xml:space="preserve">
<g id="Warstwa_1" display="none">
</g>
<g id="four" display="none">
	<g display="inline">
		<path fill="#F8F8F7" stroke="#222221" d="M181.757,237.671c0,7.827-6.346,14.173-14.174,14.173H17.347
			c-7.828,0-14.174-6.346-14.174-14.173V16.568c0-7.828,6.346-14.174,14.174-14.174h150.236c7.828,0,14.174,6.346,14.174,14.174
			V237.671z"/>
		<g>
			<path fill-rule="evenodd" d="M17.246,58.057c-0.427-0.669-0.536-1.699-0.605-1.224c-0.249,1.817,0.509,3.563,0.918,5.09
				c-0.923-0.337-2.325-0.337-3.249,0c0.448-1.552,1.157-3.172,0.988-5.09c-0.076-0.434-0.187,0.523-0.635,1.206
				c-0.573,0.871-1.602,1.25-2.619,1.223c-1.478-0.04-2.964-0.954-3.173-2.563c-0.049-0.371-0.026-0.835,0-1.205
				c0.331-4.686,3.995-8.8,7.063-10.579c0.057,0.012,0.07,0.066,0.142,0.066c3.026,1.94,6.56,5.727,6.922,10.445
				c0.173,2.245-0.945,3.871-3.108,3.884C18.709,59.318,17.76,58.86,17.246,58.057z"/>
		</g>
		<g>
			<path fill-rule="evenodd" d="M167.685,196.183c0.426,0.668,0.535,1.699,0.604,1.221c0.248-1.816-0.508-3.563-0.918-5.088
				c0.924,0.338,2.326,0.338,3.248,0c-0.449,1.552-1.156,3.172-0.988,5.088c0.076,0.436,0.188-0.521,0.635-1.203
				c0.574-0.872,1.604-1.252,2.621-1.224c1.477,0.04,2.963,0.954,3.172,2.562c0.049,0.372,0.025,0.836,0,1.206
				c-0.332,4.687-3.994,8.8-7.064,10.579c-0.057-0.014-0.07-0.067-0.141-0.066c-3.025-1.941-6.561-5.727-6.922-10.445
				c-0.172-2.244,0.945-3.871,3.109-3.883C166.22,194.919,167.169,195.378,167.685,196.183z"/>
		</g>
		<g>
			<g>
				<polygon points="176.073,221.492 176.087,222.103 167.21,237.669 166.976,237.667 165.509,236.091 174.46,220.357 				"/>
			</g>
			<g>
				<polygon points="167.134,237.669 164.899,237.671 164.888,213.63 167.124,213.628 167.134,237.669 				"/>
			</g>
			<g>
				<polygon points="168.622,215.967 163.384,215.985 163.378,213.594 168.612,213.575 168.622,215.967 				"/>
			</g>
			<g>
				<polygon points="176.087,219.712 176.087,222.103 161.913,222.103 161.913,219.712 176.087,219.712 				"/>
			</g>
		</g>
		<path fill-rule="evenodd" fill="#222221" stroke="#222221" stroke-width="0.1625" stroke-linejoin="round" d="M49.213,27.907
			c-0.103,0.067-0.175,0.104-0.293,0.181c-7.596,4.85-16.456,14.311-17.364,26.104c-0.433,5.609,3.155,9.494,7.793,9.579
			c2.961,0.054,5.342-0.998,6.632-3.008c1.072-1.671,1.346-4.247,1.52-3.058c0.625,4.542-1.276,8.907-2.306,12.721
			c1.147-0.417,2.589-0.627,4.033-0.632h0.024c1.442,0.005,2.881,0.215,4.026,0.632c-1.027-3.813-2.926-8.179-2.302-12.721
			c0.173-1.189,0.446,1.387,1.517,3.058c1.288,2.01,3.67,3.062,6.63,3.008c4.639-0.085,8.227-3.97,7.794-9.579
			c-0.908-11.794-9.77-21.255-17.357-26.104c-0.083-0.063-0.155-0.1-0.274-0.181H49.213z"/>
		<path fill-rule="evenodd" fill="#222221" stroke="#222221" stroke-width="0.1625" stroke-linejoin="round" d="M135.669,27.907
			c-0.102,0.067-0.174,0.104-0.293,0.181c-7.596,4.85-16.455,14.311-17.363,26.104c-0.434,5.609,3.154,9.494,7.793,9.579
			c2.961,0.054,5.342-0.998,6.631-3.008c1.072-1.671,1.346-4.247,1.52-3.058c0.625,4.542-1.275,8.907-2.305,12.721
			c1.146-0.417,2.588-0.627,4.033-0.632h0.023c1.443,0.005,2.881,0.215,4.027,0.632c-1.027-3.813-2.926-8.179-2.303-12.721
			c0.174-1.189,0.447,1.387,1.518,3.058c1.287,2.01,3.67,3.062,6.629,3.008c4.639-0.085,8.227-3.97,7.795-9.579
			c-0.908-11.794-9.77-21.255-17.357-26.104c-0.084-0.063-0.156-0.1-0.275-0.181H135.669z"/>
		<path fill-rule="evenodd" fill="#222221" stroke="#222221" stroke-width="0.1625" stroke-linejoin="round" d="M49.212,226.332
			c-0.102-0.067-0.174-0.104-0.293-0.181c-7.595-4.85-16.456-14.311-17.364-26.104c-0.432-5.61,3.155-9.494,7.794-9.579
			c2.961-0.054,5.342,0.998,6.632,3.008c1.072,1.671,1.346,4.247,1.52,3.057c0.625-4.541-1.277-8.906-2.307-12.72
			c1.147,0.417,2.59,0.627,4.034,0.632h0.023c1.442-0.005,2.882-0.215,4.027-0.632c-1.027,3.813-2.926,8.179-2.303,12.72
			c0.174,1.19,0.446-1.386,1.517-3.057c1.289-2.01,3.671-3.062,6.631-3.008c4.639,0.085,8.227,3.969,7.794,9.579
			c-0.908,11.794-9.77,21.255-17.358,26.104c-0.082,0.062-0.155,0.1-0.274,0.181H49.212z"/>
		<path fill-rule="evenodd" fill="#222221" stroke="#222221" stroke-width="0.1625" stroke-linejoin="round" d="M135.669,226.332
			c-0.102-0.067-0.174-0.104-0.293-0.181c-7.596-4.85-16.455-14.311-17.363-26.104c-0.434-5.61,3.154-9.494,7.793-9.579
			c2.961-0.054,5.342,0.998,6.631,3.008c1.072,1.671,1.346,4.247,1.52,3.057c0.625-4.541-1.275-8.906-2.305-12.72
			c1.146,0.417,2.588,0.627,4.033,0.632h0.023c1.443-0.005,2.881-0.215,4.027-0.632c-1.027,3.813-2.926,8.179-2.303,12.72
			c0.174,1.19,0.447-1.386,1.518-3.057c1.287-2.01,3.67-3.062,6.629-3.008c4.639,0.085,8.227,3.969,7.795,9.579
			c-0.908,11.794-9.77,21.255-17.357,26.104c-0.084,0.062-0.156,0.1-0.275,0.181H135.669z"/>
		<g>
			<g>
				<polygon points="8.856,32.746 8.843,32.136 17.719,16.569 17.953,16.571 19.421,18.147 10.469,33.881 				"/>
			</g>
			<g>
				<polygon points="17.796,16.569 20.03,16.568 20.041,40.608 17.806,40.61 17.796,16.569 				"/>
			</g>
			<g>
				<polygon points="16.308,38.271 21.545,38.253 21.552,40.645 16.316,40.663 16.308,38.271 				"/>
			</g>
			<g>
				<polygon points="8.843,34.527 8.843,32.136 23.016,32.136 23.016,34.527 8.843,34.527 				"/>
			</g>
		</g>
	</g>
</g>
<g id="five" display="none">
	<g display="inline">
		<path fill="#F8F8F7" stroke="#222221" d="M182.142,237.826c0,7.828-6.346,14.174-14.174,14.174H17.731
			c-7.827,0-14.173-6.346-14.173-14.174V16.724c0-7.827,6.346-14.173,14.173-14.173h150.236c7.828,0,14.174,6.346,14.174,14.173
			V237.826z"/>
		<path stroke="#222221" d="M21.292,25.684c-1.312-1.621-3.192-2.676-5.286-2.675c-1.31-0.001-2.536,0.417-3.592,1.122L12.41,19.1
			h9.365v-2.376H10.17v0.831h-0.012l0.007,9.732l2.251-0.001c0.757-1.089,2.402-1.9,3.59-1.901c1.367,0.001,2.621,0.674,3.578,1.846
			c0.951,1.169,1.566,2.828,1.565,4.683c0.001,1.855-0.614,3.514-1.565,4.684c-0.957,1.171-2.211,1.844-3.578,1.845
			c-1.013-0.001-1.951-0.366-2.768-1.027c-0.813-0.661-1.49-1.624-1.909-2.78l-2.102,0.852c0.559,1.536,1.469,2.859,2.636,3.811
			c1.166,0.949,2.602,1.523,4.143,1.522c0,0,0.002,0,0.004,0c2.093,0,3.972-1.056,5.282-2.675c1.318-1.624,2.107-3.823,2.108-6.23
			C23.399,29.507,22.61,27.308,21.292,25.684z"/>
		<path stroke="#222221" d="M164.407,228.865c1.311,1.621,3.191,2.676,5.285,2.676c1.311,0,2.537-0.417,3.594-1.123l0.002,5.031
			h-9.365v2.377h11.605v-0.831h0.012l-0.006-9.733l-2.252,0.002c-0.756,1.088-2.402,1.9-3.59,1.9c-1.367,0-2.621-0.674-3.578-1.846
			c-0.951-1.168-1.566-2.828-1.564-4.682c-0.002-1.855,0.613-3.514,1.564-4.684c0.957-1.172,2.211-1.844,3.578-1.846
			c1.014,0.002,1.951,0.367,2.768,1.027c0.814,0.662,1.49,1.625,1.91,2.781l2.102-0.852c-0.559-1.537-1.469-2.859-2.637-3.811
			c-1.166-0.949-2.602-1.523-4.143-1.522c0,0-0.002,0-0.004,0c-2.092,0-3.971,1.056-5.281,2.675
			c-1.318,1.623-2.107,3.822-2.109,6.23C162.3,225.043,163.089,227.242,164.407,228.865z"/>
		<path fill-rule="evenodd" fill="#222221" stroke="#222221" stroke-width="0.065" stroke-linejoin="round" d="M16.305,45.07
			c-0.041,0.026-0.07,0.041-0.117,0.072c-3.038,1.939-6.583,5.724-6.946,10.441c-0.173,2.244,1.263,3.798,3.118,3.832
			c1.184,0.021,2.137-0.399,2.652-1.203c0.429-0.669,0.538-1.699,0.607-1.223c0.25,1.816-0.511,3.563-0.922,5.088
			c0.459-0.167,1.035-0.251,1.613-0.253h0.01c0.576,0.002,1.152,0.086,1.61,0.253c-0.411-1.525-1.17-3.271-0.921-5.088
			c0.069-0.477,0.179,0.554,0.606,1.223c0.516,0.804,1.469,1.225,2.652,1.203c1.855-0.034,3.291-1.588,3.118-3.832
			c-0.363-4.718-3.908-8.502-6.943-10.441c-0.033-0.025-0.063-0.04-0.11-0.072H16.305z"/>
		<path fill-rule="evenodd" fill="#222221" stroke="#222221" stroke-width="0.065" stroke-linejoin="round" d="M169.376,209.48
			c-0.041-0.027-0.07-0.041-0.117-0.072c-3.037-1.939-6.582-5.725-6.945-10.441c-0.174-2.244,1.262-3.799,3.117-3.832
			c1.184-0.021,2.137,0.398,2.652,1.203c0.43,0.668,0.539,1.699,0.607,1.223c0.25-1.816-0.51-3.563-0.922-5.088
			c0.459,0.166,1.035,0.25,1.613,0.252h0.01c0.576-0.002,1.152-0.086,1.611-0.252c-0.412,1.525-1.17,3.271-0.922,5.088
			c0.07,0.477,0.18-0.555,0.607-1.223c0.516-0.805,1.469-1.225,2.65-1.203c1.855,0.033,3.291,1.588,3.119,3.832
			c-0.363,4.717-3.908,8.502-6.943,10.441c-0.033,0.024-0.063,0.039-0.109,0.072H169.376z"/>
		<path fill-rule="evenodd" fill="#222221" stroke="#222221" stroke-width="0.1625" stroke-linejoin="round" d="M49.597,28.063
			c-0.102,0.067-0.174,0.104-0.293,0.181c-7.595,4.85-16.456,14.311-17.364,26.104c-0.432,5.61,3.155,9.494,7.794,9.579
			c2.961,0.054,5.342-0.998,6.632-3.007c1.072-1.672,1.346-4.248,1.52-3.058c0.625,4.541-1.277,8.906-2.307,12.72
			c1.147-0.417,2.59-0.627,4.034-0.632h0.023c1.442,0.005,2.882,0.215,4.027,0.632c-1.027-3.813-2.926-8.179-2.303-12.72
			c0.174-1.19,0.446,1.386,1.517,3.058c1.289,2.009,3.671,3.061,6.631,3.007c4.639-0.085,8.227-3.969,7.794-9.579
			c-0.908-11.794-9.77-21.255-17.358-26.104c-0.082-0.062-0.155-0.1-0.274-0.181H49.597z"/>
		<path fill-rule="evenodd" fill="#222221" stroke="#222221" stroke-width="0.1625" stroke-linejoin="round" d="M136.054,28.063
			c-0.102,0.067-0.174,0.104-0.293,0.181c-7.596,4.85-16.455,14.311-17.363,26.104c-0.434,5.61,3.154,9.494,7.793,9.579
			c2.961,0.054,5.342-0.998,6.631-3.007c1.072-1.672,1.346-4.248,1.52-3.058c0.625,4.541-1.275,8.906-2.305,12.72
			c1.146-0.417,2.588-0.627,4.033-0.632h0.023c1.443,0.005,2.881,0.215,4.027,0.632c-1.027-3.813-2.926-8.179-2.303-12.72
			c0.174-1.19,0.447,1.386,1.518,3.058c1.289,2.009,3.67,3.061,6.631,3.007c4.639-0.085,8.227-3.969,7.793-9.579
			c-0.908-11.794-9.77-21.255-17.357-26.104c-0.084-0.062-0.156-0.1-0.275-0.181H136.054z"/>
		<path fill-rule="evenodd" fill="#222221" stroke="#222221" stroke-width="0.1625" stroke-linejoin="round" d="M92.825,106.016
			c-0.102,0.067-0.174,0.103-0.293,0.181c-7.595,4.849-16.456,14.31-17.364,26.104c-0.432,5.609,3.155,9.494,7.794,9.578
			c2.961,0.055,5.342-0.997,6.631-3.006c1.072-1.672,1.346-4.248,1.52-3.059c0.625,4.542-1.275,8.907-2.305,12.721
			c1.146-0.417,2.588-0.627,4.033-0.632h0.023c1.443,0.005,2.881,0.215,4.027,0.632c-1.027-3.813-2.926-8.179-2.303-12.721
			c0.174-1.189,0.447,1.387,1.518,3.059c1.289,2.009,3.67,3.061,6.631,3.006c4.639-0.084,8.227-3.969,7.793-9.578
			c-0.908-11.795-9.77-21.256-17.357-26.104c-0.084-0.063-0.156-0.1-0.275-0.181H92.825z"/>
		<path fill-rule="evenodd" fill="#222221" stroke="#222221" stroke-width="0.1625" stroke-linejoin="round" d="M49.597,226.488
			c-0.102-0.068-0.174-0.104-0.293-0.182c-7.595-4.849-16.456-14.31-17.364-26.104c-0.432-5.61,3.155-9.494,7.794-9.579
			c2.961-0.054,5.342,0.997,6.632,3.007c1.072,1.672,1.346,4.248,1.52,3.058c0.625-4.542-1.277-8.907-2.307-12.72
			c1.147,0.416,2.59,0.627,4.034,0.631h0.023c1.442-0.004,2.882-0.215,4.027-0.631c-1.027,3.813-2.926,8.178-2.303,12.72
			c0.174,1.19,0.446-1.386,1.517-3.058c1.289-2.01,3.671-3.061,6.631-3.007c4.639,0.085,8.227,3.969,7.794,9.579
			c-0.908,11.794-9.77,21.255-17.358,26.104c-0.082,0.063-0.155,0.1-0.274,0.182H49.597z"/>
		<path fill-rule="evenodd" fill="#222221" stroke="#222221" stroke-width="0.1625" stroke-linejoin="round" d="M136.054,226.488
			c-0.102-0.067-0.174-0.104-0.293-0.182c-7.594-4.849-16.455-14.31-17.363-26.104c-0.432-5.61,3.154-9.494,7.793-9.579
			c2.961-0.054,5.342,0.997,6.633,3.007c1.072,1.672,1.346,4.248,1.52,3.058c0.625-4.542-1.277-8.907-2.307-12.72
			c1.146,0.416,2.59,0.627,4.033,0.631h0.023c1.443-0.004,2.883-0.215,4.027-0.631c-1.027,3.813-2.926,8.178-2.303,12.72
			c0.174,1.19,0.447-1.386,1.518-3.058c1.289-2.01,3.67-3.061,6.631-3.007c4.639,0.085,8.227,3.969,7.793,9.579
			c-0.908,11.794-9.77,21.255-17.357,26.104c-0.082,0.063-0.156,0.1-0.275,0.182H136.054z"/>
	</g>
</g>
<g id="six">
	<g>
		<path fill="#F8F8F7" stroke="#222221" d="M181.291,238.072c0,7.828-6.346,14.174-14.174,14.174H16.882
			c-7.828,0-14.173-6.346-14.173-14.174V16.973c0-7.828,6.346-14.174,14.173-14.174h150.235c7.828,0,14.174,6.346,14.174,14.174
			V238.072z"/>
		<g>
			<path fill="none" d="M17.57,26.576c-0.577-0.295-1.242-0.464-2.018-0.465c-0.015,0-0.034,0-0.056,0
				c-0.755,0.01-1.409,0.193-1.985,0.512c-0.575,0.318-1.076,0.775-1.496,1.354c-0.841,1.153-1.345,2.811-1.343,4.639
				c0,0.117,0.008,0.229,0.013,0.344c0.008,0.093,0.011,0.182,0.021,0.274l-0.011,0.001c0.106,1.537,0.605,2.834,1.351,3.763
				c0.851,1.049,1.998,1.664,3.441,1.671c0.758-0.001,1.419-0.177,2.002-0.483c0.581-0.31,1.087-0.754,1.513-1.319
				c0.85-1.127,1.365-2.75,1.364-4.572c0-1.362-0.277-2.589-0.763-3.566C19.114,27.749,18.433,27.018,17.57,26.576z"/>
			<path d="M20.728,26.292c-0.604-0.792-1.358-1.445-2.235-1.893c-0.875-0.448-1.872-0.689-2.941-0.688c-0.029,0-0.055,0-0.076,0
				c-1.074,0.012-2.074,0.284-2.949,0.769c-0.581,0.321-1.1,0.736-1.561,1.218c0.042-0.248,0.084-0.487,0.126-0.708
				c0.132-0.677,0.263-1.215,0.359-1.576c0.049-0.182,0.088-0.318,0.115-0.409c0.014-0.044,0.023-0.077,0.029-0.098
				c0.004-0.01,0.006-0.018,0.007-0.021c0-0.001,0.001-0.002,0.001-0.002v-0.002l0.01-0.029l0.006-0.026l0.002-0.005v-0.001
				c0.023-0.083,0.296-0.937,0.913-1.735c0.319-0.417,0.727-0.82,1.237-1.128c0.511-0.309,1.129-0.531,1.924-0.576
				c0.111-0.006,0.218-0.008,0.323-0.008c1.412,0.004,2.339,0.502,2.952,0.986c0.304,0.242,0.523,0.484,0.661,0.655
				c0.067,0.086,0.115,0.154,0.144,0.194c0.013,0.021,0.021,0.034,0.024,0.04c0.002,0.003,0.002,0.003,0.002,0.003l0.544-0.388
				l1.304-0.895c-0.053-0.09-0.478-0.818-1.391-1.55c-0.909-0.732-2.333-1.451-4.239-1.447c-0.14,0-0.284,0.004-0.432,0.013
				c-1.155,0.061-2.146,0.415-2.946,0.916c-1.203,0.753-1.97,1.803-2.44,2.649c-0.428,0.774-0.619,1.393-0.665,1.55
				c-0.113,0.36-1.157,3.746-1.159,8.376c0,0.85,0.044,1.748,0.127,2.671c0.096,2.108,0.758,4.013,1.9,5.436
				c1.227,1.539,3.025,2.484,5.059,2.484c0.007,0,0.015,0,0.022,0c1.071,0,2.071-0.255,2.951-0.723
				c1.324-0.699,2.363-1.864,3.057-3.267c0.695-1.405,1.056-3.053,1.058-4.785C22.55,30.007,21.936,27.883,20.728,26.292z
				 M19.001,36.866c-0.426,0.565-0.932,1.01-1.513,1.319c-0.583,0.307-1.244,0.482-2.002,0.483c-1.443-0.007-2.59-0.622-3.441-1.671
				c-0.746-0.929-1.245-2.226-1.351-3.763l0.011-0.001c-0.01-0.093-0.012-0.182-0.021-0.274c-0.005-0.114-0.013-0.227-0.013-0.344
				c-0.002-1.828,0.502-3.485,1.343-4.639c0.42-0.579,0.921-1.036,1.496-1.354c0.576-0.318,1.23-0.502,1.985-0.512
				c0.021,0,0.041,0,0.056,0c0.776,0.001,1.441,0.17,2.018,0.465c0.863,0.442,1.544,1.173,2.033,2.151
				c0.485,0.978,0.763,2.204,0.763,3.566C20.366,34.116,19.852,35.739,19.001,36.866z"/>
		</g>
		<g>
			<path fill="none" d="M166.43,228.471c0.576,0.293,1.242,0.463,2.018,0.465c0.016,0,0.033-0.002,0.057-0.002
				c0.754-0.008,1.408-0.193,1.984-0.51c0.576-0.318,1.076-0.775,1.496-1.355c0.84-1.152,1.346-2.811,1.344-4.639
				c0-0.117-0.01-0.229-0.014-0.344c-0.008-0.092-0.012-0.182-0.021-0.273l0.012-0.002c-0.105-1.537-0.605-2.834-1.352-3.762
				c-0.85-1.051-1.998-1.664-3.439-1.672c-0.76,0.002-1.42,0.176-2.002,0.484s-1.088,0.754-1.514,1.318
				c-0.85,1.127-1.365,2.75-1.363,4.572c0,1.363,0.275,2.59,0.762,3.566C164.885,227.297,165.566,228.027,166.43,228.471z"/>
			<path d="M163.271,228.754c0.604,0.791,1.359,1.445,2.234,1.893c0.877,0.447,1.871,0.689,2.941,0.688c0.029,0,0.055,0,0.076,0
				c1.074-0.012,2.074-0.283,2.949-0.768c0.58-0.322,1.1-0.736,1.561-1.219c-0.041,0.248-0.084,0.488-0.127,0.707
				c-0.131,0.678-0.262,1.215-0.357,1.578c-0.051,0.18-0.09,0.318-0.115,0.408c-0.014,0.045-0.023,0.078-0.029,0.098
				c-0.004,0.01-0.008,0.018-0.008,0.021l-0.002,0.002v0.002l-0.01,0.029l-0.006,0.025l-0.002,0.006l0,0
				c-0.023,0.084-0.297,0.936-0.912,1.736c-0.32,0.416-0.727,0.818-1.238,1.127s-1.129,0.531-1.924,0.576
				c-0.111,0.006-0.219,0.008-0.322,0.008c-1.412-0.004-2.34-0.502-2.953-0.986c-0.303-0.242-0.523-0.484-0.66-0.654
				c-0.066-0.086-0.115-0.154-0.143-0.195c-0.014-0.021-0.021-0.033-0.025-0.039c-0.002-0.004-0.002-0.004-0.002-0.004l-0.543,0.389
				l-1.305,0.895c0.053,0.09,0.479,0.818,1.391,1.549c0.91,0.732,2.334,1.451,4.24,1.447c0.139,0,0.283-0.004,0.432-0.012
				c1.154-0.061,2.146-0.416,2.945-0.916c1.203-0.754,1.971-1.803,2.439-2.65c0.428-0.773,0.619-1.393,0.664-1.549
				c0.113-0.361,1.158-3.748,1.16-8.377c0-0.85-0.043-1.748-0.127-2.672c-0.096-2.107-0.758-4.012-1.9-5.434
				c-1.227-1.541-3.025-2.484-5.059-2.484c-0.008,0-0.016,0-0.021,0c-1.072-0.002-2.072,0.254-2.953,0.721
				c-1.322,0.701-2.361,1.865-3.055,3.268c-0.695,1.406-1.057,3.053-1.059,4.785C161.449,225.039,162.063,227.162,163.271,228.754z
				 M164.998,218.18c0.426-0.564,0.932-1.01,1.514-1.318s1.242-0.482,2.002-0.484c1.441,0.008,2.59,0.621,3.439,1.672
				c0.746,0.928,1.246,2.225,1.352,3.762l-0.012,0.002c0.01,0.092,0.014,0.182,0.021,0.273c0.004,0.115,0.014,0.227,0.014,0.344
				c0.002,1.828-0.504,3.486-1.344,4.639c-0.42,0.58-0.92,1.037-1.496,1.355c-0.576,0.316-1.23,0.502-1.984,0.51
				c-0.023,0-0.041,0.002-0.057,0.002c-0.775-0.002-1.441-0.172-2.018-0.465c-0.863-0.443-1.545-1.174-2.033-2.152
				c-0.486-0.977-0.762-2.203-0.762-3.566C163.633,220.93,164.148,219.307,164.998,218.18z"/>
		</g>
		<path fill-rule="evenodd" fill="#222221" stroke="#222221" stroke-width="0.065" stroke-linejoin="round" d="M15.455,45.32
			c-0.041,0.026-0.07,0.041-0.117,0.072c-3.038,1.939-6.583,5.724-6.946,10.441c-0.173,2.244,1.263,3.798,3.118,3.832
			c1.184,0.021,2.137-0.399,2.653-1.203c0.429-0.669,0.538-1.699,0.607-1.223c0.25,1.816-0.511,3.563-0.922,5.088
			c0.459-0.167,1.035-0.251,1.613-0.253h0.01c0.577,0.002,1.152,0.086,1.61,0.253c-0.411-1.525-1.17-3.271-0.921-5.088
			c0.069-0.477,0.179,0.554,0.606,1.223c0.516,0.804,1.469,1.225,2.652,1.203c1.855-0.034,3.291-1.588,3.118-3.832
			c-0.364-4.718-3.908-8.502-6.943-10.441c-0.033-0.025-0.063-0.04-0.11-0.072H15.455z"/>
		<path fill-rule="evenodd" fill="#222221" stroke="#222221" stroke-width="0.065" stroke-linejoin="round" d="M168.525,209.727
			c-0.041-0.027-0.07-0.041-0.117-0.072c-3.039-1.939-6.584-5.725-6.947-10.441c-0.172-2.244,1.264-3.799,3.119-3.832
			c1.184-0.021,2.137,0.398,2.652,1.203c0.428,0.668,0.537,1.699,0.607,1.223c0.25-1.816-0.512-3.563-0.922-5.088
			c0.459,0.166,1.035,0.25,1.613,0.252h0.01c0.576-0.002,1.152-0.086,1.609-0.252c-0.41,1.525-1.17,3.271-0.92,5.088
			c0.068,0.477,0.178-0.555,0.605-1.223c0.516-0.805,1.469-1.225,2.654-1.203c1.855,0.033,3.291,1.588,3.117,3.832
			c-0.363,4.717-3.908,8.502-6.943,10.441c-0.033,0.023-0.063,0.039-0.111,0.072H168.525z"/>
		<path fill-rule="evenodd" fill="#222221" stroke="#222221" stroke-width="0.1625" stroke-linejoin="round" d="M48.748,28.312
			c-0.103,0.066-0.175,0.103-0.293,0.181c-7.595,4.849-16.456,14.31-17.364,26.104c-0.432,5.61,3.155,9.495,7.793,9.579
			c2.961,0.055,5.342-0.997,6.633-3.007c1.072-1.672,1.346-4.248,1.52-3.058c0.625,4.542-1.277,8.907-2.307,12.721
			c1.147-0.417,2.59-0.627,4.033-0.632h0.024c1.442,0.005,2.882,0.215,4.027,0.632c-1.028-3.813-2.927-8.179-2.303-12.721
			c0.173-1.19,0.446,1.386,1.517,3.058c1.289,2.01,3.67,3.062,6.631,3.007c4.639-0.084,8.226-3.969,7.794-9.579
			c-0.909-11.794-9.77-21.255-17.358-26.104c-0.082-0.063-0.155-0.1-0.274-0.181H48.748z"/>
		<path fill-rule="evenodd" fill="#222221" stroke="#222221" stroke-width="0.1625" stroke-linejoin="round" d="M135.203,28.311
			c-0.102,0.067-0.174,0.104-0.293,0.181c-7.596,4.85-16.455,14.311-17.363,26.104c-0.434,5.61,3.154,9.494,7.793,9.579
			c2.961,0.054,5.342-0.998,6.631-3.007c1.072-1.672,1.346-4.248,1.52-3.058c0.625,4.541-1.275,8.906-2.305,12.72
			c1.146-0.417,2.588-0.627,4.033-0.632h0.023c1.443,0.005,2.881,0.215,4.027,0.632c-1.027-3.813-2.926-8.179-2.303-12.72
			c0.174-1.19,0.447,1.386,1.518,3.058c1.289,2.009,3.67,3.061,6.631,3.007c4.639-0.085,8.225-3.969,7.793-9.579
			c-0.908-11.794-9.77-21.255-17.357-26.104c-0.084-0.062-0.156-0.099-0.275-0.181H135.203z"/>
		<path fill-rule="evenodd" fill="#222221" stroke="#222221" stroke-width="0.1625" stroke-linejoin="round" d="M48.749,106.265
			c-0.104,0.066-0.176,0.103-0.293,0.18c-7.596,4.849-16.457,14.308-17.365,26.103c-0.433,5.609,3.155,9.494,7.792,9.578
			c2.961,0.055,5.342-0.996,6.633-3.006c1.072-1.672,1.346-4.248,1.52-3.059c0.625,4.543-1.277,8.908-2.307,12.721
			c1.148-0.416,2.59-0.627,4.033-0.631h0.025c1.441,0.004,2.881,0.215,4.027,0.631c-1.029-3.813-2.928-8.178-2.303-12.721
			c0.172-1.189,0.445,1.387,1.516,3.059c1.289,2.01,3.67,3.061,6.631,3.006c4.639-0.084,8.227-3.969,7.795-9.578
			c-0.91-11.795-9.77-21.254-17.359-26.103c-0.082-0.063-0.154-0.1-0.273-0.18H48.749z"/>
		<path fill-rule="evenodd" fill="#222221" stroke="#222221" stroke-width="0.1625" stroke-linejoin="round" d="M135.203,106.265
			c-0.102,0.066-0.174,0.104-0.293,0.18c-7.596,4.849-16.455,14.308-17.363,26.103c-0.434,5.609,3.154,9.494,7.793,9.578
			c2.961,0.055,5.342-0.998,6.631-3.006c1.072-1.672,1.346-4.248,1.52-3.059c0.625,4.541-1.275,8.906-2.305,12.721
			c1.146-0.418,2.588-0.627,4.033-0.633h0.023c1.443,0.006,2.881,0.215,4.027,0.633c-1.027-3.814-2.926-8.18-2.303-12.721
			c0.174-1.189,0.447,1.387,1.518,3.059c1.289,2.008,3.67,3.061,6.631,3.006c4.639-0.084,8.225-3.969,7.793-9.578
			c-0.908-11.795-9.77-21.254-17.357-26.103c-0.084-0.061-0.156-0.099-0.275-0.18H135.203z"/>
		<path fill-rule="evenodd" fill="#222221" stroke="#222221" stroke-width="0.1625" stroke-linejoin="round" d="M48.748,226.734
			c-0.103-0.068-0.175-0.104-0.293-0.182c-7.596-4.85-16.456-14.311-17.364-26.104c-0.433-5.611,3.155-9.494,7.793-9.58
			c2.961-0.053,5.342,0.998,6.632,3.008c1.072,1.672,1.346,4.248,1.52,3.057c0.625-4.541-1.276-8.906-2.306-12.719
			c1.147,0.416,2.589,0.627,4.033,0.631h0.024c1.442-0.004,2.881-0.215,4.027-0.631c-1.028,3.813-2.927,8.178-2.303,12.719
			c0.173,1.191,0.446-1.385,1.517-3.057c1.289-2.01,3.67-3.061,6.631-3.008c4.639,0.086,8.226,3.969,7.794,9.58
			c-0.909,11.793-9.77,21.254-17.358,26.104c-0.083,0.063-0.155,0.1-0.274,0.182H48.748z"/>
		<path fill-rule="evenodd" fill="#222221" stroke="#222221" stroke-width="0.1625" stroke-linejoin="round" d="M135.203,226.734
			c-0.102-0.066-0.174-0.104-0.293-0.182c-7.596-4.848-16.455-14.309-17.363-26.104c-0.434-5.609,3.154-9.494,7.793-9.578
			c2.961-0.055,5.342,0.996,6.631,3.006c1.072,1.672,1.346,4.248,1.52,3.059c0.625-4.543-1.275-8.908-2.305-12.721
			c1.146,0.416,2.588,0.627,4.033,0.631h0.023c1.443-0.004,2.881-0.215,4.027-0.631c-1.027,3.813-2.926,8.178-2.303,12.721
			c0.174,1.189,0.447-1.387,1.518-3.059c1.289-2.01,3.67-3.061,6.631-3.006c4.639,0.084,8.225,3.969,7.793,9.578
			c-0.908,11.795-9.77,21.256-17.357,26.104c-0.084,0.063-0.156,0.1-0.275,0.182H135.203z"/>
	</g>
</g>
</svg>
