<?xml version="1.0" encoding="utf-8"?>
<!-- Generator: Adobe Illustrator 15.1.0, SVG Export Plug-In . SVG Version: 6.00 Build 0)  -->
<svg version="1.2" baseProfile="tiny" xmlns="http://www.w3.org/2000/svg" xmlns:xlink="http://www.w3.org/1999/xlink" x="0px"
	 y="0px" width="184px" height="254px" viewBox="0 0 184 254" xml:space="preserve">
<g id="Warstwa_1" display="none">
</g>
<g id="ace" display="none">
	<g display="inline">
		<path fill="#F8F8F7" stroke="#222221" d="M181.599,237.826c0,7.828-6.346,14.174-14.173,14.174H17.189
			c-7.828,0-14.174-6.346-14.174-14.174V16.724c0-7.827,6.346-14.173,14.174-14.173h150.236c7.827,0,14.173,6.346,14.173,14.173
			V237.826z"/>
		<path fill-rule="evenodd" fill="#222221" stroke="#222221" stroke-width="0.065" stroke-linejoin="round" d="M15.763,45.07
			c-0.041,0.027-0.07,0.042-0.117,0.072c-3.039,1.94-6.583,5.725-6.946,10.441c-0.173,2.244,1.262,3.798,3.117,3.832
			c1.185,0.021,2.137-0.399,2.653-1.203c0.429-0.668,0.538-1.699,0.607-1.223c0.25,1.816-0.511,3.563-0.922,5.088
			c0.459-0.167,1.035-0.251,1.613-0.253h0.01c0.576,0.002,1.152,0.086,1.61,0.253c-0.411-1.525-1.17-3.271-0.921-5.088
			c0.069-0.477,0.179,0.555,0.606,1.223c0.516,0.804,1.469,1.225,2.652,1.203c1.855-0.034,3.291-1.588,3.118-3.832
			c-0.364-4.717-3.908-8.501-6.943-10.441c-0.033-0.024-0.063-0.039-0.11-0.072H15.763z"/>
		<path fill-rule="evenodd" fill="#222221" stroke="#222221" stroke-width="0.065" stroke-linejoin="round" d="M168.833,209.48
			c-0.041-0.027-0.07-0.041-0.117-0.072c-3.038-1.939-6.583-5.725-6.946-10.441c-0.173-2.244,1.263-3.797,3.118-3.832
			c1.184-0.021,2.137,0.4,2.652,1.203c0.429,0.668,0.538,1.699,0.607,1.223c0.25-1.816-0.511-3.563-0.922-5.088
			c0.459,0.168,1.035,0.252,1.613,0.254h0.01c0.577-0.002,1.152-0.086,1.61-0.254c-0.411,1.525-1.17,3.271-0.921,5.088
			c0.069,0.477,0.179-0.555,0.606-1.223c0.516-0.803,1.469-1.225,2.652-1.203c1.855,0.035,3.291,1.588,3.118,3.832
			c-0.363,4.717-3.908,8.502-6.943,10.441c-0.033,0.025-0.063,0.041-0.11,0.072H168.833z"/>
		<g>
			<polygon fill="none" points="166.73,221.869 171.056,221.875 168.896,233.428 			"/>
			<path d="M175.93,216.033l-0.004-2.301l-5.45,0.002l0.004,2.301h1.667l-0.624,3.34l-5.261-0.008l-0.625-3.334h1.572l-0.003-2.301
				h-5.449l0.002,2.301h1.705l4.057,21.781l0.545-0.004l-0.003,0.016l2.188-0.025l4.067-21.766L175.93,216.033z M171.056,221.875
				l-2.159,11.553l-2.166-11.559L171.056,221.875z"/>
		</g>
		<g>
			<polygon fill="none" points="13.659,32.682 17.984,32.676 15.825,21.122 			"/>
			<path d="M21.247,38.517L17.18,16.75l-2.188-0.026l0.003,0.016l-0.545-0.004l-4.057,21.781l-1.705,0.001l-0.002,2.301h5.45
				l0.003-2.302h-1.572l0.625-3.334l5.261-0.008l0.624,3.341l-1.667-0.001l-0.004,2.302l5.45,0.002l0.004-2.302H21.247z
				 M13.659,32.682l2.167-11.56l2.159,11.554L13.659,32.682z"/>
		</g>
		<path fill-rule="evenodd" fill="none" stroke="#222221" stroke-width="1.5" stroke-linejoin="round" d="M92.193,72.203
			c-0.189,0.146-0.323,0.223-0.544,0.391c-14.08,10.457-30.506,30.86-32.19,56.296c-0.801,12.101,5.85,20.477,14.448,20.659
			c5.489,0.117,9.902-2.151,12.294-6.485c1.987-3.604,2.495-9.161,2.817-6.593c1.158,9.795-2.368,19.208-4.275,27.431
			c2.127-0.898,4.8-1.352,7.478-1.361h0.044c2.675,0.01,5.343,0.463,7.467,1.361c-1.905-8.223-5.426-17.636-4.269-27.431
			c0.322-2.568,0.828,2.988,2.813,6.593c2.39,4.334,6.803,6.603,12.292,6.485c8.599-0.183,15.249-8.559,14.448-20.659
			c-1.685-25.436-18.111-45.839-32.181-56.296c-0.152-0.134-0.278-0.25-0.509-0.391H92.193z"/>
		<path fill="#222221" d="M68.969,134.856c-0.014-0.204-0.021-0.404-0.02-0.602l0,0c0-4.756,3.691-8.753,8.499-9.067l0,0
			c0.251-0.018,0.499-0.024,0.744-0.024l0,0c5.877,0,10.818,4.564,11.207,10.513l0,0H89.4c0.018,0.276-0.192,0.514-0.467,0.531l0,0
			c-0.276,0.018-0.514-0.191-0.531-0.467l0,0c-0.353-5.418-4.859-9.578-10.21-9.578l0,0c-0.226,0-0.45,0.008-0.677,0.023l0,0
			c-4.281,0.277-7.566,3.84-7.566,8.069l0,0c0,0.177,0.005,0.354,0.018,0.535l0,0c0.219,3.372,3.023,5.96,6.354,5.96l0,0
			c0.139,0,0.28-0.005,0.422-0.014l0,0c2.646-0.171,4.675-2.374,4.675-4.985l0,0c0-0.109-0.004-0.22-0.011-0.329l0,0
			c-0.134-2.063-1.852-3.648-3.888-3.648l0,0c-0.088,0-0.171,0.002-0.258,0.01l0,0c-1.598,0.104-2.824,1.433-2.824,3.009l0,0
			c0,0.068,0.002,0.132,0.007,0.201l0,0c0.079,1.225,1.1,2.165,2.31,2.165l0,0c0.049,0,0.104-0.002,0.152-0.003l0,0
			c0.927-0.061,1.639-0.833,1.639-1.747l0,0c0-0.039-0.002-0.081-0.004-0.117l0,0c-0.044-0.689-0.619-1.219-1.299-1.219l0,0
			c-0.035,0-0.058,0.001-0.084,0.004l0,0c-0.5,0.032-0.882,0.447-0.882,0.938l0,0c0,0.024,0.001,0.04,0.002,0.052l0,0
			c0.024,0.275-0.179,0.519-0.454,0.543l0,0c-0.275,0.023-0.519-0.18-0.542-0.453l0,0c-0.005-0.056-0.006-0.103-0.006-0.142l0,0
			c0-1.017,0.789-1.868,1.799-1.935l0,0c0.068-0.007,0.124-0.007,0.167-0.007l0,0c1.206,0,2.217,0.936,2.297,2.159l0,0
			c0.003,0.056,0.005,0.114,0.005,0.177l0,0c0,1.439-1.116,2.648-2.586,2.745l0,0c-0.062,0.002-0.13,0.005-0.204,0.006l0,0
			c-1.734-0.001-3.193-1.346-3.307-3.097l0,0c-0.006-0.094-0.009-0.184-0.009-0.271l0,0c0-2.102,1.632-3.867,3.748-4.006l0,0
			c0.117-0.01,0.229-0.012,0.333-0.013l0,0c2.563,0.001,4.715,1.99,4.886,4.585l0,0c0.008,0.129,0.013,0.261,0.013,0.393l0,0
			c0,3.138-2.436,5.775-5.612,5.984l0,0c-0.161,0.009-0.321,0.014-0.484,0.015l0,0C72.466,141.749,69.225,138.756,68.969,134.856
			L68.969,134.856z"/>
		<path fill="#222221" d="M107.718,141.734c-3.17-0.209-5.601-2.846-5.601-5.981l0,0c0-0.131,0.003-0.265,0.014-0.396l0,0
			c0.168-2.592,2.318-4.582,4.876-4.582l0,0c0.104,0,0.215,0.002,0.322,0.011l0,0c2.125,0.14,3.753,1.905,3.753,4.007l0,0
			c0,0.09-0.003,0.176-0.009,0.267l0,0c-0.113,1.754-1.569,3.1-3.302,3.1l0,0c-0.075,0-0.144-0.002-0.217-0.006l0,0
			c-1.454-0.097-2.57-1.306-2.57-2.745l0,0c0-0.057,0.001-0.123,0.007-0.181l0,0c0.079-1.218,1.088-2.154,2.292-2.154l0,0
			c0.043,0,0.099,0,0.151,0.006l0,0c1.026,0.068,1.813,0.92,1.813,1.938l0,0c0,0.047-0.001,0.083-0.002,0.11l0,0
			c-0.009,0.276-0.24,0.492-0.516,0.484l0,0c-0.276-0.009-0.493-0.24-0.484-0.516l0,0c0.001-0.038,0.002-0.063,0.002-0.079l0,0
			c0-0.493-0.382-0.907-0.893-0.94l0,0c-0.015-0.002-0.036-0.003-0.071-0.003l0,0c-0.677,0-1.251,0.529-1.296,1.236l0,0
			c-0.003,0.021-0.004,0.056-0.004,0.099l0,0c0,0.914,0.713,1.688,1.624,1.746l0,0c0.061,0.003,0.115,0.006,0.164,0.005l0,0
			c1.207,0.001,2.226-0.939,2.305-2.16l0,0c0.004-0.074,0.006-0.142,0.006-0.206l0,0c0-1.576-1.224-2.905-2.827-3.009l0,0
			c-0.078-0.008-0.161-0.01-0.248-0.01l0,0c-2.029,0-3.745,1.585-3.879,3.654l0,0c-0.008,0.104-0.012,0.214-0.012,0.325l0,0
			c0,2.611,2.027,4.812,4.663,4.983l0,0c0.144,0.008,0.285,0.014,0.424,0.014l0,0c3.323,0,6.124-2.588,6.343-5.959l0,0
			c0.011-0.183,0.017-0.361,0.017-0.537l0,0c0.001-4.229-3.279-7.791-7.554-8.069l0,0c-0.226-0.015-0.45-0.022-0.676-0.021l0,0
			c-5.341-0.001-9.849,4.159-10.199,9.577l0,0v0.001c-0.019,0.275-0.257,0.484-0.531,0.467l0,0
			c-0.276-0.019-0.485-0.257-0.467-0.533l0,0c0.388-5.947,5.329-10.512,11.197-10.512l0,0c0.244,0,0.492,0.007,0.742,0.024l0,0
			c4.805,0.314,8.488,4.313,8.488,9.066l0,0c0,0.198-0.007,0.397-0.02,0.601l0,0c-0.255,3.901-3.491,6.895-7.341,6.895l0,0
			C108.041,141.749,107.88,141.744,107.718,141.734L107.718,141.734z"/>
		<path fill="#222221" d="M92.269,140.052c-0.133,0-0.259-0.052-0.354-0.146l0,0c-0.095-0.094-0.146-0.22-0.146-0.354l0,0
			c0.001-0.078,0.005-0.155,0.01-0.232l0,0c-0.104-1.848-1.637-3.795-2.44-4.637l0,0c-0.276-0.295-0.448-0.453-0.449-0.453l0,0
			c-0.145-0.132-0.199-0.335-0.14-0.522l0,0c0.001-0.006,0.946-2.957,1.654-6.144l0,0c0.486-2.17,0.863-4.512,1.407-6.471l0,0
			c-0.218-0.76-0.45-1.451-0.705-2.043l0,0c-0.012-0.028-0.021-0.058-0.027-0.087l0,0c-1.01-2.532-3.411-4.147-5.972-4.146l0,0
			c-0.68,0-1.372,0.113-2.057,0.354l0,0c-2.036,0.714-3.308,2.627-3.309,4.668l0,0c0.001,0.546,0.091,1.1,0.283,1.644l0,0
			c0.557,1.586,2.049,2.58,3.64,2.58l0,0c0.426,0,0.857-0.07,1.281-0.22l0,0c1.229-0.433,1.997-1.589,1.998-2.818l0,0
			c-0.001-0.33-0.055-0.664-0.171-0.992l0,0c-0.331-0.943-1.217-1.531-2.16-1.531l0,0c-0.252,0-0.507,0.041-0.761,0.131l0,0
			c-0.713,0.249-1.157,0.919-1.158,1.634l0,0c0,0.19,0.032,0.383,0.1,0.575l0,0c0.185,0.527,0.683,0.858,1.212,0.858l0,0
			c0.143,0,0.286-0.023,0.427-0.072l0,0c0.382-0.135,0.621-0.495,0.621-0.877l0,0c0-0.102-0.017-0.205-0.053-0.308l0,0
			c-0.094-0.266-0.342-0.429-0.606-0.43l0,0c-0.07,0-0.141,0.011-0.214,0.037l0,0c-0.171,0.059-0.276,0.219-0.277,0.391l0,0
			c0.001,0.044,0.009,0.09,0.025,0.137l0,0v0.002c0.091,0.26-0.046,0.545-0.307,0.637l0,0c-0.261,0.091-0.546-0.046-0.637-0.307l0,0
			c-0.055-0.153-0.082-0.312-0.081-0.469l0,0c-0.001-0.585,0.364-1.131,0.944-1.334l0,0c0.179-0.063,0.364-0.094,0.546-0.094l0,0
			c0.678,0,1.312,0.422,1.55,1.098l0,0c0.074,0.211,0.109,0.428,0.109,0.64l0,0c0,0.797-0.496,1.538-1.289,1.82l0,0
			c-0.251,0.088-0.508,0.129-0.759,0.129l0,0c-0.943,0-1.824-0.589-2.155-1.526l0,0c-0.105-0.299-0.156-0.605-0.156-0.907l0,0
			c-0.001-1.128,0.704-2.183,1.827-2.576l0,0c0.359-0.128,0.729-0.188,1.092-0.188l0,0c1.356,0,2.626,0.846,3.104,2.198l0,0
			c0.154,0.438,0.228,0.885,0.228,1.325l0,0c0,1.645-1.027,3.183-2.666,3.761l0,0c-0.533,0.188-1.077,0.277-1.613,0.277l0,0
			c-2.005,0-3.88-1.251-4.584-3.248l0,0c-0.229-0.652-0.339-1.319-0.338-1.976l0,0c-0.001-2.455,1.53-4.751,3.976-5.611l0,0
			c0.791-0.278,1.597-0.412,2.389-0.412l0,0c3.015,0.002,5.801,1.911,6.937,4.869l0,0c0.006,0.018,0.012,0.034,0.017,0.052l0,0
			c0.098,0.234,0.192,0.479,0.283,0.735l0,0c0.118-0.298,0.243-0.579,0.379-0.84l0,0c1.457-2.787,4.051-4.794,7.03-4.8l0,0
			c0.741,0,1.503,0.126,2.266,0.396l0,0c2.445,0.861,3.976,3.157,3.975,5.611l0,0c0.001,0.655-0.109,1.321-0.338,1.976l0,0
			c-0.704,1.998-2.578,3.248-4.583,3.247l0,0c-0.536,0.001-1.081-0.089-1.613-0.276l0,0c-1.64-0.577-2.666-2.115-2.665-3.761l0,0
			c-0.001-0.44,0.072-0.889,0.227-1.324l0,0c0.477-1.353,1.746-2.199,3.104-2.199l0,0c0.362,0,0.731,0.06,1.093,0.188l0,0
			c1.123,0.396,1.825,1.448,1.824,2.576l0,0c0,0.301-0.051,0.606-0.155,0.907l0,0c-0.33,0.939-1.212,1.528-2.155,1.526l0,0
			c-0.254,0.002-0.51-0.042-0.758-0.129l0,0c-0.794-0.279-1.29-1.023-1.289-1.82l0,0c-0.001-0.211,0.032-0.43,0.109-0.64l0,0
			c0.238-0.676,0.872-1.098,1.55-1.098l0,0c0.179,0,0.365,0.028,0.545,0.094l0,0c0.581,0.206,0.945,0.749,0.944,1.334l0,0
			c0.001,0.158-0.027,0.314-0.076,0.464l0,0c-0.089,0.261-0.373,0.401-0.635,0.313l0,0c-0.262-0.088-0.402-0.371-0.313-0.633l0,0
			c0.019-0.055,0.024-0.104,0.025-0.145l0,0c-0.001-0.171-0.106-0.332-0.28-0.392l0,0c-0.069-0.025-0.138-0.036-0.21-0.036l0,0
			c-0.265,0-0.514,0.165-0.607,0.434l0,0c-0.035,0.098-0.052,0.199-0.053,0.304l0,0c0.001,0.383,0.239,0.743,0.62,0.876l0,0
			c0.142,0.05,0.287,0.073,0.428,0.073l0,0c0.529,0,1.027-0.329,1.212-0.856l0,0c0.067-0.194,0.099-0.388,0.099-0.577l0,0
			c0-0.714-0.444-1.385-1.157-1.634l0,0c-0.253-0.09-0.508-0.131-0.76-0.131l0,0c-0.943,0-1.829,0.589-2.16,1.533l0,0
			c-0.116,0.326-0.17,0.66-0.17,0.99l0,0c0,1.229,0.769,2.386,1.997,2.818l0,0c0.425,0.148,0.856,0.219,1.281,0.219l0,0
			c1.591,0,3.082-0.992,3.64-2.578l0,0c0.19-0.547,0.281-1.1,0.281-1.645l0,0c0-2.04-1.272-3.953-3.308-4.669l0,0
			c-0.659-0.232-1.304-0.338-1.933-0.338l0,0c-2.502-0.006-4.811,1.718-6.146,4.264l0,0c-0.286,0.541-0.533,1.223-0.757,1.996l0,0
			c0.546,1.964,0.986,4.256,1.477,6.459l0,0c0.672,3.02,1.556,5.831,1.647,6.12l0,0c0.08,0.197,0.027,0.426-0.138,0.567l0,0
			c0,0.001-0.185,0.159-0.477,0.453l0,0c-0.292,0.296-0.684,0.72-1.073,1.228l0,0c-0.735,0.956-1.437,2.21-1.511,3.405l0,0
			c0.004,0.075,0.007,0.151,0.008,0.227l0,0c0,0.134-0.052,0.26-0.146,0.354l0,0c-0.094,0.095-0.22,0.146-0.354,0.146l0,0H92.269
			L92.269,140.052z M92.29,137.304c0.747-1.721,2.095-3.071,2.648-3.592l0,0c-0.256-0.825-1.001-3.299-1.588-5.943l0,0
			c-0.344-1.556-0.667-3.148-1.012-4.618l0,0c-0.324,1.474-0.62,3.09-0.96,4.63l0,0c-0.587,2.642-1.329,5.112-1.586,5.94l0,0
			C90.313,134.239,91.583,135.591,92.29,137.304L92.29,137.304z"/>
		<path fill="#222221" d="M101.894,100.673c-1.796,0-3.601-0.646-5.026-1.956l0,0c-1.302-1.191-1.964-2.827-1.963-4.463l0,0
			c-0.001-1.459,0.526-2.929,1.593-4.088l0,0c0.973-1.063,2.308-1.604,3.643-1.604l0,0c1.19-0.001,2.391,0.431,3.34,1.3l0,0
			c0.871,0.799,1.314,1.894,1.313,2.989l0,0c0.001,0.977-0.354,1.961-1.065,2.738l0,0c-0.658,0.718-1.563,1.085-2.465,1.084l0,0
			c-0.807,0-1.619-0.291-2.258-0.879l0,0c-0.597-0.546-0.901-1.296-0.9-2.046l0,0c-0.001-0.668,0.241-1.344,0.729-1.873l0,0
			c0.456-0.499,1.084-0.754,1.71-0.754l0,0c0.558,0,1.122,0.203,1.566,0.61l0,0c0.421,0.385,0.636,0.916,0.635,1.442l0,0
			c0,0.472-0.171,0.946-0.514,1.322l0,0c-0.327,0.355-0.779,0.538-1.228,0.538l0,0c-0.4,0-0.806-0.146-1.124-0.438l0,0
			c-0.204-0.187-0.218-0.503-0.03-0.706l0,0c0.187-0.204,0.502-0.218,0.706-0.031l0,0c0.128,0.118,0.286,0.174,0.448,0.175l0,0
			c0.182-0.001,0.358-0.071,0.489-0.215l0,0c0.17-0.186,0.252-0.414,0.252-0.646l0,0c-0.001-0.261-0.103-0.516-0.31-0.704l0,0
			c-0.257-0.234-0.572-0.347-0.892-0.348l0,0c-0.359,0.001-0.711,0.143-0.974,0.429l0,0c-0.313,0.341-0.465,0.766-0.466,1.197l0,0
			c0.001,0.482,0.192,0.957,0.576,1.309l0,0c0.449,0.413,1.014,0.615,1.582,0.615l0,0c0.637,0,1.265-0.255,1.728-0.758l0,0
			c0.539-0.59,0.802-1.326,0.803-2.063l0,0c-0.001-0.829-0.331-1.648-0.989-2.251l0,0c-0.761-0.697-1.712-1.038-2.664-1.038l0,0
			c-1.067,0-2.128,0.43-2.906,1.279l0,0c-0.892,0.97-1.329,2.191-1.329,3.412l0,0c0,1.369,0.551,2.729,1.639,3.727l0,0
			c1.237,1.134,2.794,1.692,4.351,1.692l0,0c1.744,0,3.479-0.702,4.751-2.087l0,0c1.438-1.572,2.147-3.549,2.148-5.524l0,0
			c-0.001-2.213-0.891-4.414-2.649-6.028l0,0v0.001c-0.203-0.188-0.218-0.504-0.031-0.707l0,0c0.187-0.204,0.504-0.218,0.707-0.031
			l0,0c1.973,1.809,2.975,4.285,2.974,6.766l0,0c0.001,2.214-0.799,4.438-2.412,6.2l0,0c-1.466,1.598-3.474,2.411-5.483,2.411l0,0
			C101.896,100.673,101.896,100.673,101.894,100.673L101.894,100.673z"/>
		<path fill="#222221" d="M77.032,98.262c-1.614-1.762-2.413-3.986-2.412-6.199l0,0c-0.001-2.48,1.002-4.958,2.974-6.767l0,0h0.001
			c0.204-0.186,0.52-0.173,0.706,0.031l0,0c0.187,0.203,0.174,0.52-0.029,0.706l0,0c-1.761,1.613-2.651,3.814-2.652,6.029l0,0
			c0.001,1.975,0.71,3.951,2.15,5.522l0,0c1.271,1.387,3.007,2.088,4.753,2.088l0,0c1.558,0,3.117-0.559,4.357-1.692l0,0
			c1.09-0.998,1.641-2.357,1.641-3.727l0,0c0-1.221-0.438-2.441-1.33-3.413l0,0c-0.78-0.849-1.842-1.277-2.913-1.278l0,0
			c-0.955,0.001-1.908,0.342-2.667,1.037l0,0c-0.658,0.604-0.99,1.424-0.99,2.252l0,0c0,0.738,0.264,1.474,0.803,2.063l0,0
			c0.464,0.505,1.093,0.759,1.729,0.76l0,0c0.568,0,1.135-0.202,1.587-0.616l0,0c0.384-0.351,0.575-0.827,0.576-1.309l0,0
			c-0.001-0.43-0.153-0.856-0.467-1.198l0,0c-0.262-0.285-0.616-0.428-0.976-0.428l0,0c-0.322,0-0.64,0.113-0.894,0.347l0,0
			c-0.208,0.19-0.311,0.445-0.312,0.705l0,0c0.001,0.232,0.082,0.459,0.252,0.645l0,0c0.132,0.145,0.309,0.215,0.491,0.216l0,0
			c0.163-0.001,0.322-0.058,0.452-0.176l0,0c0.204-0.186,0.521-0.171,0.707,0.033l0,0c0.186,0.204,0.17,0.521-0.033,0.707l0,0
			c-0.319,0.29-0.725,0.437-1.126,0.436l0,0c-0.447,0.001-0.9-0.183-1.228-0.539l0,0c-0.345-0.374-0.516-0.851-0.516-1.321l0,0
			c0-0.528,0.215-1.058,0.636-1.442l0,0c0.444-0.407,1.011-0.61,1.569-0.61l0,0c0.626,0,1.255,0.254,1.712,0.752l0,0
			c0.487,0.531,0.731,1.206,0.73,1.875l0,0c0.001,0.75-0.305,1.5-0.901,2.047l0,0c-0.642,0.586-1.455,0.878-2.262,0.878l0,0
			c-0.902,0-1.809-0.365-2.467-1.083l0,0c-0.713-0.778-1.067-1.763-1.066-2.739l0,0c-0.001-1.096,0.444-2.191,1.315-2.989l0,0
			c0.948-0.87,2.15-1.3,3.343-1.3l0,0c1.337,0,2.675,0.54,3.649,1.603l0,0c1.066,1.16,1.595,2.629,1.594,4.089l0,0
			c0.001,1.637-0.662,3.271-1.966,4.464l0,0c-1.43,1.308-3.236,1.956-5.032,1.956l0,0C80.51,100.674,78.499,99.861,77.032,98.262
			L77.032,98.262z"/>
		<path fill="#222221" d="M74.317,115.244c-2.37-0.782-3.872-2.984-3.872-5.352l0,0c0-0.586,0.091-1.183,0.285-1.767l0,0
			c0.641-1.939,2.441-3.168,4.376-3.168l0,0c0.479,0,0.968,0.075,1.446,0.234l0,0c1.593,0.526,2.603,2.005,2.602,3.596l0,0
			c0,0.395-0.062,0.794-0.191,1.188l0,0c-0.436,1.315-1.657,2.148-2.973,2.148l0,0c-0.326,0-0.656-0.051-0.981-0.157l0,0
			c-1.095-0.362-1.789-1.379-1.789-2.474l0,0c0-0.27,0.043-0.547,0.133-0.816l0,0c0.304-0.917,1.155-1.499,2.072-1.499l0,0
			c0.228,0,0.459,0.035,0.686,0.111l0,0c0.775,0.256,1.269,0.978,1.269,1.754l0,0c0,0.19-0.031,0.386-0.093,0.577l0,0
			c-0.086,0.262-0.369,0.405-0.631,0.319l0,0c-0.263-0.087-0.406-0.369-0.32-0.631l0,0c0.03-0.09,0.043-0.18,0.043-0.266l0,0
			c0-0.355-0.226-0.688-0.583-0.806l0,0c-0.123-0.041-0.246-0.06-0.37-0.06l0,0c-0.495,0-0.96,0.315-1.123,0.814l0,0
			c-0.056,0.166-0.081,0.334-0.081,0.501l0,0c0,0.673,0.427,1.302,1.102,1.523l0,0c0.222,0.074,0.447,0.107,0.668,0.107l0,0
			c0.895,0,1.729-0.566,2.022-1.461l0,0c0.096-0.293,0.142-0.587,0.142-0.876l0,0c0-1.17-0.742-2.261-1.915-2.646l0,0
			c-0.378-0.124-0.758-0.183-1.133-0.183l0,0c-1.514,0-2.926,0.961-3.426,2.48l0,0c-0.16,0.482-0.235,0.971-0.235,1.453l0,0
			c0,1.945,1.235,3.76,3.185,4.402l0,0c0.616,0.203,1.242,0.3,1.857,0.3l0,0c2.485,0,4.801-1.578,5.622-4.066l0,0
			c0.258-0.785,0.382-1.579,0.382-2.36l0,0c-0.001-3.159-2.006-6.103-5.17-7.147l0,0c-0.994-0.327-2-0.482-2.99-0.482l0,0
			c-4.001,0-7.729,2.54-9.052,6.548l0,0h0.001c-0.087,0.264-0.369,0.405-0.632,0.318l0,0c-0.263-0.086-0.405-0.368-0.318-0.631l0,0
			c1.463-4.429,5.578-7.235,10.001-7.235l0,0c1.094,0,2.207,0.171,3.303,0.534l0,0c3.585,1.184,5.857,4.516,5.857,8.096l0,0
			c0,0.886-0.14,1.787-0.433,2.674l0,0c-0.961,2.908-3.665,4.753-6.571,4.753l0,0C75.768,115.595,75.036,115.481,74.317,115.244
			L74.317,115.244z"/>
		<path fill="#222221" d="M101.526,110.842c-0.295-0.888-0.434-1.79-0.434-2.677l0,0c0-3.578,2.27-6.909,5.849-8.093l0,0
			c1.093-0.362,2.204-0.534,3.297-0.534l0,0c4.416,0,8.525,2.808,9.985,7.235l0,0c0.086,0.263-0.056,0.545-0.318,0.632l0,0
			c-0.263,0.086-0.546-0.057-0.632-0.319l0,0c-1.319-4.009-5.041-6.548-9.035-6.549l0,0c-0.988,0.001-1.993,0.155-2.982,0.484l0,0
			c-3.159,1.043-5.163,3.986-5.163,7.144l0,0c0,0.782,0.122,1.577,0.383,2.363l0,0c0.819,2.489,3.132,4.065,5.611,4.066l0,0
			c0.613-0.001,1.236-0.097,1.853-0.3l0,0c1.946-0.643,3.18-2.456,3.18-4.401l0,0c0-0.482-0.076-0.972-0.235-1.455l0,0
			c-0.499-1.519-1.909-2.479-3.419-2.479l0,0c-0.375,0-0.754,0.058-1.13,0.183l0,0c-1.17,0.386-1.911,1.478-1.912,2.647l0,0
			c0.001,0.29,0.045,0.583,0.142,0.874l0,0c0.295,0.896,1.127,1.463,2.019,1.463l0,0c0.22,0,0.444-0.034,0.666-0.108l0,0
			c0.672-0.221,1.1-0.85,1.1-1.522l0,0c0-0.166-0.026-0.337-0.081-0.503l0,0c-0.163-0.498-0.627-0.813-1.121-0.813l0,0
			c-0.123,0-0.247,0.019-0.37,0.06l0,0c-0.354,0.117-0.58,0.449-0.581,0.805l0,0c0.001,0.09,0.014,0.176,0.043,0.262l0,0
			c0.088,0.262-0.052,0.545-0.313,0.634l0,0c-0.262,0.089-0.545-0.052-0.634-0.313l0,0c-0.066-0.195-0.096-0.395-0.096-0.583l0,0
			c0-0.776,0.492-1.497,1.265-1.752l0,0c0.228-0.077,0.46-0.112,0.687-0.112l0,0c0.916-0.001,1.768,0.583,2.071,1.502l0,0
			c0.087,0.268,0.131,0.543,0.131,0.814l0,0c0,1.094-0.692,2.109-1.786,2.473l0,0c-0.324,0.106-0.654,0.157-0.979,0.157l0,0
			c-1.314,0.001-2.534-0.834-2.968-2.148l0,0c-0.131-0.394-0.192-0.795-0.192-1.188l0,0c0-1.592,1.008-3.07,2.598-3.596l0,0
			c0.478-0.159,0.965-0.235,1.444-0.235l0,0c1.933,0,3.729,1.229,4.369,3.168l0,0c0.192,0.584,0.285,1.181,0.284,1.768l0,0
			c0.001,2.366-1.498,4.568-3.865,5.352l0,0c-0.719,0.235-1.448,0.35-2.166,0.35l0,0
			C105.185,115.595,102.485,113.75,101.526,110.842L101.526,110.842z"/>
		<g>
			<path fill="#222221" d="M98.626,173.859c-0.521,0-1.05-0.088-1.565-0.271l0,0c-1.554-0.559-2.521-2.021-2.521-3.584l0,0
				c0-0.428,0.07-0.863,0.225-1.285l0,0c0.461-1.285,1.669-2.086,2.96-2.086l0,0c0.353,0,0.713,0.059,1.063,0.186l0,0
				c1.068,0.385,1.732,1.391,1.732,2.463l0,0c0,0.293-0.05,0.592-0.153,0.885l0,0c-0.322,0.895-1.165,1.453-2.065,1.453l0,0
				c-0.247,0-0.497-0.043-0.739-0.129l0,0c-0.758-0.273-1.23-0.984-1.23-1.746l0,0c0-0.207,0.034-0.424,0.11-0.627l0,0
				c0.232-0.646,0.84-1.049,1.49-1.049l0,0c0.176,0,0.358,0.029,0.535,0.094l0,0c0.56,0.201,0.906,0.725,0.905,1.285l0,0
				c0,0.154-0.026,0.309-0.08,0.463l0,0c-0.087,0.24-0.242,0.436-0.436,0.572l0,0c0.255-0.135,0.464-0.359,0.567-0.65l0,0
				c0.065-0.186,0.096-0.371,0.096-0.551l0,0c0-0.662-0.41-1.285-1.07-1.521l0,0c-0.241-0.086-0.484-0.127-0.726-0.127l0,0
				c-0.879,0-1.706,0.545-2.02,1.424l0,0c-0.113,0.313-0.166,0.631-0.166,0.947l0,0c0,1.15,0.714,2.23,1.859,2.643l0,0
				c0.406,0.145,0.82,0.213,1.229,0.213l0,0c1.489,0,2.889-0.922,3.422-2.406l0,0c0.187-0.523,0.274-1.055,0.274-1.576l0,0
				c0-1.916-1.186-3.713-3.092-4.394l0,0h0.001c-0.261-0.093-0.396-0.38-0.304-0.64l0,0c0.093-0.261,0.38-0.396,0.64-0.303l0,0
				c2.314,0.83,3.756,3.01,3.755,5.336l0,0c0.001,0.635-0.107,1.281-0.333,1.914l0,0c-0.681,1.891-2.461,3.068-4.36,3.068l0,0
				C98.628,173.859,98.627,173.859,98.626,173.859L98.626,173.859z M97.381,169.461c-0.034,0.09-0.05,0.186-0.05,0.283l0,0
				c0,0.143,0.036,0.281,0.104,0.406l0,0c0.001-0.053,0.01-0.105,0.028-0.156l0,0c0.091-0.262,0.377-0.396,0.638-0.305l0,0
				c0.022,0.006,0.045,0.01,0.067,0.01l0,0c0.079,0,0.156-0.049,0.181-0.121l0,0c0.017-0.049,0.023-0.09,0.023-0.131l0,0
				c-0.001-0.15-0.093-0.293-0.245-0.346l0,0c-0.066-0.023-0.13-0.033-0.195-0.033l0,0
				C97.693,169.068,97.468,169.215,97.381,169.461L97.381,169.461z"/>
			<path fill="#222221" d="M104.464,166.775c-1.395,0.002-2.796-0.512-3.89-1.545l0,0h0.001c-0.202-0.189-0.211-0.506-0.021-0.707
				l0,0c0.188-0.2,0.505-0.21,0.707-0.021l0,0c0.902,0.853,2.051,1.272,3.202,1.272l0,0c1.241,0,2.476-0.488,3.396-1.462l0,0
				c0.664-0.705,0.991-1.6,0.992-2.496l0,0c-0.001-0.967-0.382-1.928-1.139-2.642l0,0c-0.545-0.514-1.234-0.767-1.928-0.768l0,0
				c-0.748,0.001-1.489,0.294-2.042,0.882l0,0c-0.393,0.416-0.585,0.941-0.585,1.472l0,0c0,0.57,0.225,1.137,0.673,1.562l0,0
				c0.313,0.295,0.708,0.439,1.108,0.44l0,0c0.431-0.001,0.856-0.17,1.177-0.506l0,0c0.214-0.228,0.32-0.511,0.324-0.801l0,0
				c-0.034,0.232-0.139,0.46-0.314,0.646l0,0c-0.268,0.28-0.63,0.427-0.992,0.426l0,0c-0.334,0.001-0.674-0.123-0.937-0.371l0,0
				c-0.331-0.312-0.499-0.734-0.498-1.152l0,0c-0.001-0.39,0.146-0.783,0.432-1.086l0,0c0.363-0.388,0.859-0.584,1.351-0.583l0,0
				c0.456-0.001,0.917,0.169,1.273,0.507l0,0c0.454,0.43,0.687,1.012,0.687,1.595l0,0c0.001,0.537-0.197,1.082-0.599,1.507l0,0
				c-0.515,0.541-1.21,0.819-1.903,0.818l0,0c-0.643,0.001-1.29-0.237-1.796-0.714l0,0c-0.654-0.618-0.986-1.456-0.985-2.288l0,0
				c-0.001-0.774,0.284-1.553,0.856-2.158l0,0c0.748-0.794,1.761-1.196,2.771-1.195l0,0c0.937-0.001,1.88,0.347,2.614,1.04l0,0
				c0.964,0.909,1.452,2.141,1.451,3.369l0,0c0.001,1.141-0.419,2.287-1.265,3.185l0,0c-1.113,1.176-2.616,1.773-4.118,1.773l0,0
				C104.467,166.775,104.466,166.775,104.464,166.775L104.464,166.775z M104.859,160.605c-0.109,0.115-0.159,0.256-0.16,0.4l0,0
				c0.001,0.156,0.06,0.308,0.184,0.425l0,0c0.071,0.066,0.158,0.098,0.251,0.099l0,0c0.097-0.001,0.193-0.037,0.268-0.113l0,0
				c0.036-0.039,0.053-0.085,0.053-0.134l0,0c0-0.052-0.021-0.103-0.062-0.142l0,0c-0.199-0.19-0.208-0.507-0.018-0.707l0,0
				c0.038-0.04,0.082-0.072,0.129-0.097l0,0c-0.008-0.001-0.016-0.001-0.022-0.001l0,0
				C105.251,160.337,105.028,160.425,104.859,160.605L104.859,160.605z"/>
			<path fill="#222221" d="M111.068,171.088c-0.803,0.002-1.607-0.324-2.193-0.961l0,0c-0.438-0.477-0.657-1.082-0.657-1.682l0,0
				c-0.001-0.67,0.271-1.342,0.804-1.83l0,0c0.399-0.367,0.908-0.553,1.412-0.551l0,0c0.562-0.002,1.127,0.229,1.538,0.676l0,0
				c0.312,0.336,0.467,0.77,0.466,1.195l0,0c0.001,0.477-0.193,0.955-0.571,1.305l0,0c-0.29,0.266-0.662,0.4-1.026,0.4l0,0
				c-0.408,0-0.818-0.168-1.115-0.488l0,0c-0.23-0.252-0.349-0.574-0.348-0.891l0,0c-0.001-0.352,0.143-0.711,0.424-0.965l0,0
				c0.051-0.047,0.105-0.09,0.162-0.125l0,0c-0.094,0.045-0.183,0.105-0.265,0.18l0,0c-0.32,0.293-0.48,0.689-0.481,1.094l0,0
				c0.001,0.359,0.13,0.717,0.394,1.004l0,0c0.391,0.424,0.922,0.639,1.458,0.641l0,0c0.482-0.002,0.959-0.174,1.341-0.523l0,0
				c0.558-0.516,0.839-1.213,0.841-1.916l0,0c-0.002-0.629-0.227-1.258-0.687-1.76l0,0c-0.668-0.727-1.574-1.091-2.486-1.092l0,0
				c-0.817,0-1.635,0.295-2.284,0.893l0,0l0.001,0.002c-0.204,0.186-0.521,0.174-0.707-0.029l0,0
				c-0.188-0.205-0.175-0.521,0.029-0.707l0,0c0.839-0.774,1.903-1.158,2.961-1.157l0,0c1.179-0.001,2.359,0.476,3.223,1.415l0,0
				c0.636,0.689,0.95,1.566,0.949,2.436l0,0c0.001,0.971-0.393,1.941-1.163,2.652l0,0c-0.57,0.525-1.295,0.785-2.013,0.785l0,0
				C111.071,171.088,111.07,171.088,111.068,171.088L111.068,171.088z M110.477,168.035c-0.065,0.059-0.099,0.139-0.1,0.227l0,0
				c0.001,0.076,0.026,0.15,0.084,0.213l0,0c0.024,0.025,0.052,0.049,0.08,0.07l0,0c-0.036-0.166,0.013-0.346,0.145-0.471l0,0
				c0.01-0.01,0.011-0.016,0.011-0.021l0,0c-0.001-0.006-0.001-0.01-0.004-0.012l0,0c-0.034-0.035-0.07-0.049-0.111-0.051l0,0
				C110.545,167.99,110.511,168.004,110.477,168.035L110.477,168.035z"/>
		</g>
		<g>
			<path fill="#222221" d="M81.557,170.775c-0.229-0.633-0.335-1.279-0.335-1.914l0,0c0-2.328,1.442-4.506,3.756-5.336l0,0
				c0.259-0.093,0.546,0.041,0.639,0.301l0,0c0.094,0.261-0.042,0.547-0.302,0.64l0,0c-1.905,0.685-3.092,2.479-3.093,4.396l0,0
				c0.001,0.521,0.088,1.053,0.275,1.576l0,0c0.532,1.484,1.933,2.406,3.424,2.406l0,0c0.406,0,0.82-0.068,1.227-0.213l0,0
				c1.146-0.41,1.859-1.492,1.859-2.645l0,0c0-0.314-0.054-0.635-0.166-0.947l0,0c-0.313-0.877-1.141-1.422-2.02-1.422l0,0
				c-0.242,0-0.484,0.039-0.726,0.129l0,0c-0.66,0.234-1.07,0.857-1.071,1.52l0,0c0.001,0.182,0.03,0.363,0.096,0.547l0,0
				c0.104,0.291,0.311,0.516,0.565,0.65l0,0c-0.192-0.135-0.347-0.33-0.433-0.568l0,0c-0.055-0.152-0.081-0.311-0.081-0.463l0,0
				c0-0.561,0.35-1.086,0.9-1.285l0,0c0.18-0.066,0.364-0.096,0.54-0.096l0,0c0.651,0,1.259,0.404,1.491,1.049l0,0
				c0.073,0.205,0.109,0.418,0.109,0.627l0,0c0.001,0.762-0.472,1.475-1.231,1.748l0,0c-0.241,0.084-0.49,0.127-0.738,0.127l0,0
				c-0.9,0-1.742-0.557-2.063-1.451l0,0c-0.105-0.293-0.155-0.592-0.155-0.885l0,0c0-1.074,0.665-2.078,1.731-2.461l0,0
				c0.352-0.129,0.713-0.188,1.065-0.188l0,0c1.29,0,2.499,0.801,2.961,2.084l0,0c0.151,0.422,0.224,0.857,0.224,1.285l0,0
				c0,1.563-0.967,3.027-2.522,3.586l0,0c-0.516,0.184-1.044,0.271-1.563,0.271l0,0C84.02,173.846,82.237,172.666,81.557,170.775
				L81.557,170.775z M87.084,169.98c0.017,0.051,0.025,0.102,0.026,0.152l0,0c0.066-0.123,0.103-0.264,0.103-0.406l0,0
				c0-0.096-0.016-0.193-0.05-0.287l0,0c-0.086-0.24-0.312-0.389-0.551-0.389l0,0c-0.066,0-0.129,0.012-0.196,0.035l0,0
				c-0.15,0.055-0.243,0.195-0.244,0.346l0,0c0,0.041,0.008,0.082,0.023,0.125l0,0c0.025,0.078,0.101,0.127,0.181,0.127l0,0
				c0.021,0,0.044-0.004,0.072-0.012l0,0c0.054-0.02,0.109-0.029,0.163-0.029l0,0C86.819,169.643,87.013,169.773,87.084,169.98
				L87.084,169.98z"/>
			<path fill="#222221" d="M75.957,164.984c-0.843-0.896-1.264-2.042-1.263-3.182l0,0c-0.001-1.229,0.487-2.461,1.452-3.37l0,0
				c0.734-0.694,1.677-1.04,2.613-1.04l0,0c1.01,0,2.021,0.401,2.77,1.193l0,0c0.573,0.606,0.858,1.387,0.858,2.159l0,0
				c0,0.834-0.333,1.67-0.986,2.29l0,0c-0.505,0.476-1.153,0.713-1.796,0.713l0,0c-0.693,0-1.39-0.278-1.903-0.82l0,0
				c-0.399-0.423-0.6-0.968-0.599-1.506l0,0c-0.001-0.581,0.23-1.167,0.688-1.595l0,0c0.356-0.338,0.817-0.508,1.272-0.507l0,0
				c0.491-0.001,0.985,0.196,1.35,0.582l0,0c0.288,0.305,0.433,0.698,0.432,1.087l0,0c0.001,0.419-0.167,0.84-0.497,1.152l0,0
				c-0.263,0.248-0.604,0.372-0.937,0.371l0,0c-0.363,0.001-0.727-0.145-0.994-0.428l0,0c-0.175-0.184-0.279-0.412-0.314-0.646l0,0
				c0.005,0.291,0.111,0.575,0.327,0.803l0,0c0.318,0.337,0.745,0.505,1.176,0.506l0,0c0.4-0.001,0.796-0.146,1.108-0.438l0,0
				c0.448-0.426,0.673-0.993,0.674-1.563l0,0c-0.001-0.53-0.193-1.056-0.586-1.472l0,0c-0.554-0.587-1.294-0.88-2.042-0.881l0,0
				c-0.692,0.001-1.383,0.254-1.927,0.768l0,0c-0.758,0.715-1.139,1.675-1.14,2.643l0,0c0.001,0.896,0.329,1.791,0.992,2.494l0,0
				c0.918,0.973,2.153,1.463,3.395,1.463l0,0c1.152,0,2.302-0.42,3.204-1.273l0,0v0.001c0.201-0.19,0.517-0.181,0.707,0.02l0,0
				c0.189,0.2,0.18,0.517-0.02,0.706l0,0c-1.094,1.033-2.497,1.547-3.892,1.547l0,0C78.577,166.76,77.071,166.162,75.957,164.984
				L75.957,164.984z M79.174,160.421c0.188,0.202,0.177,0.519-0.025,0.706l0,0c-0.038,0.037-0.057,0.084-0.058,0.139l0,0
				c0.001,0.049,0.017,0.095,0.052,0.132l0,0c0.072,0.076,0.17,0.116,0.269,0.116l0,0c0.092-0.002,0.181-0.032,0.249-0.099l0,0
				c0.125-0.119,0.185-0.271,0.186-0.426l0,0c-0.001-0.145-0.052-0.286-0.159-0.399l0,0c-0.172-0.181-0.395-0.27-0.623-0.271l0,0
				c-0.008,0-0.015,0-0.022,0.001l0,0C79.09,160.346,79.135,160.379,79.174,160.421L79.174,160.421z"/>
			<path fill="#222221" d="M71.458,170.287c-0.771-0.711-1.163-1.684-1.162-2.652l0,0c0-0.869,0.315-1.746,0.949-2.436l0,0
				c0.861-0.939,2.043-1.417,3.223-1.416l0,0c1.058-0.001,2.122,0.384,2.961,1.156l0,0l0.001,0.002
				c0.203,0.186,0.216,0.502,0.028,0.705l0,0c-0.188,0.203-0.504,0.217-0.705,0.029l0,0c-0.651-0.598-1.467-0.892-2.285-0.893l0,0
				c-0.914,0.001-1.819,0.367-2.486,1.092l0,0c-0.46,0.502-0.686,1.129-0.687,1.76l0,0c0.001,0.703,0.282,1.4,0.841,1.916l0,0
				c0.381,0.35,0.859,0.52,1.34,0.521l0,0c0.536-0.002,1.067-0.215,1.459-0.639l0,0c0.264-0.287,0.391-0.645,0.392-1.004l0,0
				c-0.001-0.402-0.161-0.801-0.479-1.094l0,0c-0.082-0.076-0.172-0.137-0.267-0.182l0,0c0.057,0.035,0.111,0.078,0.161,0.123l0,0
				c0.282,0.258,0.426,0.613,0.425,0.967l0,0c0.001,0.316-0.113,0.639-0.347,0.891l0,0c-0.298,0.322-0.707,0.49-1.114,0.49l0,0
				c-0.367,0-0.736-0.135-1.026-0.402l0,0c-0.378-0.348-0.573-0.826-0.572-1.303l0,0c-0.001-0.426,0.155-0.857,0.467-1.197l0,0
				c0.411-0.447,0.977-0.676,1.538-0.676l0,0c0.503,0,1.013,0.184,1.412,0.553l0,0c0.531,0.488,0.804,1.16,0.802,1.83l0,0
				c0.002,0.6-0.216,1.205-0.655,1.682l0,0c-0.587,0.635-1.391,0.961-2.194,0.961l0,0C72.757,171.072,72.031,170.813,71.458,170.287
				L71.458,170.287z M73.854,168.025c-0.004,0.006-0.005,0.008-0.005,0.012l0,0c0.001,0.006,0,0.01,0.009,0.018l0,0
				c0.134,0.125,0.184,0.307,0.147,0.473l0,0c0.028-0.02,0.055-0.043,0.08-0.07l0,0c0.055-0.061,0.081-0.135,0.082-0.213l0,0
				c-0.001-0.086-0.034-0.168-0.102-0.229l0,0c-0.029-0.027-0.064-0.041-0.102-0.041l0,0
				C73.921,167.977,73.885,167.99,73.854,168.025L73.854,168.025z"/>
		</g>
		<g>
			<path fill="#222221" d="M88.563,74.024c-1.504,0.001-3.01-0.598-4.123-1.776l0,0c-0.844-0.895-1.264-2.041-1.264-3.182l0,0
				c0-1.229,0.488-2.46,1.452-3.37l0,0c0.735-0.693,1.677-1.04,2.612-1.04l0,0c1.01,0,2.022,0.402,2.771,1.194l0,0
				c0.573,0.606,0.859,1.386,0.858,2.158l0,0c0.001,0.835-0.332,1.671-0.985,2.289l0,0c-0.505,0.478-1.153,0.715-1.797,0.714l0,0
				c-0.694,0.001-1.39-0.275-1.903-0.819l0,0c-0.399-0.423-0.599-0.967-0.599-1.506l0,0c0-0.582,0.231-1.166,0.688-1.594l0,0
				c0.356-0.339,0.817-0.51,1.273-0.508l0,0c0.49-0.002,0.984,0.196,1.349,0.581l0,0c0.288,0.306,0.433,0.699,0.432,1.088l0,0
				c0.001,0.419-0.167,0.84-0.495,1.152l0,0c-0.264,0.247-0.604,0.372-0.938,0.372l0,0c-0.362,0-0.727-0.146-0.994-0.429l0,0
				c-0.174-0.184-0.278-0.411-0.313-0.645l0,0c0.006,0.289,0.111,0.573,0.327,0.801l0,0c0.317,0.336,0.744,0.506,1.175,0.507l0,0
				c0.4-0.001,0.796-0.146,1.108-0.441l0,0c0.448-0.424,0.673-0.99,0.674-1.563l0,0c-0.001-0.529-0.192-1.056-0.585-1.472l0,0
				c-0.555-0.586-1.295-0.88-2.044-0.88l0,0c-0.692,0-1.382,0.253-1.926,0.766l0,0c-0.758,0.716-1.138,1.677-1.139,2.644l0,0
				c0.001,0.897,0.328,1.791,0.992,2.495l0,0c0.918,0.973,2.153,1.463,3.395,1.463l0,0c1.151,0,2.301-0.421,3.204-1.273l0,0v0.001
				c0.2-0.19,0.517-0.182,0.706,0.02l0,0c0.19,0.2,0.181,0.517-0.02,0.706l0,0c-1.093,1.033-2.493,1.547-3.887,1.547l0,0
				C88.565,74.024,88.563,74.024,88.563,74.024L88.563,74.024z M87.655,67.685c0.188,0.201,0.178,0.518-0.022,0.707l0,0
				c-0.041,0.037-0.061,0.085-0.061,0.139l0,0c0,0.05,0.017,0.095,0.052,0.133l0,0c0.074,0.077,0.17,0.115,0.269,0.115l0,0
				c0.093-0.001,0.181-0.033,0.251-0.098l0,0c0.123-0.118,0.183-0.271,0.184-0.427l0,0c-0.001-0.146-0.053-0.287-0.159-0.401l0,0
				c-0.171-0.18-0.394-0.267-0.622-0.268l0,0c-0.007,0-0.014,0-0.021,0l0,0C87.572,67.61,87.616,67.644,87.655,67.685L87.655,67.685
				z"/>
			<path fill="#222221" d="M81.958,78.336c-0.72,0.001-1.446-0.261-2.018-0.786l0,0c-0.771-0.71-1.164-1.682-1.163-2.651l0,0
				c-0.001-0.87,0.315-1.746,0.949-2.437l0,0c0.862-0.938,2.044-1.415,3.223-1.414l0,0c1.058-0.001,2.123,0.383,2.962,1.155l0,0
				c0.203,0.188,0.216,0.504,0.028,0.707l0,0c-0.187,0.203-0.503,0.216-0.706,0.029l0,0c-0.649-0.598-1.465-0.891-2.284-0.891l0,0
				c-0.913,0-1.819,0.365-2.485,1.09l0,0c-0.461,0.502-0.686,1.129-0.687,1.76l0,0c0.001,0.704,0.282,1.4,0.84,1.916l0,0
				c0.382,0.35,0.859,0.521,1.341,0.522l0,0c0.537-0.001,1.066-0.215,1.458-0.641l0,0c0.264-0.286,0.392-0.643,0.393-1.004l0,0
				c-0.001-0.402-0.161-0.8-0.48-1.094l0,0c-0.082-0.075-0.172-0.136-0.267-0.181l0,0c0.058,0.036,0.112,0.078,0.164,0.125l0,0
				c0.279,0.258,0.424,0.613,0.423,0.966l0,0c0.001,0.315-0.114,0.638-0.348,0.891l0,0c-0.297,0.321-0.707,0.489-1.114,0.488l0,0
				c-0.365,0.001-0.736-0.133-1.026-0.4l0,0c-0.378-0.348-0.572-0.827-0.572-1.303l0,0c0-0.427,0.156-0.859,0.467-1.197l0,0
				c0.41-0.447,0.977-0.677,1.538-0.676l0,0c0.503,0,1.014,0.184,1.412,0.552l0,0c0.532,0.488,0.804,1.16,0.803,1.829l0,0
				c0.001,0.6-0.218,1.205-0.655,1.682l0,0c-0.585,0.636-1.389,0.962-2.19,0.962l0,0C81.961,78.336,81.959,78.336,81.958,78.336
				L81.958,78.336z M82.336,75.288c-0.006,0.006-0.006,0.009-0.006,0.014l0,0c0.001,0.007,0.001,0.009,0.008,0.016l0,0
				c0.135,0.124,0.186,0.307,0.149,0.475l0,0c0.027-0.021,0.055-0.044,0.079-0.07l0,0c0.056-0.062,0.081-0.135,0.082-0.213l0,0
				c0-0.086-0.034-0.168-0.101-0.229l0,0c-0.03-0.027-0.064-0.04-0.102-0.04l0,0C82.403,75.24,82.366,75.255,82.336,75.288
				L82.336,75.288z"/>
		</g>
		<g>
			<path fill="#222221" d="M91.998,72.427c-0.201-0.189-0.21-0.505-0.021-0.706l0,0c0.189-0.201,0.506-0.21,0.706-0.02l0,0
				c0.902,0.852,2.053,1.272,3.204,1.273l0,0c1.24-0.001,2.476-0.49,3.396-1.463l0,0c0.664-0.705,0.99-1.599,0.992-2.496l0,0
				c-0.002-0.966-0.382-1.927-1.139-2.642l0,0c-0.545-0.515-1.235-0.767-1.927-0.767l0,0c-0.749,0-1.49,0.294-2.043,0.881l0,0
				c-0.394,0.416-0.585,0.941-0.586,1.471l0,0c0.001,0.571,0.225,1.137,0.674,1.563l0,0c0.313,0.296,0.708,0.439,1.109,0.44l0,0
				c0.431-0.001,0.856-0.17,1.175-0.506l0,0c0.215-0.229,0.322-0.516,0.326-0.808l0,0c-0.033,0.235-0.138,0.466-0.313,0.652l0,0
				c-0.268,0.281-0.632,0.428-0.993,0.427l0,0c-0.336,0.001-0.676-0.124-0.938-0.372l0,0c-0.33-0.31-0.499-0.733-0.498-1.151l0,0
				c-0.001-0.391,0.145-0.784,0.433-1.087l0,0c0.363-0.387,0.858-0.583,1.349-0.583l0,0c0.456,0,0.917,0.169,1.274,0.508l0,0
				c0.454,0.429,0.687,1.012,0.687,1.594l0,0c0.001,0.539-0.199,1.082-0.599,1.507l0,0c-0.515,0.543-1.21,0.82-1.902,0.819l0,0
				c-0.644,0.001-1.292-0.237-1.797-0.713l0,0c-0.656-0.619-0.988-1.457-0.987-2.29l0,0c-0.001-0.773,0.286-1.553,0.859-2.157l0,0
				c0.747-0.794,1.761-1.195,2.771-1.194l0,0c0.936-0.001,1.878,0.345,2.612,1.039l0,0c0.965,0.909,1.454,2.141,1.453,3.369l0,0
				c0.001,1.141-0.421,2.288-1.266,3.183l0,0c-1.114,1.179-2.619,1.776-4.122,1.776l0,0C94.493,73.975,93.091,73.461,91.998,72.427
				L91.998,72.427z M96.282,67.805c-0.107,0.113-0.158,0.254-0.159,0.399l0,0c0.001,0.155,0.06,0.307,0.184,0.425l0,0
				c0.072,0.066,0.16,0.099,0.252,0.1l0,0c0.098-0.001,0.193-0.038,0.266-0.114l0,0c0.036-0.038,0.054-0.084,0.054-0.134l0,0
				c0-0.052-0.021-0.104-0.061-0.143l0,0c-0.201-0.19-0.208-0.507-0.018-0.706l0,0c0.038-0.04,0.081-0.072,0.127-0.097l0,0
				c-0.008,0-0.015-0.001-0.022-0.001l0,0C96.675,67.535,96.452,67.624,96.282,67.805L96.282,67.805z"/>
			<path fill="#222221" d="M102.493,78.286c-0.804,0.002-1.609-0.324-2.194-0.962l0,0c-0.438-0.476-0.657-1.081-0.657-1.682l0,0
				c-0.001-0.669,0.271-1.342,0.804-1.829l0,0c0.399-0.368,0.909-0.553,1.413-0.552l0,0c0.562-0.001,1.126,0.228,1.537,0.676l0,0
				c0.313,0.338,0.467,0.771,0.467,1.197l0,0c0,0.476-0.195,0.954-0.572,1.303l0,0c-0.29,0.268-0.661,0.4-1.026,0.4l0,0
				c-0.408,0-0.818-0.166-1.114-0.489l0,0c-0.232-0.251-0.349-0.573-0.348-0.89l0,0c-0.001-0.352,0.143-0.71,0.424-0.966l0,0
				c0.052-0.047,0.106-0.089,0.164-0.125l0,0c-0.096,0.045-0.186,0.105-0.269,0.182l0,0c-0.319,0.294-0.479,0.689-0.479,1.093l0,0
				c0,0.36,0.129,0.717,0.394,1.005l0,0c0.391,0.425,0.92,0.639,1.458,0.639l0,0c0.48,0,0.958-0.172,1.339-0.521l0,0
				c0.558-0.515,0.84-1.213,0.841-1.916l0,0c-0.001-0.631-0.226-1.259-0.687-1.76l0,0c-0.668-0.726-1.573-1.09-2.485-1.091l0,0
				c-0.818,0-1.635,0.294-2.284,0.892l0,0h0.001c-0.203,0.187-0.52,0.174-0.707-0.029l0,0c-0.187-0.203-0.175-0.52,0.029-0.707l0,0
				c0.839-0.772,1.903-1.156,2.961-1.156l0,0c1.179,0,2.359,0.477,3.223,1.415l0,0c0.635,0.691,0.95,1.566,0.949,2.437l0,0
				c0.001,0.971-0.394,1.941-1.163,2.652l0,0c-0.57,0.523-1.295,0.785-2.013,0.785l0,0
				C102.495,78.286,102.494,78.286,102.493,78.286L102.493,78.286z M101.899,75.232c-0.065,0.06-0.098,0.139-0.099,0.227l0,0
				c0.001,0.077,0.026,0.15,0.084,0.213l0,0c0.024,0.026,0.051,0.05,0.079,0.07l0,0c-0.036-0.166,0.014-0.347,0.146-0.472l0,0
				c0.008-0.008,0.009-0.015,0.01-0.019l0,0c-0.001-0.008-0.002-0.01-0.005-0.013l0,0c-0.033-0.036-0.069-0.049-0.111-0.05l0,0
				C101.968,75.19,101.934,75.201,101.899,75.232L101.899,75.232z"/>
		</g>
		<path fill-rule="evenodd" fill="#222221" stroke="#222221" stroke-width="0.455" stroke-linejoin="round" d="M92.273,75.548
			C75.875,88.12,77.992,92.185,77.992,92.185s13.946-16.763,28.061-0.183C106.053,92.002,108.673,88.12,92.273,75.548L92.273,75.548
			z"/>
		<path fill-rule="evenodd" fill="#222221" stroke="#222221" stroke-width="0.455" stroke-linejoin="round" d="M114.931,104.181
			c0,0,13.316,23.593,4.875,37.216c-7.15,11.538-22.75,2.763-20.638-6.338c0,0,1.95,9.751,11.537,9.101
			c0,0,10.366-0.841,7.638-13.326c-0.206-0.944-2.6-8.614-10.563-9.589C107.78,121.244,116.556,120.756,114.931,104.181z"/>
		<path fill-rule="evenodd" fill="#222221" stroke="#222221" stroke-width="0.455" stroke-linejoin="round" d="M69.741,104.181
			c0,0-13.316,23.593-4.875,37.216c7.149,11.538,23.163,3.787,20.638-6.338c0,0-1.95,9.751-11.538,9.101
			c0,0-10.366-0.841-7.638-13.326c0.207-0.944,2.601-8.614,10.563-9.589C76.891,121.244,68.116,120.756,69.741,104.181z"/>
		<path fill-rule="evenodd" fill="#222221" stroke="#222221" stroke-width="0.455" stroke-linejoin="round" d="M92.387,92.806
			c0,0,0.976,12.464,7.801,9.864c0,0-2.925,3.785-0.813,8.336c0,0-6.642,0.294-6.804,4.519h-0.208
			c-0.162-4.225-7.172-4.519-7.172-4.519c2.113-4.551-0.813-8.336-0.813-8.336c6.825,2.6,7.801-9.864,7.801-9.864H92.387z"/>
		
			<circle fill-rule="evenodd" fill="#222221" stroke="#222221" stroke-width="0.455" stroke-linejoin="round" cx="75.886" cy="109.16" r="1.189"/>
		
			<circle fill-rule="evenodd" fill="#222221" stroke="#222221" stroke-width="0.455" stroke-linejoin="round" cx="83.723" cy="93.347" r="1.189"/>
		
			<circle fill-rule="evenodd" fill="#222221" stroke="#222221" stroke-width="0.455" stroke-linejoin="round" cx="100.652" cy="93.395" r="1.19"/>
		
			<circle fill-rule="evenodd" fill="#222221" stroke="#222221" stroke-width="0.455" stroke-linejoin="round" cx="108.579" cy="109.112" r="1.189"/>
		
			<circle fill-rule="evenodd" fill="#222221" stroke="#222221" stroke-width="0.455" stroke-linejoin="round" cx="76.762" cy="135.054" r="1.19"/>
		
			<circle fill-rule="evenodd" fill="#222221" stroke="#222221" stroke-width="0.455" stroke-linejoin="round" cx="107.794" cy="135.054" r="1.189"/>
		
			<circle fill-rule="evenodd" fill="#222221" stroke="#222221" stroke-width="0.3458" stroke-linejoin="round" cx="84.002" cy="120.48" r="0.904"/>
		
			<circle fill-rule="evenodd" fill="#222221" stroke="#222221" stroke-width="0.3458" stroke-linejoin="round" cx="100.657" cy="120.544" r="0.904"/>
		
			<circle fill-rule="evenodd" fill="#222221" stroke="#222221" stroke-width="0.3458" stroke-linejoin="round" cx="83.784" cy="112.449" r="1.197"/>
		
			<circle fill-rule="evenodd" fill="#222221" stroke="#222221" stroke-width="0.3458" stroke-linejoin="round" cx="100.766" cy="112.449" r="1.197"/>
		
			<circle fill-rule="evenodd" fill="#222221" stroke="#222221" stroke-width="0.2628" stroke-linejoin="round" cx="92.371" cy="117.243" r="0.91"/>
		
			<circle fill-rule="evenodd" fill="#222221" stroke="#222221" stroke-width="0.2628" stroke-linejoin="round" cx="82.962" cy="102.042" r="0.909"/>
		
			<circle fill-rule="evenodd" fill="#222221" stroke="#222221" stroke-width="0.2628" stroke-linejoin="round" cx="101.725" cy="101.904" r="0.91"/>
		
			<circle fill-rule="evenodd" fill="#222221" stroke="#222221" stroke-width="0.2628" stroke-linejoin="round" cx="92.069" cy="89.785" r="2.123"/>
		<g>
			<path fill="#222221" d="M58.938,107.719c-1.793-0.735-2.879-2.466-2.878-4.291l0,0c0-0.585,0.11-1.181,0.346-1.753l0,0
				c0.604-1.474,2.025-2.368,3.524-2.367l0,0c0.481,0,0.971,0.092,1.442,0.285l0,0c1.218,0.498,1.955,1.672,1.954,2.911l0,0
				c0,0.398-0.076,0.802-0.234,1.192l0,0c-0.415,1.013-1.393,1.626-2.424,1.625l0,0c-0.331,0.001-0.667-0.063-0.99-0.194l0,0
				c-0.849-0.349-1.363-1.167-1.362-2.031l0,0c-0.001-0.275,0.053-0.56,0.164-0.829l0,0c0.294-0.718,0.985-1.154,1.717-1.153l0,0
				c0.234,0,0.473,0.044,0.702,0.139l0,0c0.612,0.252,0.984,0.843,0.983,1.466l0,0c0,0.199-0.038,0.403-0.118,0.601l0,0
				c-0.218,0.528-0.728,0.849-1.265,0.848l0,0c-0.174,0-0.35-0.033-0.518-0.102l0,0c-0.235-0.097-0.424-0.261-0.552-0.46l0,0
				c0.122,0.261,0.339,0.479,0.626,0.597l0,0c0.201,0.082,0.408,0.121,0.612,0.121l0,0c0.638-0.001,1.242-0.379,1.498-1.004l0,0
				c0.108-0.269,0.16-0.543,0.161-0.814l0,0c-0.001-0.846-0.503-1.646-1.334-1.985l0,0c-0.35-0.145-0.708-0.211-1.063-0.211l0,0
				c-1.105,0.001-2.154,0.658-2.6,1.747l0,0c-0.185,0.449-0.271,0.914-0.271,1.373l0,0c0.001,1.432,0.852,2.79,2.259,3.366l0,0
				c0.579,0.236,1.178,0.348,1.766,0.348l0,0c1.841,0,3.585-1.094,4.323-2.899l0,0c0.104-0.257,0.396-0.379,0.652-0.274l0,0
				c0.255,0.105,0.378,0.397,0.273,0.652l0,0c-0.898,2.194-3.015,3.522-5.249,3.522l0,0
				C60.368,108.143,59.64,108.005,58.938,107.719L58.938,107.719z M59.985,102.236c0.254,0.107,0.374,0.4,0.267,0.654l0,0
				c-0.008,0.021-0.013,0.042-0.013,0.069l0,0c0,0.075,0.046,0.148,0.121,0.179l0,0c0.045,0.019,0.093,0.028,0.139,0.028l0,0
				c0.144-0.001,0.283-0.087,0.339-0.226l0,0c0.031-0.076,0.045-0.151,0.045-0.224l0,0c-0.001-0.23-0.137-0.448-0.363-0.54l0,0
				c-0.107-0.045-0.215-0.065-0.323-0.065l0,0c-0.129,0.001-0.257,0.03-0.372,0.086l0,0
				C59.879,102.202,59.933,102.215,59.985,102.236L59.985,102.236z"/>
			<path fill="#222221" d="M57.962,114.556c-0.31,0-0.624-0.049-0.932-0.15l0,0c-1.517-0.5-2.478-1.906-2.477-3.421l0,0
				c0-0.374,0.059-0.752,0.181-1.125l0,0c0.606-1.841,2.317-3.01,4.156-3.009l0,0c0.454,0,0.916,0.071,1.37,0.221l0,0
				c0.263,0.088,0.404,0.37,0.317,0.632l0,0c-0.086,0.262-0.369,0.404-0.631,0.318l0,0c-0.352-0.116-0.706-0.171-1.057-0.171l0,0
				c-1.417,0-2.739,0.9-3.205,2.322l0,0c-0.09,0.271-0.132,0.544-0.133,0.812l0,0c0.001,1.093,0.694,2.111,1.79,2.472l0,0
				c0.206,0.067,0.413,0.1,0.619,0.1l0,0c0.83,0,1.607-0.529,1.882-1.363l0,0c0.051-0.153,0.073-0.31,0.073-0.464l0,0
				c0-0.623-0.396-1.205-1.02-1.409l0,0c-0.104-0.034-0.207-0.051-0.31-0.054l0,0c0.064,0.009,0.129,0.024,0.191,0.045l0,0
				c0.553,0.184,0.903,0.694,0.903,1.247l0,0c0,0.136-0.021,0.274-0.067,0.411l0,0c-0.211,0.637-0.801,1.042-1.439,1.041l0,0
				c-0.157,0-0.317-0.024-0.474-0.076l0,0c-0.745-0.245-1.218-0.937-1.217-1.681l0,0c-0.001-0.185,0.028-0.371,0.088-0.552l0,0
				c0.29-0.88,1.105-1.438,1.983-1.437l0,0c0.217-0.001,0.438,0.034,0.653,0.104l0,0c1.044,0.346,1.708,1.314,1.707,2.359l0,0
				c0.001,0.257-0.039,0.52-0.124,0.777l0,0c-0.414,1.253-1.577,2.05-2.829,2.05l0,0C57.963,114.556,57.962,114.556,57.962,114.556
				L57.962,114.556z M58.276,111.358l-0.001,0.005c0.001,0.006,0.005,0.017,0.016,0.02l0,0c0.175,0.059,0.296,0.203,0.332,0.371l0,0
				c0.018-0.03,0.032-0.063,0.044-0.098l0,0c0.01-0.033,0.016-0.066,0.016-0.099l0,0c0-0.131-0.085-0.255-0.216-0.297l0,0
				c-0.018-0.005-0.032-0.007-0.048-0.008l0,0C58.356,111.254,58.298,111.293,58.276,111.358L58.276,111.358z"/>
		</g>
		<g>
			<path fill="#222221" d="M118.285,104.62L118.285,104.62c-0.104-0.255,0.018-0.548,0.273-0.651l0,0
				c0.255-0.104,0.547,0.017,0.651,0.272l0,0c0.739,1.808,2.483,2.9,4.322,2.901l0,0c0.589-0.001,1.186-0.112,1.768-0.349l0,0
				c1.405-0.576,2.256-1.935,2.257-3.366l0,0c-0.001-0.458-0.087-0.924-0.271-1.374l0,0c-0.444-1.088-1.494-1.745-2.601-1.746l0,0
				c-0.355,0-0.714,0.067-1.063,0.211l0,0c-0.831,0.339-1.333,1.14-1.334,1.986l0,0c0,0.271,0.051,0.544,0.161,0.813l0,0
				c0.256,0.626,0.86,1.004,1.498,1.005l0,0c0.202-0.001,0.409-0.039,0.611-0.12l0,0c0.286-0.118,0.502-0.334,0.625-0.594l0,0
				c-0.128,0.197-0.316,0.36-0.552,0.457l0,0c-0.167,0.067-0.342,0.102-0.516,0.101l0,0c-0.538,0.001-1.048-0.319-1.264-0.847l0,0
				c-0.083-0.197-0.12-0.404-0.12-0.602l0,0c0-0.625,0.372-1.215,0.982-1.466l0,0c0.229-0.095,0.47-0.139,0.704-0.139l0,0
				c0.731-0.001,1.423,0.436,1.719,1.155l0,0c0.108,0.269,0.162,0.55,0.162,0.827l0,0c0,0.864-0.513,1.682-1.364,2.032l0,0
				c-0.322,0.131-0.658,0.194-0.988,0.194l0,0c-1.031,0.001-2.008-0.613-2.422-1.624l0,0c-0.162-0.391-0.237-0.796-0.236-1.193l0,0
				c-0.001-1.24,0.737-2.414,1.953-2.911l0,0c0.471-0.194,0.962-0.286,1.442-0.286l0,0c1.501-0.001,2.922,0.894,3.526,2.367l0,0
				c0.232,0.573,0.345,1.168,0.345,1.753l0,0c0.001,1.825-1.086,3.556-2.88,4.291l0,0c-0.702,0.287-1.43,0.424-2.145,0.424l0,0
				C121.299,108.144,119.183,106.814,118.285,104.62L118.285,104.62z M124.097,102.177c-0.227,0.093-0.361,0.312-0.363,0.541l0,0
				c0,0.074,0.014,0.146,0.044,0.222l0,0c0.059,0.141,0.196,0.227,0.34,0.227l0,0c0.045,0,0.092-0.008,0.14-0.026l0,0
				c0.074-0.03,0.119-0.104,0.12-0.181l0,0c0-0.024-0.004-0.049-0.014-0.073l0,0c-0.104-0.257,0.019-0.547,0.274-0.651l0,0
				c0.051-0.021,0.103-0.032,0.154-0.036l0,0c-0.115-0.056-0.242-0.085-0.372-0.085l0,0
				C124.312,102.113,124.203,102.134,124.097,102.177L124.097,102.177z"/>
			<path fill="#222221" d="M123.824,112.507c-0.086-0.258-0.126-0.521-0.126-0.778l0,0c0-1.044,0.663-2.015,1.708-2.359l0,0
				c0.216-0.07,0.436-0.104,0.652-0.104l0,0c0.878,0,1.693,0.557,1.984,1.437l0,0c0.061,0.184,0.089,0.37,0.089,0.552l0,0
				c0,0.745-0.474,1.435-1.218,1.682l0,0c-0.157,0.051-0.317,0.076-0.475,0.076l0,0c-0.638,0-1.229-0.405-1.438-1.039l0,0
				c-0.046-0.136-0.068-0.276-0.068-0.414l0,0c-0.001-0.552,0.35-1.065,0.901-1.246l0,0c0.065-0.021,0.133-0.037,0.199-0.047l0,0
				c-0.104,0.002-0.209,0.02-0.314,0.055l0,0c-0.625,0.204-1.021,0.786-1.021,1.409l0,0c0,0.154,0.023,0.31,0.075,0.465l0,0
				c0.273,0.834,1.049,1.362,1.881,1.362l0,0c0.205,0,0.414-0.031,0.619-0.099l0,0c1.095-0.361,1.788-1.381,1.789-2.473l0,0
				c-0.001-0.269-0.042-0.543-0.131-0.812l0,0c-0.468-1.422-1.79-2.322-3.206-2.322l0,0c-0.351,0-0.705,0.055-1.057,0.171l0,0h0.001
				c-0.263,0.086-0.546-0.056-0.632-0.318l0,0c-0.087-0.263,0.056-0.544,0.318-0.632l0,0c0.453-0.149,0.915-0.221,1.369-0.221l0,0
				c1.839,0,3.548,1.168,4.156,3.009l0,0c0.123,0.373,0.181,0.752,0.18,1.125l0,0c0.001,1.514-0.961,2.921-2.475,3.422l0,0
				c-0.309,0.102-0.623,0.148-0.933,0.148l0,0C125.401,114.557,124.236,113.76,123.824,112.507L123.824,112.507z M126.148,111.262
				c-0.132,0.042-0.214,0.164-0.215,0.296l0,0c0,0.03,0.004,0.063,0.018,0.099l0,0c0.011,0.034,0.025,0.067,0.043,0.097l0,0
				c0.035-0.167,0.156-0.312,0.33-0.369l0,0c0.009-0.002,0.016-0.016,0.016-0.021l0,0c0,0-0.001-0.006,0-0.004l0,0
				c-0.021-0.066-0.082-0.104-0.144-0.105l0,0C126.182,111.253,126.168,111.255,126.148,111.262L126.148,111.262z"/>
		</g>
		<polygon fill="#222221" stroke="#222221" stroke-width="0.1007" stroke-linecap="round" stroke-linejoin="round" points="
			95.011,159.166 89.313,159.165 92.164,146.308 		"/>
		<polygon fill="#222221" stroke="#222221" stroke-width="0.0503" stroke-linecap="round" stroke-linejoin="round" points="
			93.732,133.687 90.884,133.686 92.311,127.256 		"/>
		<polygon fill="#222221" stroke="#222221" stroke-width="0.0503" stroke-linecap="round" stroke-linejoin="round" points="
			71.276,97.29 72.807,94.888 77.464,99.543 		"/>
		<polygon fill="#222221" stroke="#222221" stroke-width="0.0503" stroke-linecap="round" stroke-linejoin="round" points="
			113.318,97.235 111.788,94.832 107.131,99.487 		"/>
		<polygon fill="#222221" stroke="#222221" stroke-width="0.0503" stroke-linecap="round" stroke-linejoin="round" points="
			74.686,103.688 76.216,101.284 80.873,105.939 		"/>
		<polygon fill="#222221" stroke="#222221" stroke-width="0.0503" stroke-linecap="round" stroke-linejoin="round" points="
			110,103.688 108.47,101.284 103.813,105.939 		"/>
		<polygon fill="#222221" stroke="#222221" stroke-width="0.0503" stroke-linecap="round" stroke-linejoin="round" points="
			95.821,127.821 98.379,126.569 94.272,121.42 		"/>
		<polygon fill="#222221" stroke="#222221" stroke-width="0.0503" stroke-linecap="round" stroke-linejoin="round" points="
			88.924,127.841 86.366,126.589 90.472,121.439 		"/>
		<polygon fill="#222221" stroke="#222221" stroke-width="0.0503" stroke-linecap="round" stroke-linejoin="round" points="
			77.178,126.673 78.615,129.133 72.347,131.148 		"/>
		<polygon fill="#222221" stroke="#222221" stroke-width="0.0503" stroke-linecap="round" stroke-linejoin="round" points="
			107.602,126.8 106.164,129.26 112.434,131.275 		"/>
		
			<rect x="90.51" y="141.393" fill="#222221" stroke="#222221" stroke-width="0.0244" stroke-linecap="round" stroke-linejoin="round" width="3.638" height="3.637"/>
		
			<circle fill-rule="evenodd" fill="#222221" stroke="#222221" stroke-width="0.1971" stroke-linejoin="round" cx="92.19" cy="71.355" r="0.682"/>
		<polygon fill-rule="evenodd" fill="#222221" stroke="#222221" stroke-width="0.0246" stroke-linejoin="round" points="
			77.116,124.313 76.744,123.169 77.717,122.462 78.689,123.169 78.318,124.313 		"/>
		<polygon fill-rule="evenodd" fill="#222221" stroke="#222221" stroke-width="0.0246" stroke-linejoin="round" points="
			74.193,124.987 73.821,123.844 74.794,123.137 75.767,123.844 75.396,124.987 		"/>
		<polygon fill-rule="evenodd" fill="#222221" stroke="#222221" stroke-width="0.0246" stroke-linejoin="round" points="
			71.429,126.426 71.057,125.282 72.029,124.575 73.002,125.282 72.631,126.426 		"/>
		<polygon fill-rule="evenodd" fill="#222221" stroke="#222221" stroke-width="0.0246" stroke-linejoin="round" points="
			107.248,124.15 107.62,123.007 106.647,122.3 105.675,123.007 106.046,124.15 		"/>
		<polygon fill-rule="evenodd" fill="#222221" stroke="#222221" stroke-width="0.0246" stroke-linejoin="round" points="
			110.171,124.825 110.543,123.682 109.57,122.975 108.598,123.682 108.969,124.825 		"/>
		<polygon fill-rule="evenodd" fill="#222221" stroke="#222221" stroke-width="0.0246" stroke-linejoin="round" points="
			112.936,126.263 113.308,125.119 112.335,124.412 111.362,125.119 111.733,126.263 		"/>
		
			<circle fill-rule="evenodd" fill="#222221" stroke="#222221" stroke-width="0.1971" stroke-linejoin="round" cx="88.506" cy="72.678" r="0.682"/>
		
			<circle fill-rule="evenodd" fill="#222221" stroke="#222221" stroke-width="0.1971" stroke-linejoin="round" cx="95.917" cy="72.655" r="0.682"/>
		
			<circle fill-rule="evenodd" fill="#222221" stroke="#222221" stroke-width="0.1971" stroke-linejoin="round" cx="61.185" cy="106.943" r="0.683"/>
		
			<circle fill-rule="evenodd" fill="#222221" stroke="#222221" stroke-width="0.1971" stroke-linejoin="round" cx="123.705" cy="106.851" r="0.683"/>
		
			<circle fill-rule="evenodd" fill="#222221" stroke="#222221" stroke-width="0.1971" stroke-linejoin="round" cx="79.667" cy="165.252" r="0.683"/>
		
			<circle fill-rule="evenodd" fill="#222221" stroke="#222221" stroke-width="0.1971" stroke-linejoin="round" cx="105.18" cy="165.264" r="0.682"/>
		<polygon fill-rule="evenodd" fill="#222221" stroke="#222221" stroke-width="0.0394" stroke-linejoin="round" points="
			86.699,161.541 88.117,159.086 89.534,161.541 		"/>
		<polygon fill-rule="evenodd" fill="#222221" stroke="#222221" stroke-width="0.0394" stroke-linejoin="round" points="
			95.051,161.52 96.468,159.064 97.886,161.52 		"/>
		<polygon fill-rule="evenodd" fill="#222221" stroke="#222221" stroke-width="0.0394" stroke-linejoin="round" points="
			86.841,87.235 88.259,89.69 89.676,87.235 		"/>
		<polygon fill-rule="evenodd" fill="#222221" stroke="#222221" stroke-width="0.0394" stroke-linejoin="round" points="
			94.57,87.355 95.989,89.811 97.406,87.355 		"/>
		<polygon fill="#222221" stroke="#222221" stroke-width="0.0327" stroke-linecap="round" stroke-linejoin="round" points="
			104.436,107.26 102.654,107.766 104.688,111.532 		"/>
		<polygon fill="#222221" stroke="#222221" stroke-width="0.0327" stroke-linecap="round" stroke-linejoin="round" points="
			106.397,112.306 106.667,114.138 110.667,112.613 		"/>
		<polygon fill="#222221" stroke="#222221" stroke-width="0.0327" stroke-linecap="round" stroke-linejoin="round" points="
			79.993,107.26 81.774,107.766 79.741,111.532 		"/>
		<polygon fill="#222221" stroke="#222221" stroke-width="0.0327" stroke-linecap="round" stroke-linejoin="round" points="
			77.841,112.306 77.571,114.138 73.572,112.613 		"/>
		<polygon fill="#222221" stroke="#222221" stroke-width="0.0327" stroke-linecap="round" stroke-linejoin="round" points="
			81.209,97.193 81.479,99.025 85.479,97.501 		"/>
		<polygon fill="#222221" stroke="#222221" stroke-width="0.0327" stroke-linecap="round" stroke-linejoin="round" points="
			74.709,138.147 74.979,139.979 78.979,138.454 		"/>
		<polygon fill="#222221" stroke="#222221" stroke-width="0.0327" stroke-linecap="round" stroke-linejoin="round" points="
			72.584,133.263 70.804,133.769 72.837,137.536 		"/>
		<polygon fill="#222221" stroke="#222221" stroke-width="0.0327" stroke-linecap="round" stroke-linejoin="round" points="
			112.007,132.612 113.787,133.118 111.754,136.887 		"/>
		<polygon fill="#222221" stroke="#222221" stroke-width="0.0327" stroke-linecap="round" stroke-linejoin="round" points="
			110.504,138.31 110.235,140.142 106.235,138.617 		"/>
		<polygon fill="#222221" stroke="#222221" stroke-width="0.0327" stroke-linecap="round" stroke-linejoin="round" points="
			103.029,97.193 102.76,99.025 98.761,97.501 		"/>
		<polygon fill="#222221" stroke="#222221" stroke-width="0.0327" stroke-linecap="round" stroke-linejoin="round" points="
			88.609,120.165 90.177,119.178 87.165,116.136 		"/>
		<polygon fill="#222221" stroke="#222221" stroke-width="0.0327" stroke-linecap="round" stroke-linejoin="round" points="
			96.208,120.306 94.641,119.318 97.652,116.276 		"/>
		
			<circle fill-rule="evenodd" fill="#222221" stroke="#222221" stroke-width="0.2628" stroke-linejoin="round" cx="83.899" cy="131.183" r="2.123"/>
		
			<circle fill-rule="evenodd" fill="#222221" stroke="#222221" stroke-width="0.2628" stroke-linejoin="round" cx="100.29" cy="131.328" r="2.123"/>
		
			<circle fill-rule="evenodd" fill="#222221" stroke="#222221" stroke-width="0.3458" stroke-linejoin="round" cx="76.138" cy="117.671" r="1.197"/>
		
			<circle fill-rule="evenodd" fill="#222221" stroke="#222221" stroke-width="0.3458" stroke-linejoin="round" cx="109.05" cy="117.671" r="1.197"/>
	</g>
</g>
<g id="two" display="none">
	<g display="inline">
		<path fill="#F8F8F7" stroke="#222221" d="M181.481,237.826c0,7.828-6.346,14.174-14.174,14.174H17.072
			c-7.827,0-14.173-6.346-14.173-14.174V16.724c0-7.827,6.346-14.173,14.173-14.173h150.236c7.828,0,14.174,6.346,14.174,14.173
			V237.826z"/>
		<path fill-rule="evenodd" fill="#222221" stroke="#222221" stroke-width="0.1625" stroke-linejoin="round" d="M92.167,28.063
			c-0.104,0.067-0.176,0.104-0.293,0.181c-7.596,4.85-16.457,14.311-17.365,26.104c-0.433,5.61,3.155,9.494,7.793,9.579
			c2.961,0.054,5.342-0.998,6.632-3.007c1.072-1.672,1.346-4.248,1.52-3.058c0.625,4.541-1.276,8.906-2.306,12.72
			c1.147-0.417,2.589-0.627,4.033-0.632h0.025c1.441,0.005,2.881,0.215,4.027,0.632c-1.029-3.813-2.928-8.179-2.303-12.72
			c0.172-1.19,0.445,1.386,1.516,3.058c1.289,2.009,3.67,3.061,6.631,3.007c4.639-0.085,8.227-3.969,7.795-9.579
			c-0.91-11.794-9.77-21.255-17.359-26.104c-0.082-0.062-0.154-0.099-0.273-0.181H92.167z"/>
		<path fill-rule="evenodd" fill="#222221" stroke="#222221" stroke-width="0.1625" stroke-linejoin="round" d="M92.167,226.488
			c-0.104-0.067-0.176-0.104-0.293-0.181c-7.596-4.85-16.457-14.311-17.365-26.104c-0.433-5.61,3.155-9.495,7.793-9.58
			c2.961-0.054,5.342,0.998,6.632,3.008c1.072,1.671,1.346,4.248,1.52,3.058c0.625-4.542-1.276-8.907-2.306-12.721
			c1.147,0.417,2.589,0.627,4.033,0.632h0.025c1.441-0.005,2.881-0.215,4.027-0.632c-1.029,3.813-2.928,8.179-2.303,12.721
			c0.172,1.19,0.445-1.387,1.516-3.058c1.289-2.01,3.67-3.062,6.631-3.008c4.639,0.085,8.227,3.97,7.795,9.58
			c-0.91,11.793-9.77,21.254-17.359,26.104c-0.082,0.063-0.154,0.1-0.273,0.181H92.167z"/>
		<path fill-rule="evenodd" fill="#222221" stroke="#222221" stroke-width="0.065" stroke-linejoin="round" d="M15.646,45.07
			c-0.041,0.027-0.07,0.042-0.117,0.072c-3.038,1.94-6.583,5.725-6.946,10.441c-0.173,2.244,1.263,3.798,3.117,3.832
			c1.185,0.021,2.137-0.399,2.653-1.203c0.429-0.668,0.538-1.699,0.607-1.223c0.25,1.816-0.511,3.563-0.922,5.088
			c0.459-0.167,1.035-0.251,1.613-0.253h0.01c0.576,0.002,1.152,0.086,1.61,0.253c-0.411-1.525-1.17-3.271-0.921-5.088
			c0.069-0.477,0.179,0.555,0.606,1.223c0.516,0.804,1.469,1.225,2.652,1.203c1.855-0.034,3.291-1.588,3.118-3.832
			c-0.364-4.717-3.908-8.501-6.943-10.441c-0.033-0.024-0.063-0.039-0.11-0.072H15.646z"/>
		<path fill-rule="evenodd" fill="#222221" stroke="#222221" stroke-width="0.065" stroke-linejoin="round" d="M168.716,209.48
			c-0.041-0.026-0.07-0.041-0.117-0.072c-3.037-1.939-6.582-5.724-6.945-10.441c-0.174-2.244,1.262-3.798,3.117-3.832
			c1.184-0.021,2.137,0.399,2.652,1.203c0.43,0.669,0.539,1.699,0.607,1.223c0.25-1.816-0.51-3.563-0.922-5.088
			c0.459,0.167,1.035,0.251,1.613,0.253h0.01c0.576-0.002,1.152-0.086,1.611-0.253c-0.412,1.525-1.17,3.271-0.922,5.088
			c0.07,0.477,0.18-0.554,0.607-1.223c0.516-0.804,1.469-1.225,2.652-1.203c1.855,0.034,3.291,1.588,3.117,3.832
			c-0.363,4.718-3.908,8.502-6.943,10.441c-0.033,0.025-0.063,0.04-0.109,0.072H168.716z"/>
		<path d="M22.738,37.048l-2.278-0.01l-0.009,1.448l-9.572-0.001c0.05-0.333,0.194-0.755,0.463-1.237
			c0.489-0.892,1.353-1.938,2.39-2.974c1.037-1.038,2.244-2.077,3.421-3.022l0.005-0.003l0.009-0.008
			c1.422-1.183,2.635-2.057,3.621-3.099c0.49-0.521,0.922-1.094,1.244-1.759c0.324-0.664,0.531-1.41,0.607-2.235
			c0.017-0.173,0.025-0.358,0.025-0.561c-0.001-0.562-0.066-1.24-0.254-1.972c-0.281-1.092-0.849-2.322-1.932-3.292
			c-1.08-0.973-2.655-1.607-4.682-1.6c-1.627-0.003-2.963,0.419-3.982,1.107c-0.766,0.513-1.345,1.16-1.771,1.829
			c-0.64,1.006-0.952,2.054-1.117,2.895c-0.163,0.842-0.177,1.483-0.177,1.694c0,0.039,0.001,0.063,0.001,0.072l1.976-0.053
			l0.305-0.004c0-0.002-0.001-0.007-0.001-0.016c-0.006-0.178,0.042-1.62,0.667-2.858c0.31-0.622,0.742-1.188,1.368-1.609
			c0.629-0.419,1.475-0.722,2.732-0.726c1.06,0.002,1.834,0.208,2.422,0.507c0.874,0.449,1.388,1.12,1.724,1.88
			c0.332,0.753,0.443,1.588,0.441,2.145c0,0.132-0.007,0.246-0.015,0.337c-0.056,0.576-0.185,1.016-0.38,1.42
			c-0.291,0.602-0.767,1.155-1.487,1.802c-0.716,0.643-1.657,1.359-2.765,2.275c-1.622,1.306-3.324,2.794-4.673,4.326
			c-0.675,0.77-1.264,1.549-1.707,2.353c-0.416,0.757-0.708,1.546-0.767,2.385H8.583L8.575,38.63c0,0,0,0.001,0,0.002l0,0
			l-0.001,0.006l-0.006,2.182h14.174v-1.001L22.738,37.048z"/>
		<path d="M161.642,217.503l2.279,0.01l0.01-1.447h9.572c-0.051,0.332-0.195,0.755-0.465,1.238
			c-0.488,0.891-1.352,1.937-2.389,2.973c-1.037,1.039-2.244,2.077-3.42,3.022l-0.006,0.003l-0.008,0.008
			c-1.422,1.183-2.637,2.057-3.623,3.099c-0.488,0.521-0.92,1.094-1.242,1.759c-0.324,0.664-0.531,1.41-0.609,2.235
			c-0.016,0.173-0.023,0.358-0.023,0.562c0,0.561,0.066,1.238,0.254,1.971c0.279,1.092,0.848,2.322,1.932,3.291
			c1.078,0.973,2.654,1.607,4.682,1.602c1.627,0.002,2.963-0.42,3.982-1.107c0.766-0.514,1.344-1.162,1.771-1.83
			c0.639-1.006,0.951-2.055,1.115-2.895c0.164-0.842,0.178-1.484,0.178-1.695c0-0.037,0-0.063,0-0.072l-1.977,0.053l-0.305,0.004
			c0,0.003,0,0.008,0,0.016c0.006,0.178-0.041,1.621-0.666,2.859c-0.311,0.621-0.742,1.188-1.369,1.609
			c-0.629,0.419-1.475,0.721-2.73,0.725c-1.061-0.001-1.836-0.207-2.424-0.506c-0.873-0.449-1.387-1.12-1.723-1.881
			c-0.332-0.752-0.443-1.588-0.441-2.143c0-0.133,0.006-0.248,0.016-0.338c0.055-0.576,0.184-1.016,0.379-1.42
			c0.291-0.602,0.766-1.154,1.486-1.802c0.717-0.643,1.658-1.359,2.766-2.276c1.623-1.305,3.324-2.793,4.674-4.326
			c0.674-0.768,1.262-1.549,1.707-2.352c0.416-0.758,0.707-1.545,0.766-2.385h0.008l0.008-0.145c0,0,0-0.001,0-0.002l0,0v-0.006
			l0.006-2.182H161.64v1.001L161.642,217.503z"/>
	</g>
</g>
<g id="three">
	<g>
		<path fill="#F8F8F7" stroke="#222221" d="M181.371,237.614c0,7.827-6.346,14.173-14.174,14.173H16.96
			c-7.828,0-14.174-6.346-14.174-14.173V16.512c0-7.828,6.346-14.174,14.174-14.174h150.237c7.828,0,14.174,6.346,14.174,14.174
			V237.614z"/>
		<g>
			<path d="M16.6,24.3l5.877-5.248h0.02v-0.018l0.006-0.006l-0.006-0.007v-2.51H8.966l0.007,1.813v2.257h2.079v-1.542l7.913,0.009
				l-7.769,7.195l1.119,1.658c0.848-0.78,1.911-1.244,3.079-1.244c1.369,0,2.743,0.64,3.642,1.679
				c0.896,1.041,1.449,2.467,1.449,4.054s-0.553,3.012-1.449,4.054c-0.898,1.039-2.272,1.679-3.642,1.679
				c-1.37,0-2.601-0.64-3.5-1.679c-0.648-0.754-1.117-1.708-1.327-2.779l-2.111,0.437c0.68,3.717,3.527,6.504,6.938,6.506
				c3.917-0.002,7.234-3.679,7.234-8.217C22.629,28.327,19.968,24.962,16.6,24.3z"/>
			<polygon points="12.315,27.901 12.315,27.901 12.315,27.901 			"/>
		</g>
		<g>
			<path d="M167.557,229.826l-5.877,5.248h-0.02v0.018l-0.006,0.005l0.006,0.008v2.51h13.531l-0.008-1.813v-2.257h-2.078v1.542
				l-7.914-0.009l7.77-7.195l-1.119-1.658c-0.848,0.78-1.912,1.243-3.08,1.244c-1.369-0.001-2.742-0.64-3.641-1.679
				c-0.898-1.041-1.449-2.467-1.449-4.054s0.551-3.013,1.449-4.054c0.898-1.039,2.271-1.679,3.641-1.679
				c1.371,0,2.602,0.64,3.5,1.679c0.648,0.754,1.117,1.708,1.326,2.779l2.113-0.437c-0.68-3.717-3.527-6.505-6.939-6.506
				c-3.916,0.001-7.234,3.679-7.234,8.217C161.527,225.799,164.189,229.163,167.557,229.826z"/>
			<polygon points="171.842,226.224 171.842,226.225 171.842,226.225 			"/>
		</g>
		<path fill-rule="evenodd" fill="#222221" stroke="#222221" stroke-width="0.065" stroke-linejoin="round" d="M168.605,209.268
			c-0.041-0.026-0.07-0.041-0.117-0.072c-3.039-1.939-6.584-5.724-6.947-10.441c-0.172-2.244,1.264-3.798,3.119-3.832
			c1.184-0.021,2.137,0.399,2.652,1.203c0.428,0.669,0.537,1.699,0.607,1.223c0.25-1.816-0.512-3.563-0.922-5.088
			c0.459,0.167,1.035,0.251,1.613,0.253h0.01c0.576-0.002,1.152-0.086,1.609-0.253c-0.41,1.525-1.17,3.271-0.92,5.088
			c0.068,0.477,0.178-0.554,0.605-1.223c0.516-0.804,1.469-1.225,2.652-1.203c1.855,0.034,3.291,1.588,3.119,3.832
			c-0.363,4.718-3.908,8.502-6.943,10.441c-0.033,0.024-0.063,0.04-0.111,0.072H168.605z"/>
		<path fill-rule="evenodd" fill="#222221" stroke="#222221" stroke-width="0.065" stroke-linejoin="round" d="M15.533,44.857
			c-0.041,0.027-0.07,0.042-0.117,0.072c-3.038,1.94-6.583,5.725-6.946,10.441c-0.173,2.244,1.263,3.798,3.117,3.832
			c1.185,0.021,2.137-0.399,2.653-1.203c0.429-0.668,0.538-1.699,0.607-1.223c0.25,1.816-0.511,3.563-0.922,5.088
			c0.459-0.167,1.035-0.251,1.613-0.253h0.01c0.577,0.002,1.152,0.086,1.61,0.253c-0.411-1.525-1.17-3.271-0.921-5.088
			c0.069-0.477,0.179,0.555,0.606,1.223c0.516,0.804,1.469,1.225,2.652,1.203c1.855-0.034,3.291-1.588,3.118-3.832
			c-0.364-4.717-3.908-8.501-6.943-10.441c-0.033-0.024-0.063-0.039-0.11-0.072H15.533z"/>
		<path fill-rule="evenodd" fill="#222221" stroke="#222221" stroke-width="0.1625" stroke-linejoin="round" d="M92.053,27.85
			c-0.101,0.067-0.173,0.104-0.292,0.181c-7.594,4.85-16.455,14.311-17.363,26.104c-0.432,5.61,3.154,9.494,7.793,9.579
			c2.961,0.054,5.342-0.998,6.631-3.007c1.072-1.672,1.346-4.248,1.52-3.058c0.625,4.541-1.275,8.906-2.305,12.72
			c1.146-0.417,2.588-0.627,4.033-0.632h0.023c1.444,0.005,2.882,0.215,4.029,0.632c-1.028-3.813-2.927-8.179-2.304-12.72
			c0.174-1.19,0.447,1.386,1.518,3.058c1.29,2.009,3.671,3.061,6.632,3.007c4.639-0.085,8.225-3.969,7.793-9.579
			C108.852,42.341,99.99,32.88,92.4,28.03c-0.084-0.062-0.156-0.099-0.275-0.181H92.053z"/>
		<path fill-rule="evenodd" fill="#222221" stroke="#222221" stroke-width="0.1625" stroke-linejoin="round" d="M92.053,105.803
			c-0.101,0.067-0.173,0.104-0.292,0.181c-7.594,4.85-16.455,14.311-17.363,26.104c-0.432,5.611,3.154,9.495,7.793,9.58
			c2.961,0.054,5.342-0.998,6.631-3.008c1.072-1.671,1.346-4.248,1.52-3.057c0.625,4.541-1.275,8.906-2.305,12.72
			c1.146-0.417,2.588-0.627,4.033-0.632h0.023c1.444,0.005,2.882,0.215,4.029,0.632c-1.028-3.813-2.927-8.179-2.304-12.72
			c0.174-1.191,0.447,1.386,1.518,3.057c1.29,2.01,3.671,3.062,6.632,3.008c4.639-0.085,8.225-3.969,7.793-9.58
			c-0.908-11.793-9.77-21.254-17.359-26.104c-0.084-0.063-0.156-0.1-0.275-0.181H92.053z"/>
		<path fill-rule="evenodd" fill="#222221" stroke="#222221" stroke-width="0.1625" stroke-linejoin="round" d="M92.053,226.274
			c-0.101-0.066-0.173-0.103-0.292-0.18c-7.594-4.85-16.455-14.311-17.363-26.104c-0.432-5.611,3.154-9.496,7.793-9.58
			c2.961-0.055,5.342,0.998,6.631,3.008c1.072,1.671,1.346,4.248,1.52,3.057c0.625-4.541-1.275-8.906-2.305-12.721
			c1.146,0.418,2.588,0.627,4.033,0.633h0.023c1.444-0.006,2.882-0.215,4.029-0.633c-1.028,3.814-2.927,8.18-2.304,12.721
			c0.174,1.191,0.447-1.386,1.518-3.057c1.29-2.01,3.671-3.063,6.632-3.008c4.639,0.084,8.225,3.969,7.793,9.58
			c-0.908,11.793-9.77,21.254-17.359,26.104c-0.084,0.063-0.156,0.1-0.275,0.18H92.053z"/>
	</g>
</g>
</svg>
